<svg version="1.1" viewBox="0.0 0.0 654.0 371.0" fill="none" stroke="none" stroke-linecap="square" stroke-miterlimit="10" width="654" height="371" xmlns:xlink="http://www.w3.org/1999/xlink" xmlns="http://www.w3.org/2000/svg"><path fill="#ffffff" fill-opacity="0.0" d="M0 0L654.0 0L654.0 371.0L0 371.0L0 0Z" fill-rule="nonzero"/><clipPath id="id_0"><path d="M52.55 25.55L635.45 25.55L635.45 306.08334L52.55 306.08334L52.55 25.55Z" clip-rule="nonzero"/></clipPath><path stroke="#000000" stroke-width="2.0" stroke-linecap="butt" stroke-opacity="0.0" clip-path="url(#id_0)" d="M296.0 306.0L204.0 306.0L204.0 28.0C204.0 26.89543 204.89543 26.0 206.0 26.0L294.0 26.0C295.10458 26.0 296.0 26.89543 296.0 28.0Z" fill-rule="nonzero"/><path fill="#f1c232" clip-path="url(#id_0)" d="M296.0 306.0L204.0 306.0L204.0 28.0C204.0 26.89543 204.89543 26.0 206.0 26.0L294.0 26.0C295.10458 26.0 296.0 26.89543 296.0 28.0Z" fill-rule="nonzero"/><path stroke="#000000" stroke-width="2.0" stroke-linecap="butt" stroke-opacity="0.0" clip-path="url(#id_0)" d="M390.0 306.0L298.0 306.0L298.0 61.0C298.0 59.89543 298.89542 59.0 300.0 59.0L388.0 59.0C389.10458 59.0 390.0 59.89543 390.0 61.0Z" fill-rule="nonzero"/><path fill="#a4c2f4" clip-path="url(#id_0)" d="M390.0 306.0L298.0 306.0L298.0 61.0C298.0 59.89543 298.89542 59.0 300.0 59.0L388.0 59.0C389.10458 59.0 390.0 59.89543 390.0 61.0Z" fill-rule="nonzero"/><path stroke="#000000" stroke-width="2.0" stroke-linecap="butt" stroke-opacity="0.0" clip-path="url(#id_0)" d="M484.0 306.0L392.0 306.0L392.0 286.0C392.0 284.89542 392.89542 284.0 394.0 284.0L482.0 284.0C483.10458 284.0 484.0 284.89542 484.0 286.0Z" fill-rule="nonzero"/><path fill="#ff0000" clip-path="url(#id_0)" d="M484.0 306.0L392.0 306.0L392.0 286.0C392.0 284.89542 392.89542 284.0 394.0 284.0L482.0 284.0C483.10458 284.0 484.0 284.89542 484.0 286.0Z" fill-rule="nonzero"/><path fill="#ffffff" d="M27.05 305.75522Q27.05 303.3021 27.925 302.33334Q28.8 301.34897 30.6125 301.34897Q31.471874 301.34897 32.034374 301.56772Q32.596874 301.77084 32.940624 302.1146Q33.3 302.45834 33.503124 302.83334Q33.70625 303.20834 33.815624 303.72397Q34.065624 304.6771 34.065624 305.72397Q34.065624 308.06772 33.26875 309.14584Q32.4875 310.22397 30.55 310.22397Q29.45625 310.22397 28.784374 309.88022Q28.128124 309.53647 27.70625 308.8646Q27.39375 308.39584 27.221874 307.58334Q27.05 306.75522 27.05 305.75522ZM29.409374 305.75522Q29.409374 307.39584 29.690624 308.00522Q29.9875 308.59897 30.534374 308.59897Q30.909374 308.59897 31.175 308.34897Q31.440624 308.08334 31.565624 307.53647Q31.690624 306.9896 31.690624 305.81772Q31.690624 304.1146 31.39375 303.52084Q31.1125 302.9271 30.534374 302.9271Q29.940624 302.9271 29.675 303.53647Q29.409374 304.13022 29.409374 305.75522ZM42.425 301.34897L43.659374 301.34897L38.70625 310.52084L37.471874 310.52084L42.425 301.34897ZM35.128124 303.59897Q35.128124 303.00522 35.39375 302.47397Q35.659374 301.9271 36.190624 301.64584Q36.721874 301.34897 37.45625 301.34897Q38.534374 301.34897 39.159374 301.97397Q39.784374 302.58334 39.784374 303.59897Q39.784374 304.63022 39.159374 305.25522Q38.534374 305.8646 37.45625 305.8646Q36.721874 305.8646 36.190624 305.58334Q35.659374 305.28647 35.39375 304.75522Q35.128124 304.20834 35.128124 303.59897ZM36.784374 303.6146Q36.784374 304.33334 37.01875 304.66147Q37.159374 304.88022 37.45625 304.88022Q37.753124 304.88022 37.89375 304.66147Q38.128124 304.33334 38.128124 303.6146Q38.128124 302.89584 37.89375 302.5521Q37.753124 302.34897 37.45625 302.34897Q37.159374 302.34897 37.01875 302.5521Q36.784374 302.88022 36.784374 303.6146ZM41.33125 308.25522Q41.33125 307.64584 41.58125 307.1146Q41.846874 306.56772 42.378124 306.28647Q42.925 305.9896 43.64375 305.9896Q44.721874 305.9896 45.346874 306.6146Q45.971874 307.22397 45.971874 308.25522Q45.971874 309.27084 45.346874 309.89584Q44.721874 310.50522 43.64375 310.50522Q42.925 310.50522 42.378124 310.20834Q41.846874 309.9271 41.58125 309.39584Q41.33125 308.84897 41.33125 308.25522ZM42.971874 308.25522Q42.971874 308.9896 43.20625 309.31772Q43.346874 309.52084 43.64375 309.52084Q43.940624 309.52084 44.096874 309.31772Q44.33125 308.9896 44.33125 308.25522Q44.33125 307.53647 44.096874 307.19272Q43.940624 306.9896 43.64375 306.9896Q43.346874 306.9896 43.20625 307.20834Q42.971874 307.53647 42.971874 308.25522Z" fill-rule="nonzero"/><path fill="#ffffff" d="M26.034374 172.56699L18.8625 172.56699Q18.9875 171.50449 19.6125 170.56699Q20.2375 169.62949 21.95625 168.36386Q23.003124 167.58261 23.3 167.17636Q23.596874 166.77011 23.596874 166.41074Q23.596874 166.02011 23.3 165.73886Q23.003124 165.45761 22.565624 165.45761Q22.1125 165.45761 21.815624 165.75449Q21.534374 166.03574 21.440624 166.77011L19.05 166.56699Q19.190624 165.56699 19.565624 165.00449Q19.940624 164.42636 20.6125 164.12949Q21.3 163.83261 22.503124 163.83261Q23.76875 163.83261 24.45625 164.12949Q25.159374 164.41074 25.565624 165.00449Q25.971874 165.59824 25.971874 166.33261Q25.971874 167.11386 25.503124 167.83261Q25.05 168.55136 23.83125 169.39511Q23.1125 169.89511 22.8625 170.09824Q22.628124 170.30136 22.3 170.61386L26.034374 170.61386L26.034374 172.56699ZM28.003124 163.97324L33.675 163.97324L33.675 165.87949L29.83125 165.87949L29.628124 167.17636Q30.034374 166.98886 30.425 166.89511Q30.815624 166.80136 31.190624 166.80136Q32.4875 166.80136 33.284374 167.58261Q34.08125 168.34824 34.08125 169.53574Q34.08125 170.36386 33.659374 171.14511Q33.253124 171.91074 32.4875 172.31699Q31.7375 172.70761 30.565624 172.70761Q29.70625 172.70761 29.096874 172.55136Q28.503124 172.39511 28.065624 172.08261Q27.64375 171.75449 27.378124 171.34824Q27.1125 170.94199 26.940624 170.33261L29.3625 170.08261Q29.440624 170.66074 29.76875 170.95761Q30.096874 171.25449 30.534374 171.25449Q31.034374 171.25449 31.3625 170.87949Q31.690624 170.50449 31.690624 169.75449Q31.690624 168.98886 31.3625 168.62949Q31.034374 168.27011 30.4875 168.27011Q30.14375 168.27011 29.815624 168.44199Q29.58125 168.56699 29.284374 168.87949L27.253124 168.59824L28.003124 163.97324ZM42.425 163.83261L43.659374 163.83261L38.70625 173.00449L37.471874 173.00449L42.425 163.83261ZM35.128124 166.08261Q35.128124 165.48886 35.39375 164.95761Q35.659374 164.41074 36.190624 164.12949Q36.721874 163.83261 37.45625 163.83261Q38.534374 163.83261 39.159374 164.45761Q39.784374 165.06699 39.784374 166.08261Q39.784374 167.11386 39.159374 167.73886Q38.534374 168.34824 37.45625 168.34824Q36.721874 168.34824 36.190624 168.06699Q35.659374 167.77011 35.39375 167.23886Q35.128124 166.69199 35.128124 166.08261ZM36.784374 166.09824Q36.784374 166.81699 37.01875 167.14511Q37.159374 167.36386 37.45625 167.36386Q37.753124 167.36386 37.89375 167.14511Q38.128124 166.81699 38.128124 166.09824Q38.128124 165.37949 37.89375 165.03574Q37.753124 164.83261 37.45625 164.83261Q37.159374 164.83261 37.01875 165.03574Q36.784374 165.36386 36.784374 166.09824ZM41.33125 170.73886Q41.33125 170.12949 41.58125 169.59824Q41.846874 169.05136 42.378124 168.77011Q42.925 168.47324 43.64375 168.47324Q44.721874 168.47324 45.346874 169.09824Q45.971874 169.70761 45.971874 170.73886Q45.971874 171.75449 45.346874 172.37949Q44.721874 172.98886 43.64375 172.98886Q42.925 172.98886 42.378124 172.69199Q41.846874 172.41074 41.58125 171.87949Q41.33125 171.33261 41.33125 170.73886ZM42.971874 170.73886Q42.971874 171.47324 43.20625 171.80136Q43.346874 172.00449 43.64375 172.00449Q43.940624 172.00449 44.096874 171.80136Q44.33125 171.47324 44.33125 170.73886Q44.33125 170.02011 44.096874 169.67636Q43.940624 169.47324 43.64375 169.47324Q43.346874 169.47324 43.20625 169.69199Q42.971874 170.02011 42.971874 170.73886Z" fill-rule="nonzero"/><path fill="#ffffff" d="M20.003124 26.456905L25.675 26.456905L25.675 28.363155L21.83125 28.363155L21.628124 29.66003Q22.034374 29.47253 22.425 29.37878Q22.815624 29.28503 23.190624 29.28503Q24.4875 29.28503 25.284374 30.06628Q26.08125 30.831905 26.08125 32.019405Q26.08125 32.84753 25.659374 33.62878Q25.253124 34.394405 24.4875 34.800655Q23.7375 35.19128 22.565624 35.19128Q21.70625 35.19128 21.096874 35.03503Q20.503124 34.87878 20.065624 34.56628Q19.64375 34.238155 19.378124 33.831905Q19.1125 33.425655 18.940624 32.81628L21.3625 32.56628Q21.440624 33.144405 21.76875 33.44128Q22.096874 33.738155 22.534374 33.738155Q23.034374 33.738155 23.3625 33.363155Q23.690624 32.988155 23.690624 32.238155Q23.690624 31.47253 23.3625 31.113155Q23.034374 30.75378 22.4875 30.75378Q22.14375 30.75378 21.815624 30.925655Q21.58125 31.050655 21.284374 31.363155L19.253124 31.081905L20.003124 26.456905ZM27.05 30.72253Q27.05 28.269405 27.925 27.300655Q28.8 26.31628 30.6125 26.31628Q31.471874 26.31628 32.034374 26.53503Q32.596874 26.738155 32.940624 27.081905Q33.3 27.425655 33.503124 27.800655Q33.70625 28.175655 33.815624 28.69128Q34.065624 29.644405 34.065624 30.69128Q34.065624 33.03503 33.26875 34.113155Q32.4875 35.19128 30.55 35.19128Q29.45625 35.19128 28.784374 34.84753Q28.128124 34.50378 27.70625 33.831905Q27.39375 33.363155 27.221874 32.550655Q27.05 31.72253 27.05 30.72253ZM29.409374 30.72253Q29.409374 32.363155 29.690624 32.97253Q29.9875 33.56628 30.534374 33.56628Q30.909374 33.56628 31.175 33.31628Q31.440624 33.050655 31.565624 32.50378Q31.690624 31.956905 31.690624 30.78503Q31.690624 29.081905 31.39375 28.488155Q31.1125 27.894405 30.534374 27.894405Q29.940624 27.894405 29.675 28.50378Q29.409374 29.09753 29.409374 30.72253ZM42.425 26.31628L43.659374 26.31628L38.70625 35.488155L37.471874 35.488155L42.425 26.31628ZM35.128124 28.56628Q35.128124 27.97253 35.39375 27.44128Q35.659374 26.894405 36.190624 26.613155Q36.721874 26.31628 37.45625 26.31628Q38.534374 26.31628 39.159374 26.94128Q39.784374 27.550655 39.784374 28.56628Q39.784374 29.59753 39.159374 30.22253Q38.534374 30.831905 37.45625 30.831905Q36.721874 30.831905 36.190624 30.550655Q35.659374 30.25378 35.39375 29.72253Q35.128124 29.175655 35.128124 28.56628ZM36.784374 28.581905Q36.784374 29.300655 37.01875 29.62878Q37.159374 29.84753 37.45625 29.84753Q37.753124 29.84753 37.89375 29.62878Q38.128124 29.300655 38.128124 28.581905Q38.128124 27.863155 37.89375 27.519405Q37.753124 27.31628 37.45625 27.31628Q37.159374 27.31628 37.01875 27.519405Q36.784374 27.84753 36.784374 28.581905ZM41.33125 33.22253Q41.33125 32.613155 41.58125 32.081905Q41.846874 31.53503 42.378124 31.25378Q42.925 30.956905 43.64375 30.956905Q44.721874 30.956905 45.346874 31.581905Q45.971874 32.19128 45.971874 33.22253Q45.971874 34.238155 45.346874 34.863155Q44.721874 35.47253 43.64375 35.47253Q42.925 35.47253 42.378124 35.175655Q41.846874 34.894405 41.58125 34.363155Q41.33125 33.81628 41.33125 33.22253ZM42.971874 33.22253Q42.971874 33.956905 43.20625 34.28503Q43.346874 34.488155 43.64375 34.488155Q43.940624 34.488155 44.096874 34.28503Q44.33125 33.956905 44.33125 33.22253Q44.33125 32.50378 44.096874 32.16003Q43.940624 31.956905 43.64375 31.956905Q43.346874 31.956905 43.20625 32.175655Q42.971874 32.50378 42.971874 33.22253Z" fill-rule="nonzero"/><path fill="#000000" d="M322.375 314.4896L326.78125 314.4896Q328.21875 314.4896 328.9375 315.1771Q329.65625 315.8646 329.65625 317.13022Q329.65625 318.4271 328.875 319.16147Q328.09375 319.89584 326.48438 319.89584L325.03125 319.89584L325.03125 323.08334L322.375 323.08334L322.375 314.4896ZM325.03125 318.16147L325.6875 318.16147Q326.45312 318.16147 326.76562 317.89584Q327.07812 317.6146 327.07812 317.20834Q327.07812 316.8021 326.79688 316.52084Q326.53125 316.2396 325.79688 316.2396L325.03125 316.2396L325.03125 318.16147ZM330.92188 319.9896Q330.92188 318.56772 331.875 317.64584Q332.84375 316.72397 334.48438 316.72397Q336.35938 316.72397 337.3125 317.8021Q338.07812 318.6771 338.07812 319.95834Q338.07812 321.39584 337.125 322.31772Q336.17188 323.22397 334.48438 323.22397Q332.98438 323.22397 332.0625 322.45834Q330.92188 321.52084 330.92188 319.9896ZM333.3125 319.9896Q333.3125 320.81772 333.65625 321.22397Q334.0 321.6146 334.5 321.6146Q335.01562 321.6146 335.34375 321.22397Q335.6875 320.83334 335.6875 319.95834Q335.6875 319.14584 335.34375 318.75522Q335.01562 318.3646 334.51562 318.3646Q334.0 318.3646 333.65625 318.77084Q333.3125 319.16147 333.3125 319.9896ZM339.29688 314.4896L341.6875 314.4896L341.6875 323.08334L339.29688 323.08334L339.29688 314.4896ZM343.29688 314.4896L345.6875 314.4896L345.6875 323.08334L343.29688 323.08334L343.29688 314.4896ZM347.3125 314.4896L349.6875 314.4896L349.6875 316.1146L347.3125 316.1146L347.3125 314.4896ZM347.3125 316.8646L349.6875 316.8646L349.6875 323.08334L347.3125 323.08334L347.3125 316.8646ZM351.21875 316.8646L353.4375 316.8646L353.4375 317.88022Q353.9375 317.25522 354.4375 316.9896Q354.95312 316.72397 355.6875 316.72397Q356.6875 316.72397 357.23438 317.31772Q357.79688 317.89584 357.79688 319.13022L357.79688 323.08334L355.40625 323.08334L355.40625 319.66147Q355.40625 319.06772 355.1875 318.83334Q354.96875 318.58334 354.57812 318.58334Q354.14062 318.58334 353.875 318.91147Q353.60938 319.2396 353.60938 320.09897L353.60938 323.08334L351.21875 323.08334L351.21875 316.8646ZM363.54688 316.8646L365.78125 316.8646L365.78125 322.7396L365.79688 323.00522Q365.79688 323.59897 365.54688 324.13022Q365.29688 324.66147 364.875 324.9896Q364.46875 325.31772 363.82812 325.45834Q363.1875 325.6146 362.375 325.6146Q360.5 325.6146 359.79688 325.0521Q359.09375 324.4896 359.09375 323.53647Q359.09375 323.4271 359.10938 323.22397L361.42188 323.4896Q361.51562 323.81772 361.6875 323.9271Q361.95312 324.1146 362.35938 324.1146Q362.875 324.1146 363.125 323.83334Q363.375 323.56772 363.375 322.88022L363.375 321.9271Q363.03125 322.34897 362.67188 322.53647Q362.125 322.83334 361.48438 322.83334Q360.23438 322.83334 359.46875 321.7396Q358.92188 320.97397 358.92188 319.69272Q358.92188 318.2396 359.625 317.4896Q360.32812 316.72397 361.46875 316.72397Q362.20312 316.72397 362.67188 316.97397Q363.14062 317.20834 363.54688 317.78647L363.54688 316.8646ZM361.3125 319.88022Q361.3125 320.5521 361.59375 320.88022Q361.875 321.20834 362.34375 321.20834Q362.79688 321.20834 363.09375 320.8646Q363.40625 320.52084 363.40625 319.84897Q363.40625 319.16147 363.07812 318.8021Q362.76562 318.44272 362.3125 318.44272Q361.85938 318.44272 361.57812 318.78647Q361.3125 319.1146 361.3125 319.88022Z" fill-rule="nonzero"/><path fill="#f1c232" d="M75.5625 340.45C75.5625 339.8977 76.010216 339.45 76.5625 339.45L86.5625 339.45C87.114784 339.45 87.5625 339.8977 87.5625 340.45L87.5625 350.45C87.5625 351.0023 87.114784 351.45 86.5625 351.45L76.5625 351.45C76.010216 351.45 75.5625 351.0023 75.5625 350.45Z" fill-rule="nonzero"/><path fill="#ffffff" d="M96.4375 340.48126L99.46875 340.48126L99.46875 346.96564L103.609375 346.96564L103.609375 349.45L96.4375 349.45L96.4375 340.48126ZM104.359375 346.16876Q104.359375 344.66876 105.375 343.7Q106.390625 342.71564 108.109375 342.71564Q110.0625 342.71564 111.078125 343.85626Q111.890625 344.77814 111.890625 346.1375Q111.890625 347.65314 110.875 348.6219Q109.875 349.59064 108.109375 349.59064Q106.546875 349.59064 105.5625 348.77814Q104.359375 347.79376 104.359375 346.16876ZM107.125 346.16876Q107.125 346.9344 107.40625 347.27814Q107.703125 347.60626 108.125 347.60626Q108.546875 347.60626 108.828125 347.27814Q109.125 346.95 109.125 346.1375Q109.125 345.3875 108.828125 345.0594Q108.546875 344.73126 108.140625 344.73126Q107.703125 344.73126 107.40625 345.075Q107.125 345.40314 107.125 346.16876ZM119.96875 349.45L117.359375 349.45L117.359375 348.77814Q117.171875 349.0125 116.625 349.3094Q116.09375 349.59064 115.296875 349.59064Q114.234375 349.59064 113.625 348.95Q113.015625 348.3094 113.015625 346.9969L113.015625 342.85626L115.78125 342.85626L115.78125 346.46564Q115.78125 346.96564 115.9375 347.16876Q116.109375 347.35626 116.421875 347.35626Q116.75 347.35626 116.96875 347.09064Q117.203125 346.825 117.203125 346.02814L117.203125 342.85626L119.96875 342.85626L119.96875 349.45ZM121.5 340.48126L124.25 340.48126L124.25 342.48126L121.5 342.48126L121.5 340.48126ZM121.5 342.85626L124.25 342.85626L124.25 349.45L121.5 349.45L121.5 342.85626ZM125.3125 347.3719L128.04688 347.10626Q128.21875 347.60626 128.4375 347.7625Q128.65625 347.91876 129.03125 347.91876Q129.45312 347.91876 129.67188 347.7469Q129.79688 347.65314 129.79688 347.5125Q129.79688 347.3719 129.60938 347.29376Q129.45312 347.1844 128.65625 347.0594Q127.390625 346.84064 126.859375 346.6375Q126.34375 346.4344 125.984375 345.95Q125.625 345.46564 125.625 344.84064Q125.625 344.16876 126.015625 343.6844Q126.421875 343.1844 127.078125 342.95Q127.75 342.71564 128.84375 342.71564Q129.98438 342.71564 130.54688 342.8875Q131.10938 343.0594 131.48438 343.45Q131.875 343.84064 132.21875 344.71564L129.54688 344.98126Q129.45312 344.59064 129.29688 344.4969Q129.0625 344.34064 128.71875 344.34064Q128.375 344.34064 128.25 344.45Q128.14062 344.54376 128.14062 344.65314Q128.14062 344.7625 128.26562 344.825Q128.46875 344.91876 129.21875 345.0125Q130.4375 345.15314 131.04688 345.41876Q131.67188 345.66876 132.01562 346.16876Q132.35938 346.65314 132.35938 347.2469Q132.35938 347.825 132.0 348.40314Q131.64062 348.96564 130.89062 349.27814Q130.14062 349.59064 128.90625 349.59064Q127.140625 349.59064 126.359375 349.075Q125.578125 348.54376 125.3125 347.3719ZM140.40625 340.35626L140.40625 342.85626L141.71875 342.85626L141.71875 344.96564L140.40625 344.96564L140.40625 346.98126Q140.40625 347.34064 140.45312 347.41876Q140.53125 347.52814 140.70312 347.52814Q140.9375 347.52814 141.60938 347.3094L141.82812 349.3719Q140.75 349.59064 139.96875 349.59064Q139.03125 349.59064 138.5625 349.34064Q138.09375 349.09064 137.85938 348.575Q137.64062 348.04376 137.64062 346.96564L137.64062 344.96564L136.76562 344.96564L136.76562 342.85626L137.64062 342.85626L137.64062 341.79376L140.40625 340.35626ZM142.53125 340.48126L145.29688 340.48126L145.29688 343.3719Q145.48438 343.16876 145.98438 342.95Q146.5 342.71564 147.20312 342.71564Q148.26562 342.71564 148.875 343.35626Q149.48438 343.9969 149.48438 345.3094L149.48438 349.45L146.71875 349.45L146.71875 345.84064Q146.71875 345.325 146.54688 345.1375Q146.39062 344.95 146.07812 344.95Q145.73438 344.95 145.51562 345.21564Q145.29688 345.48126 145.29688 346.27814L145.29688 349.45L142.53125 349.45L142.53125 340.48126ZM158.1875 346.9344L153.42188 346.9344Q153.46875 347.23126 153.67188 347.46564Q153.96875 347.8094 154.4375 347.8094Q154.73438 347.8094 155.01562 347.65314Q155.17188 347.575 155.4375 347.23126L158.1875 347.4969Q157.46875 348.73126 156.65625 349.16876Q155.85938 349.59064 154.39062 349.59064Q153.09375 349.59064 152.34375 349.21564Q151.60938 348.84064 151.10938 348.04376Q150.60938 347.23126 150.60938 346.16876Q150.60938 344.6219 151.59375 343.66876Q152.59375 342.71564 154.3125 342.71564Q155.70312 342.71564 156.51562 343.1375Q157.34375 343.5594 157.76562 344.3875Q158.1875 345.2 158.1875 346.46564L158.1875 346.9344ZM155.375 345.41876Q155.32812 344.98126 155.07812 344.7469Q154.82812 344.4969 154.40625 344.4969Q153.9375 344.4969 153.65625 344.8719Q153.46875 345.1219 153.4375 345.41876L155.375 345.41876ZM163.4375 340.48126L166.46875 340.48126L166.46875 346.96564L170.60938 346.96564L170.60938 349.45L163.4375 349.45L163.4375 340.48126ZM171.75 340.48126L174.5 340.48126L174.5 342.48126L171.75 342.48126L171.75 340.48126ZM171.75 342.85626L174.5 342.85626L174.5 349.45L171.75 349.45L171.75 342.85626ZM176.04688 340.48126L178.82812 340.48126L178.82812 343.1844Q178.89062 343.1219 179.375 342.91876Q179.875 342.71564 180.45312 342.71564Q181.67188 342.71564 182.46875 343.59064Q183.26562 344.45 183.26562 346.0594Q183.26562 347.10626 182.90625 347.9344Q182.5625 348.7625 181.90625 349.1844Q181.25 349.59064 180.46875 349.59064Q179.79688 349.59064 179.23438 349.3094Q178.79688 349.0594 178.65625 348.8875L178.65625 349.45L176.04688 349.45L176.04688 340.48126ZM178.8125 346.1375Q178.8125 346.8719 179.0625 347.16876Q179.32812 347.46564 179.6875 347.46564Q180.03125 347.46564 180.26562 347.1844Q180.51562 346.8875 180.51562 346.10626Q180.51562 345.4344 180.26562 345.15314Q180.03125 344.8719 179.71875 344.8719Q179.32812 344.8719 179.0625 345.16876Q178.8125 345.46564 178.8125 346.1375ZM191.6875 346.9344L186.92188 346.9344Q186.96875 347.23126 187.17188 347.46564Q187.46875 347.8094 187.9375 347.8094Q188.23438 347.8094 188.51562 347.65314Q188.67188 347.575 188.9375 347.23126L191.6875 347.4969Q190.96875 348.73126 190.15625 349.16876Q189.35938 349.59064 187.89062 349.59064Q186.59375 349.59064 185.84375 349.21564Q185.10938 348.84064 184.60938 348.04376Q184.10938 347.23126 184.10938 346.16876Q184.10938 344.6219 185.09375 343.66876Q186.09375 342.71564 187.8125 342.71564Q189.20312 342.71564 190.01562 343.1375Q190.84375 343.5594 191.26562 344.3875Q191.6875 345.2 191.6875 346.46564L191.6875 346.9344ZM188.875 345.41876Q188.82812 344.98126 188.57812 344.7469Q188.32812 344.4969 187.90625 344.4969Q187.4375 344.4969 187.15625 344.8719Q186.96875 345.1219 186.9375 345.41876L188.875 345.41876ZM192.8125 342.85626L195.42188 342.85626L195.42188 343.23126Q195.39062 343.27814 195.78125 342.9969Q196.17188 342.71564 196.73438 342.71564Q197.3125 342.71564 198.125 343.15314L197.25 345.16876Q196.70312 344.9344 196.48438 344.9344Q196.125 344.9344 195.92188 345.2469Q195.57812 345.7469 195.57812 347.16876L195.57812 349.45L192.8125 349.45L192.8125 342.85626ZM200.64062 345.2625L198.0 344.96564Q198.20312 344.1375 198.46875 343.7625Q198.73438 343.3875 199.21875 343.1219Q199.57812 342.91876 200.17188 342.825Q200.78125 342.71564 201.45312 342.71564Q202.54688 342.71564 203.21875 342.84064Q203.90625 342.96564 204.39062 343.3719Q204.71875 343.66876 204.90625 344.2Q205.10938 344.71564 205.10938 345.1844L205.10938 347.9344Q205.10938 348.35626 205.15625 348.59064Q205.20312 348.8094 205.51562 349.45L202.875 349.45Q202.67188 349.10626 202.625 348.96564Q202.57812 348.8094 202.625 348.77814Q202.35938 349.10626 201.875 349.3094Q201.1875 349.59064 200.32812 349.59064Q199.125 349.59064 198.48438 349.02814Q197.85938 348.45 197.85938 347.6219Q197.85938 346.825 198.32812 346.325Q198.79688 345.825 199.96875 345.575Q201.29688 345.3094 201.6875 345.21564Q202.07812 345.10626 202.40625 344.98126Q202.40625 344.7469 202.26562 344.6219Q202.14062 344.4969 201.76562 344.4969Q201.23438 344.4969 201.0 344.65314Q200.8125 344.77814 200.64062 345.2625ZM202.40625 346.575Q202.14062 346.65314 201.60938 346.8094Q200.9375 346.98126 200.76562 347.1375Q200.625 347.27814 200.625 347.4344Q200.625 347.6375 200.76562 347.7625Q200.92188 347.8875 201.21875 347.8875Q201.5625 347.8875 201.85938 347.71564Q202.15625 347.54376 202.28125 347.325Q202.40625 347.09064 202.40625 346.6844L202.40625 346.575ZM206.60938 340.48126L209.375 340.48126L209.375 349.45L206.60938 349.45L206.60938 340.48126Z" fill-rule="nonzero"/><path fill="#a4c2f4" d="M226.1875 340.45C226.1875 339.8977 226.63521 339.45 227.1875 339.45L237.1875 339.45C237.73979 339.45 238.1875 339.8977 238.1875 340.45L238.1875 350.45C238.1875 351.0023 237.73979 351.45 237.1875 351.45L227.1875 351.45C226.63521 351.45 226.1875 351.0023 226.1875 350.45Z" fill-rule="nonzero"/><path fill="#ffffff" d="M252.82812 345.5125L255.51562 346.325Q255.23438 347.5125 254.70312 348.21564Q254.1875 348.90314 253.39062 349.2625Q252.60938 349.60626 251.40625 349.60626Q249.96875 349.60626 249.03125 349.1844Q248.10938 348.7469 247.42188 347.66876Q246.75 346.59064 246.75 344.95Q246.75 342.73126 247.9375 341.54376Q249.14062 340.34064 251.28125 340.34064Q252.96875 340.34064 253.9375 341.02814Q254.92188 341.71564 255.46875 343.34064L252.75 343.9344Q252.57812 343.41876 252.45312 343.2469Q252.26562 342.98126 251.98438 342.84064Q251.70312 342.7 251.34375 342.7Q250.54688 342.7 250.125 343.34064Q249.79688 343.84064 249.79688 344.9344Q249.79688 346.29376 250.17188 346.7625Q250.5625 347.23126 251.25 347.23126Q251.9375 347.23126 252.28125 346.85626Q252.625 346.46564 252.82812 345.5125ZM258.76562 345.2625L256.125 344.96564Q256.32812 344.1375 256.59375 343.7625Q256.85938 343.3875 257.34375 343.1219Q257.70312 342.91876 258.29688 342.825Q258.90625 342.71564 259.57812 342.71564Q260.67188 342.71564 261.34375 342.84064Q262.03125 342.96564 262.51562 343.3719Q262.84375 343.66876 263.03125 344.2Q263.23438 344.71564 263.23438 345.1844L263.23438 347.9344Q263.23438 348.35626 263.28125 348.59064Q263.32812 348.8094 263.64062 349.45L261.0 349.45Q260.79688 349.10626 260.75 348.96564Q260.70312 348.8094 260.75 348.77814Q260.48438 349.10626 260.0 349.3094Q259.3125 349.59064 258.45312 349.59064Q257.25 349.59064 256.60938 349.02814Q255.98438 348.45 255.98438 347.6219Q255.98438 346.825 256.45312 346.325Q256.92188 345.825 258.09375 345.575Q259.42188 345.3094 259.8125 345.21564Q260.20312 345.10626 260.53125 344.98126Q260.53125 344.7469 260.39062 344.6219Q260.26562 344.4969 259.89062 344.4969Q259.35938 344.4969 259.125 344.65314Q258.9375 344.77814 258.76562 345.2625ZM260.53125 346.575Q260.26562 346.65314 259.73438 346.8094Q259.0625 346.98126 258.89062 347.1375Q258.75 347.27814 258.75 347.4344Q258.75 347.6375 258.89062 347.7625Q259.04688 347.8875 259.34375 347.8875Q259.6875 347.8875 259.98438 347.71564Q260.28125 347.54376 260.40625 347.325Q260.53125 347.09064 260.53125 346.6844L260.53125 346.575ZM264.6875 342.85626L267.29688 342.85626L267.29688 343.23126Q267.26562 343.27814 267.65625 342.9969Q268.04688 342.71564 268.60938 342.71564Q269.1875 342.71564 270.0 343.15314L269.125 345.16876Q268.57812 344.9344 268.35938 344.9344Q268.0 344.9344 267.79688 345.2469Q267.45312 345.7469 267.45312 347.16876L267.45312 349.45L264.6875 349.45L264.6875 342.85626ZM269.73438 346.16876Q269.73438 344.66876 270.75 343.7Q271.76562 342.71564 273.48438 342.71564Q275.4375 342.71564 276.45312 343.85626Q277.26562 344.77814 277.26562 346.1375Q277.26562 347.65314 276.25 348.6219Q275.25 349.59064 273.48438 349.59064Q271.92188 349.59064 270.9375 348.77814Q269.73438 347.79376 269.73438 346.16876ZM272.5 346.16876Q272.5 346.9344 272.78125 347.27814Q273.07812 347.60626 273.5 347.60626Q273.92188 347.60626 274.20312 347.27814Q274.5 346.95 274.5 346.1375Q274.5 345.3875 274.20312 345.0594Q273.92188 344.73126 273.51562 344.73126Q273.07812 344.73126 272.78125 345.075Q272.5 345.40314 272.5 346.16876ZM278.48438 340.48126L281.25 340.48126L281.25 349.45L278.48438 349.45L278.48438 340.48126ZM282.875 340.48126L285.625 340.48126L285.625 342.48126L282.875 342.48126L282.875 340.48126ZM282.875 342.85626L285.625 342.85626L285.625 349.45L282.875 349.45L282.875 342.85626ZM287.15625 342.85626L289.75 342.85626L289.75 343.52814Q289.9375 343.29376 290.48438 343.0125Q291.03125 342.71564 291.8125 342.71564Q292.89062 342.71564 293.5 343.35626Q294.10938 343.9969 294.10938 345.3094L294.10938 349.45L291.34375 349.45L291.34375 345.84064Q291.34375 345.325 291.17188 345.1375Q291.01562 344.95 290.70312 344.95Q290.35938 344.95 290.14062 345.21564Q289.92188 345.48126 289.92188 346.27814L289.92188 349.45L287.15625 349.45L287.15625 342.85626ZM302.8125 346.9344L298.04688 346.9344Q298.09375 347.23126 298.29688 347.46564Q298.59375 347.8094 299.0625 347.8094Q299.35938 347.8094 299.64062 347.65314Q299.79688 347.575 300.0625 347.23126L302.8125 347.4969Q302.09375 348.73126 301.28125 349.16876Q300.48438 349.59064 299.01562 349.59064Q297.71875 349.59064 296.96875 349.21564Q296.23438 348.84064 295.73438 348.04376Q295.23438 347.23126 295.23438 346.16876Q295.23438 344.6219 296.21875 343.66876Q297.21875 342.71564 298.9375 342.71564Q300.32812 342.71564 301.14062 343.1375Q301.96875 343.5594 302.39062 344.3875Q302.8125 345.2 302.8125 346.46564L302.8125 346.9344ZM300.0 345.41876Q299.95312 344.98126 299.70312 344.7469Q299.45312 344.4969 299.03125 344.4969Q298.5625 344.4969 298.28125 344.8719Q298.09375 345.1219 298.0625 345.41876L300.0 345.41876ZM311.15625 340.35626L311.15625 342.85626L312.46875 342.85626L312.46875 344.96564L311.15625 344.96564L311.15625 346.98126Q311.15625 347.34064 311.20312 347.41876Q311.28125 347.52814 311.45312 347.52814Q311.6875 347.52814 312.35938 347.3094L312.57812 349.3719Q311.5 349.59064 310.71875 349.59064Q309.78125 349.59064 309.3125 349.34064Q308.84375 349.09064 308.60938 348.575Q308.39062 348.04376 308.39062 346.96564L308.39062 344.96564L307.51562 344.96564L307.51562 342.85626L308.39062 342.85626L308.39062 341.79376L311.15625 340.35626ZM313.28125 340.48126L316.04688 340.48126L316.04688 343.3719Q316.23438 343.16876 316.73438 342.95Q317.25 342.71564 317.95312 342.71564Q319.01562 342.71564 319.625 343.35626Q320.23438 343.9969 320.23438 345.3094L320.23438 349.45L317.46875 349.45L317.46875 345.84064Q317.46875 345.325 317.29688 345.1375Q317.14062 344.95 316.82812 344.95Q316.48438 344.95 316.26562 345.21564Q316.04688 345.48126 316.04688 346.27814L316.04688 349.45L313.28125 349.45L313.28125 340.48126ZM328.9375 346.9344L324.17188 346.9344Q324.21875 347.23126 324.42188 347.46564Q324.71875 347.8094 325.1875 347.8094Q325.48438 347.8094 325.76562 347.65314Q325.92188 347.575 326.1875 347.23126L328.9375 347.4969Q328.21875 348.73126 327.40625 349.16876Q326.60938 349.59064 325.14062 349.59064Q323.84375 349.59064 323.09375 349.21564Q322.35938 348.84064 321.85938 348.04376Q321.35938 347.23126 321.35938 346.16876Q321.35938 344.6219 322.34375 343.66876Q323.34375 342.71564 325.0625 342.71564Q326.45312 342.71564 327.26562 343.1375Q328.09375 343.5594 328.51562 344.3875Q328.9375 345.2 328.9375 346.46564L328.9375 346.9344ZM326.125 345.41876Q326.07812 344.98126 325.82812 344.7469Q325.57812 344.4969 325.15625 344.4969Q324.6875 344.4969 324.40625 344.8719Q324.21875 345.1219 324.1875 345.41876L326.125 345.41876ZM339.95312 345.5125L342.64062 346.325Q342.35938 347.5125 341.82812 348.21564Q341.3125 348.90314 340.51562 349.2625Q339.73438 349.60626 338.53125 349.60626Q337.09375 349.60626 336.15625 349.1844Q335.23438 348.7469 334.54688 347.66876Q333.875 346.59064 333.875 344.95Q333.875 342.73126 335.0625 341.54376Q336.26562 340.34064 338.40625 340.34064Q340.09375 340.34064 341.0625 341.02814Q342.04688 341.71564 342.59375 343.34064L339.875 343.9344Q339.70312 343.41876 339.57812 343.2469Q339.39062 342.98126 339.10938 342.84064Q338.82812 342.7 338.46875 342.7Q337.67188 342.7 337.25 343.34064Q336.92188 343.84064 336.92188 344.9344Q336.92188 346.29376 337.29688 346.7625Q337.6875 347.23126 338.375 347.23126Q339.0625 347.23126 339.40625 346.85626Q339.75 346.46564 339.95312 345.5125ZM343.10938 346.16876Q343.10938 344.66876 344.125 343.7Q345.14062 342.71564 346.85938 342.71564Q348.8125 342.71564 349.82812 343.85626Q350.64062 344.77814 350.64062 346.1375Q350.64062 347.65314 349.625 348.6219Q348.625 349.59064 346.85938 349.59064Q345.29688 349.59064 344.3125 348.77814Q343.10938 347.79376 343.10938 346.16876ZM345.875 346.16876Q345.875 346.9344 346.15625 347.27814Q346.45312 347.60626 346.875 347.60626Q347.29688 347.60626 347.57812 347.27814Q347.875 346.95 347.875 346.1375Q347.875 345.3875 347.57812 345.0594Q347.29688 344.73126 346.89062 344.73126Q346.45312 344.73126 346.15625 345.075Q345.875 345.40314 345.875 346.16876ZM351.78125 342.85626L354.375 342.85626L354.375 343.52814Q354.5625 343.29376 355.10938 343.0125Q355.65625 342.71564 356.4375 342.71564Q357.51562 342.71564 358.125 343.35626Q358.73438 343.9969 358.73438 345.3094L358.73438 349.45L355.96875 349.45L355.96875 345.84064Q355.96875 345.325 355.79688 345.1375Q355.64062 344.95 355.32812 344.95Q354.98438 344.95 354.76562 345.21564Q354.54688 345.48126 354.54688 346.27814L354.54688 349.45L351.78125 349.45L351.78125 342.85626ZM359.6875 347.3719L362.42188 347.10626Q362.59375 347.60626 362.8125 347.7625Q363.03125 347.91876 363.40625 347.91876Q363.82812 347.91876 364.04688 347.7469Q364.17188 347.65314 364.17188 347.5125Q364.17188 347.3719 363.98438 347.29376Q363.82812 347.1844 363.03125 347.0594Q361.76562 346.84064 361.23438 346.6375Q360.71875 346.4344 360.35938 345.95Q360.0 345.46564 360.0 344.84064Q360.0 344.16876 360.39062 343.6844Q360.79688 343.1844 361.45312 342.95Q362.125 342.71564 363.21875 342.71564Q364.35938 342.71564 364.92188 342.8875Q365.48438 343.0594 365.85938 343.45Q366.25 343.84064 366.59375 344.71564L363.92188 344.98126Q363.82812 344.59064 363.67188 344.4969Q363.4375 344.34064 363.09375 344.34064Q362.75 344.34064 362.625 344.45Q362.51562 344.54376 362.51562 344.65314Q362.51562 344.7625 362.64062 344.825Q362.84375 344.91876 363.59375 345.0125Q364.8125 345.15314 365.42188 345.41876Q366.04688 345.66876 366.39062 346.16876Q366.73438 346.65314 366.73438 347.2469Q366.73438 347.825 366.375 348.40314Q366.01562 348.96564 365.26562 349.27814Q364.51562 349.59064 363.28125 349.59064Q361.51562 349.59064 360.73438 349.075Q359.95312 348.54376 359.6875 347.3719ZM374.8125 346.9344L370.04688 346.9344Q370.09375 347.23126 370.29688 347.46564Q370.59375 347.8094 371.0625 347.8094Q371.35938 347.8094 371.64062 347.65314Q371.79688 347.575 372.0625 347.23126L374.8125 347.4969Q374.09375 348.73126 373.28125 349.16876Q372.48438 349.59064 371.01562 349.59064Q369.71875 349.59064 368.96875 349.21564Q368.23438 348.84064 367.73438 348.04376Q367.23438 347.23126 367.23438 346.16876Q367.23438 344.6219 368.21875 343.66876Q369.21875 342.71564 370.9375 342.71564Q372.32812 342.71564 373.14062 343.1375Q373.96875 343.5594 374.39062 344.3875Q374.8125 345.2 374.8125 346.46564L374.8125 346.9344ZM372.0 345.41876Q371.95312 344.98126 371.70312 344.7469Q371.45312 344.4969 371.03125 344.4969Q370.5625 344.4969 370.28125 344.8719Q370.09375 345.1219 370.0625 345.41876L372.0 345.41876ZM375.9375 342.85626L378.54688 342.85626L378.54688 343.23126Q378.51562 343.27814 378.90625 342.9969Q379.29688 342.71564 379.85938 342.71564Q380.4375 342.71564 381.25 343.15314L380.375 345.16876Q379.82812 344.9344 379.60938 344.9344Q379.25 344.9344 379.04688 345.2469Q378.70312 345.7469 378.70312 347.16876L378.70312 349.45L375.9375 349.45L375.9375 342.85626ZM380.48438 342.85626L383.39062 342.85626L384.45312 346.35626L385.5625 342.85626L388.39062 342.85626L385.59375 349.45L383.23438 349.45L380.48438 342.85626ZM391.14062 345.2625L388.5 344.96564Q388.70312 344.1375 388.96875 343.7625Q389.23438 343.3875 389.71875 343.1219Q390.07812 342.91876 390.67188 342.825Q391.28125 342.71564 391.95312 342.71564Q393.04688 342.71564 393.71875 342.84064Q394.40625 342.96564 394.89062 343.3719Q395.21875 343.66876 395.40625 344.2Q395.60938 344.71564 395.60938 345.1844L395.60938 347.9344Q395.60938 348.35626 395.65625 348.59064Q395.70312 348.8094 396.01562 349.45L393.375 349.45Q393.17188 349.10626 393.125 348.96564Q393.07812 348.8094 393.125 348.77814Q392.85938 349.10626 392.375 349.3094Q391.6875 349.59064 390.82812 349.59064Q389.625 349.59064 388.98438 349.02814Q388.35938 348.45 388.35938 347.6219Q388.35938 346.825 388.82812 346.325Q389.29688 345.825 390.46875 345.575Q391.79688 345.3094 392.1875 345.21564Q392.57812 345.10626 392.90625 344.98126Q392.90625 344.7469 392.76562 344.6219Q392.64062 344.4969 392.26562 344.4969Q391.73438 344.4969 391.5 344.65314Q391.3125 344.77814 391.14062 345.2625ZM392.90625 346.575Q392.64062 346.65314 392.10938 346.8094Q391.4375 346.98126 391.26562 347.1375Q391.125 347.27814 391.125 347.4344Q391.125 347.6375 391.26562 347.7625Q391.42188 347.8875 391.71875 347.8875Q392.0625 347.8875 392.35938 347.71564Q392.65625 347.54376 392.78125 347.325Q392.90625 347.09064 392.90625 346.6844L392.90625 346.575ZM400.28125 340.35626L400.28125 342.85626L401.59375 342.85626L401.59375 344.96564L400.28125 344.96564L400.28125 346.98126Q400.28125 347.34064 400.32812 347.41876Q400.40625 347.52814 400.57812 347.52814Q400.8125 347.52814 401.48438 347.3094L401.70312 349.3719Q400.625 349.59064 399.84375 349.59064Q398.90625 349.59064 398.4375 349.34064Q397.96875 349.09064 397.73438 348.575Q397.51562 348.04376 397.51562 346.96564L397.51562 344.96564L396.64062 344.96564L396.64062 342.85626L397.51562 342.85626L397.51562 341.79376L400.28125 340.35626ZM402.5 340.48126L405.25 340.48126L405.25 342.48126L402.5 342.48126L402.5 340.48126ZM402.5 342.85626L405.25 342.85626L405.25 349.45L402.5 349.45L402.5 342.85626ZM405.98438 342.85626L408.89062 342.85626L409.95312 346.35626L411.0625 342.85626L413.89062 342.85626L411.09375 349.45L408.73438 349.45L405.98438 342.85626ZM421.4375 346.9344L416.67188 346.9344Q416.71875 347.23126 416.92188 347.46564Q417.21875 347.8094 417.6875 347.8094Q417.98438 347.8094 418.26562 347.65314Q418.42188 347.575 418.6875 347.23126L421.4375 347.4969Q420.71875 348.73126 419.90625 349.16876Q419.10938 349.59064 417.64062 349.59064Q416.34375 349.59064 415.59375 349.21564Q414.85938 348.84064 414.35938 348.04376Q413.85938 347.23126 413.85938 346.16876Q413.85938 344.6219 414.84375 343.66876Q415.84375 342.71564 417.5625 342.71564Q418.95312 342.71564 419.76562 343.1375Q420.59375 343.5594 421.01562 344.3875Q421.4375 345.2 421.4375 346.46564L421.4375 346.9344ZM418.625 345.41876Q418.57812 344.98126 418.32812 344.7469Q418.07812 344.4969 417.65625 344.4969Q417.1875 344.4969 416.90625 344.8719Q416.71875 345.1219 416.6875 345.41876L418.625 345.41876Z" fill-rule="nonzero"/><path fill="#ff0000" d="M437.8125 340.45C437.8125 339.8977 438.26022 339.45 438.8125 339.45L448.8125 339.45C449.36478 339.45 449.8125 339.8977 449.8125 340.45L449.8125 350.45C449.8125 351.0023 449.36478 351.45 448.8125 351.45L438.8125 351.45C438.26022 351.45 437.8125 351.0023 437.8125 350.45Z" fill-rule="nonzero"/><path fill="#ffffff" d="M458.21875 346.2469L461.09375 346.0594Q461.20312 346.79376 461.42188 347.09064Q461.78125 347.52814 462.45312 347.52814Q462.95312 347.52814 463.1875 347.325Q463.4375 347.10626 463.4375 346.84064Q463.4375 346.575 463.21875 346.3719Q462.96875 346.15314 461.9375 345.9344Q460.14062 345.5125 459.35938 344.84064Q458.54688 344.1219 458.54688 343.04376Q458.54688 342.3094 458.95312 341.6844Q459.375 341.04376 460.1875 340.7Q461.01562 340.34064 462.39062 340.34064Q464.09375 340.34064 465.01562 340.9969Q465.9375 341.6375 466.125 343.2625L463.26562 343.4344Q463.15625 342.7469 462.89062 342.52814Q462.625 342.3094 462.125 342.3094Q461.71875 342.3094 461.54688 342.46564Q461.375 342.60626 461.375 342.79376Q461.375 342.90314 461.51562 343.02814Q461.67188 343.16876 462.3125 343.29376Q464.07812 343.6844 464.875 344.09064Q465.67188 344.48126 466.03125 345.10626Q466.39062 345.71564 466.39062 346.46564Q466.39062 347.35626 465.90625 348.10626Q465.42188 348.84064 464.5625 349.21564Q463.70312 349.59064 462.40625 349.59064Q460.14062 349.59064 459.23438 348.7Q458.34375 347.79376 458.21875 346.2469ZM470.39062 345.2625L467.75 344.96564Q467.95312 344.1375 468.21875 343.7625Q468.48438 343.3875 468.96875 343.1219Q469.32812 342.91876 469.92188 342.825Q470.53125 342.71564 471.20312 342.71564Q472.29688 342.71564 472.96875 342.84064Q473.65625 342.96564 474.14062 343.3719Q474.46875 343.66876 474.65625 344.2Q474.85938 344.71564 474.85938 345.1844L474.85938 347.9344Q474.85938 348.35626 474.90625 348.59064Q474.95312 348.8094 475.26562 349.45L472.625 349.45Q472.42188 349.10626 472.375 348.96564Q472.32812 348.8094 472.375 348.77814Q472.10938 349.10626 471.625 349.3094Q470.9375 349.59064 470.07812 349.59064Q468.875 349.59064 468.23438 349.02814Q467.60938 348.45 467.60938 347.6219Q467.60938 346.825 468.07812 346.325Q468.54688 345.825 469.71875 345.575Q471.04688 345.3094 471.4375 345.21564Q471.82812 345.10626 472.15625 344.98126Q472.15625 344.7469 472.01562 344.6219Q471.89062 344.4969 471.51562 344.4969Q470.98438 344.4969 470.75 344.65314Q470.5625 344.77814 470.39062 345.2625ZM472.15625 346.575Q471.89062 346.65314 471.35938 346.8094Q470.6875 346.98126 470.51562 347.1375Q470.375 347.27814 470.375 347.4344Q470.375 347.6375 470.51562 347.7625Q470.67188 347.8875 470.96875 347.8875Q471.3125 347.8875 471.60938 347.71564Q471.90625 347.54376 472.03125 347.325Q472.15625 347.09064 472.15625 346.6844L472.15625 346.575ZM476.29688 342.85626L478.90625 342.85626L478.90625 343.4344Q479.07812 343.21564 479.59375 342.96564Q480.125 342.71564 480.85938 342.71564Q481.65625 342.71564 482.14062 342.9969Q482.625 343.27814 482.79688 343.6219Q483.20312 343.1844 483.6875 342.95Q484.1875 342.71564 484.92188 342.71564Q486.0 342.71564 486.60938 343.3719Q487.23438 344.0125 487.23438 345.35626L487.23438 349.45L484.46875 349.45L484.46875 345.71564Q484.46875 345.35626 484.34375 345.2Q484.15625 344.95 483.89062 344.95Q483.5625 344.95 483.34375 345.2Q483.14062 345.4344 483.14062 346.04376L483.14062 349.45L480.375 349.45L480.375 345.84064Q480.375 345.45 480.34375 345.34064Q480.28125 345.15314 480.14062 345.0594Q480.0 344.95 479.8125 344.95Q479.48438 344.95 479.26562 345.2Q479.0625 345.4344 479.0625 346.09064L479.0625 349.45L476.29688 349.45L476.29688 342.85626ZM495.90625 340.35626L495.90625 342.85626L497.21875 342.85626L497.21875 344.96564L495.90625 344.96564L495.90625 346.98126Q495.90625 347.34064 495.95312 347.41876Q496.03125 347.52814 496.20312 347.52814Q496.4375 347.52814 497.10938 347.3094L497.32812 349.3719Q496.25 349.59064 495.46875 349.59064Q494.53125 349.59064 494.0625 349.34064Q493.59375 349.09064 493.35938 348.575Q493.14062 348.04376 493.14062 346.96564L493.14062 344.96564L492.26562 344.96564L492.26562 342.85626L493.14062 342.85626L493.14062 341.79376L495.90625 340.35626ZM498.03125 340.48126L500.79688 340.48126L500.79688 343.3719Q500.98438 343.16876 501.48438 342.95Q502.0 342.71564 502.70312 342.71564Q503.76562 342.71564 504.375 343.35626Q504.98438 343.9969 504.98438 345.3094L504.98438 349.45L502.21875 349.45L502.21875 345.84064Q502.21875 345.325 502.04688 345.1375Q501.89062 344.95 501.57812 344.95Q501.23438 344.95 501.01562 345.21564Q500.79688 345.48126 500.79688 346.27814L500.79688 349.45L498.03125 349.45L498.03125 340.48126ZM513.6875 346.9344L508.92188 346.9344Q508.96875 347.23126 509.17188 347.46564Q509.46875 347.8094 509.9375 347.8094Q510.23438 347.8094 510.51562 347.65314Q510.67188 347.575 510.9375 347.23126L513.6875 347.4969Q512.96875 348.73126 512.15625 349.16876Q511.35938 349.59064 509.89062 349.59064Q508.59375 349.59064 507.84375 349.21564Q507.10938 348.84064 506.60938 348.04376Q506.10938 347.23126 506.10938 346.16876Q506.10938 344.6219 507.09375 343.66876Q508.09375 342.71564 509.8125 342.71564Q511.20312 342.71564 512.0156 343.1375Q512.84375 343.5594 513.2656 344.3875Q513.6875 345.2 513.6875 346.46564L513.6875 346.9344ZM510.875 345.41876Q510.82812 344.98126 510.57812 344.7469Q510.32812 344.4969 509.90625 344.4969Q509.4375 344.4969 509.15625 344.8719Q508.96875 345.1219 508.9375 345.41876L510.875 345.41876ZM518.46875 346.2469L521.34375 346.0594Q521.4531 346.79376 521.6719 347.09064Q522.03125 347.52814 522.7031 347.52814Q523.2031 347.52814 523.4375 347.325Q523.6875 347.10626 523.6875 346.84064Q523.6875 346.575 523.46875 346.3719Q523.21875 346.15314 522.1875 345.9344Q520.3906 345.5125 519.6094 344.84064Q518.7969 344.1219 518.7969 343.04376Q518.7969 342.3094 519.2031 341.6844Q519.625 341.04376 520.4375 340.7Q521.2656 340.34064 522.6406 340.34064Q524.34375 340.34064 525.2656 340.9969Q526.1875 341.6375 526.375 343.2625L523.5156 343.4344Q523.40625 342.7469 523.1406 342.52814Q522.875 342.3094 522.375 342.3094Q521.96875 342.3094 521.7969 342.46564Q521.625 342.60626 521.625 342.79376Q521.625 342.90314 521.7656 343.02814Q521.9219 343.16876 522.5625 343.29376Q524.3281 343.6844 525.125 344.09064Q525.9219 344.48126 526.28125 345.10626Q526.6406 345.71564 526.6406 346.46564Q526.6406 347.35626 526.15625 348.10626Q525.6719 348.84064 524.8125 349.21564Q523.9531 349.59064 522.65625 349.59064Q520.3906 349.59064 519.4844 348.7Q518.59375 347.79376 518.46875 346.2469ZM527.8594 346.16876Q527.8594 344.66876 528.875 343.7Q529.8906 342.71564 531.6094 342.71564Q533.5625 342.71564 534.5781 343.85626Q535.3906 344.77814 535.3906 346.1375Q535.3906 347.65314 534.375 348.6219Q533.375 349.59064 531.6094 349.59064Q530.0469 349.59064 529.0625 348.77814Q527.8594 347.79376 527.8594 346.16876ZM530.625 346.16876Q530.625 346.9344 530.90625 347.27814Q531.2031 347.60626 531.625 347.60626Q532.0469 347.60626 532.3281 347.27814Q532.625 346.95 532.625 346.1375Q532.625 345.3875 532.3281 345.0594Q532.0469 344.73126 531.6406 344.73126Q531.2031 344.73126 530.90625 345.075Q530.625 345.40314 530.625 346.16876ZM541.2344 346.6219L543.8594 346.9344Q543.6094 347.8875 543.15625 348.45Q542.7031 348.9969 541.9844 349.29376Q541.28125 349.59064 540.2344 349.59064Q539.2031 349.59064 538.5156 349.40314Q537.8281 349.21564 537.3125 348.77814Q536.8125 348.325 536.53125 347.7469Q536.25 347.15314 536.25 346.1844Q536.25 345.16876 536.59375 344.4969Q536.84375 343.9969 537.28125 343.60626Q537.7344 343.21564 538.2031 343.0125Q538.9375 342.71564 540.0625 342.71564Q541.6406 342.71564 542.4844 343.29376Q543.34375 343.85626 543.7344 345.2L541.125 345.54376Q541.0 345.04376 540.7656 344.8875Q540.53125 344.71564 540.125 344.71564Q539.6406 344.71564 539.3125 345.09064Q539.0 345.45 539.0 346.2469Q539.0 346.9344 539.2969 347.27814Q539.6094 347.6219 540.09375 347.6219Q540.5 347.6219 540.7656 347.41876Q541.0469 347.21564 541.2344 346.6219ZM545.0 340.48126L547.75 340.48126L547.75 342.48126L545.0 342.48126L545.0 340.48126ZM545.0 342.85626L547.75 342.85626L547.75 349.45L545.0 349.45L545.0 342.85626ZM551.7656 345.2625L549.125 344.96564Q549.3281 344.1375 549.59375 343.7625Q549.8594 343.3875 550.34375 343.1219Q550.7031 342.91876 551.2969 342.825Q551.90625 342.71564 552.5781 342.71564Q553.6719 342.71564 554.34375 342.84064Q555.03125 342.96564 555.5156 343.3719Q555.84375 343.66876 556.03125 344.2Q556.2344 344.71564 556.2344 345.1844L556.2344 347.9344Q556.2344 348.35626 556.28125 348.59064Q556.3281 348.8094 556.6406 349.45L554.0 349.45Q553.7969 349.10626 553.75 348.96564Q553.7031 348.8094 553.75 348.77814Q553.4844 349.10626 553.0 349.3094Q552.3125 349.59064 551.4531 349.59064Q550.25 349.59064 549.6094 349.02814Q548.9844 348.45 548.9844 347.6219Q548.9844 346.825 549.4531 346.325Q549.9219 345.825 551.09375 345.575Q552.4219 345.3094 552.8125 345.21564Q553.2031 345.10626 553.53125 344.98126Q553.53125 344.7469 553.3906 344.6219Q553.2656 344.4969 552.8906 344.4969Q552.3594 344.4969 552.125 344.65314Q551.9375 344.77814 551.7656 345.2625ZM553.53125 346.575Q553.2656 346.65314 552.7344 346.8094Q552.0625 346.98126 551.8906 347.1375Q551.75 347.27814 551.75 347.4344Q551.75 347.6375 551.8906 347.7625Q552.0469 347.8875 552.34375 347.8875Q552.6875 347.8875 552.9844 347.71564Q553.28125 347.54376 553.40625 347.325Q553.53125 347.09064 553.53125 346.6844L553.53125 346.575ZM557.7344 340.48126L560.5 340.48126L560.5 349.45L557.7344 349.45L557.7344 340.48126ZM562.125 340.48126L564.875 340.48126L564.875 342.48126L562.125 342.48126L562.125 340.48126ZM562.125 342.85626L564.875 342.85626L564.875 349.45L562.125 349.45L562.125 342.85626ZM565.9375 347.3719L568.6719 347.10626Q568.84375 347.60626 569.0625 347.7625Q569.28125 347.91876 569.65625 347.91876Q570.0781 347.91876 570.2969 347.7469Q570.4219 347.65314 570.4219 347.5125Q570.4219 347.3719 570.2344 347.29376Q570.0781 347.1844 569.28125 347.0594Q568.0156 346.84064 567.4844 346.6375Q566.96875 346.4344 566.6094 345.95Q566.25 345.46564 566.25 344.84064Q566.25 344.16876 566.6406 343.6844Q567.0469 343.1844 567.7031 342.95Q568.375 342.71564 569.46875 342.71564Q570.6094 342.71564 571.1719 342.8875Q571.7344 343.0594 572.1094 343.45Q572.5 343.84064 572.84375 344.71564L570.1719 344.98126Q570.0781 344.59064 569.9219 344.4969Q569.6875 344.34064 569.34375 344.34064Q569.0 344.34064 568.875 344.45Q568.7656 344.54376 568.7656 344.65314Q568.7656 344.7625 568.8906 344.825Q569.09375 344.91876 569.84375 345.0125Q571.0625 345.15314 571.6719 345.41876Q572.2969 345.66876 572.6406 346.16876Q572.9844 346.65314 572.9844 347.2469Q572.9844 347.825 572.625 348.40314Q572.2656 348.96564 571.5156 349.27814Q570.7656 349.59064 569.53125 349.59064Q567.7656 349.59064 566.9844 349.075Q566.2031 348.54376 565.9375 347.3719ZM577.03125 340.35626L577.03125 342.85626L578.34375 342.85626L578.34375 344.96564L577.03125 344.96564L577.03125 346.98126Q577.03125 347.34064 577.0781 347.41876Q577.15625 347.52814 577.3281 347.52814Q577.5625 347.52814 578.2344 347.3094L578.4531 349.3719Q577.375 349.59064 576.59375 349.59064Q575.65625 349.59064 575.1875 349.34064Q574.71875 349.09064 574.4844 348.575Q574.2656 348.04376 574.2656 346.96564L574.2656 344.96564L573.3906 344.96564L573.3906 342.85626L574.2656 342.85626L574.2656 341.79376L577.03125 340.35626Z" fill-rule="nonzero"/></svg>