<svg version="1.1" viewBox="0.0 0.0 755.0 371.0" fill="none" stroke="none" stroke-linecap="square" stroke-miterlimit="10" width="755" height="371" xmlns:xlink="http://www.w3.org/1999/xlink" xmlns="http://www.w3.org/2000/svg"><path fill="#ffffff" fill-opacity="0.0" d="M0 0L755.0 0L755.0 371.0L0 371.0L0 0Z" fill-rule="nonzero"/><clipPath id="id_0"><path d="M52.55 25.55L736.45 25.55L736.45 306.08334L52.55 306.08334L52.55 25.55Z" clip-rule="nonzero"/></clipPath><path stroke="#000000" stroke-width="2.0" stroke-linecap="butt" stroke-opacity="0.0" clip-path="url(#id_0)" d="M312.0 306.0L232.0 306.0L232.0 28.0C232.0 26.89543 232.89543 26.0 234.0 26.0L310.0 26.0C311.10458 26.0 312.0 26.89543 312.0 28.0Z" fill-rule="nonzero"/><path fill="#f1c232" clip-path="url(#id_0)" d="M312.0 306.0L232.0 306.0L232.0 28.0C232.0 26.89543 232.89543 26.0 234.0 26.0L310.0 26.0C311.10458 26.0 312.0 26.89543 312.0 28.0Z" fill-rule="nonzero"/><path stroke="#000000" stroke-width="2.0" stroke-linecap="butt" stroke-opacity="0.0" clip-path="url(#id_0)" d="M394.0 306.0L314.0 306.0L314.0 67.0C314.0 65.89543 314.89542 65.0 316.0 65.0L392.0 65.0C393.10458 65.0 394.0 65.89543 394.0 67.0Z" fill-rule="nonzero"/><path fill="#a4c2f4" clip-path="url(#id_0)" d="M394.0 306.0L314.0 306.0L314.0 67.0C314.0 65.89543 314.89542 65.0 316.0 65.0L392.0 65.0C393.10458 65.0 394.0 65.89543 394.0 67.0Z" fill-rule="nonzero"/><path stroke="#000000" stroke-width="2.0" stroke-linecap="butt" stroke-opacity="0.0" clip-path="url(#id_0)" d="M476.0 306.0L396.0 306.0L396.0 256.0C396.0 254.89543 396.89542 254.0 398.0 254.0L474.0 254.0C475.10458 254.0 476.0 254.89543 476.0 256.0Z" fill-rule="nonzero"/><path fill="#ff0000" clip-path="url(#id_0)" d="M476.0 306.0L396.0 306.0L396.0 256.0C396.0 254.89543 396.89542 254.0 398.0 254.0L474.0 254.0C475.10458 254.0 476.0 254.89543 476.0 256.0Z" fill-rule="nonzero"/><path stroke="#000000" stroke-width="2.0" stroke-linecap="butt" stroke-opacity="0.0" clip-path="url(#id_0)" d="M558.0 306.0L478.0 306.0L478.0 230.0C478.0 228.89543 478.89542 228.0 480.0 228.0L556.0 228.0C557.10455 228.0 558.0 228.89543 558.0 230.0Z" fill-rule="nonzero"/><path fill="#34a853" clip-path="url(#id_0)" d="M558.0 306.0L478.0 306.0L478.0 230.0C478.0 228.89543 478.89542 228.0 480.0 228.0L556.0 228.0C557.10455 228.0 558.0 228.89543 558.0 230.0Z" fill-rule="nonzero"/><path fill="#000000" d="M27.05 305.75522Q27.05 303.3021 27.925 302.33334Q28.8 301.34897 30.6125 301.34897Q31.471874 301.34897 32.034374 301.56772Q32.596874 301.77084 32.940624 302.1146Q33.3 302.45834 33.503124 302.83334Q33.70625 303.20834 33.815624 303.72397Q34.065624 304.6771 34.065624 305.72397Q34.065624 308.06772 33.26875 309.14584Q32.4875 310.22397 30.55 310.22397Q29.45625 310.22397 28.784374 309.88022Q28.128124 309.53647 27.70625 308.8646Q27.39375 308.39584 27.221874 307.58334Q27.05 306.75522 27.05 305.75522ZM29.409374 305.75522Q29.409374 307.39584 29.690624 308.00522Q29.9875 308.59897 30.534374 308.59897Q30.909374 308.59897 31.175 308.34897Q31.440624 308.08334 31.565624 307.53647Q31.690624 306.9896 31.690624 305.81772Q31.690624 304.1146 31.39375 303.52084Q31.1125 302.9271 30.534374 302.9271Q29.940624 302.9271 29.675 303.53647Q29.409374 304.13022 29.409374 305.75522ZM42.425 301.34897L43.659374 301.34897L38.70625 310.52084L37.471874 310.52084L42.425 301.34897ZM35.128124 303.59897Q35.128124 303.00522 35.39375 302.47397Q35.659374 301.9271 36.190624 301.64584Q36.721874 301.34897 37.45625 301.34897Q38.534374 301.34897 39.159374 301.97397Q39.784374 302.58334 39.784374 303.59897Q39.784374 304.63022 39.159374 305.25522Q38.534374 305.8646 37.45625 305.8646Q36.721874 305.8646 36.190624 305.58334Q35.659374 305.28647 35.39375 304.75522Q35.128124 304.20834 35.128124 303.59897ZM36.784374 303.6146Q36.784374 304.33334 37.01875 304.66147Q37.159374 304.88022 37.45625 304.88022Q37.753124 304.88022 37.89375 304.66147Q38.128124 304.33334 38.128124 303.6146Q38.128124 302.89584 37.89375 302.5521Q37.753124 302.34897 37.45625 302.34897Q37.159374 302.34897 37.01875 302.5521Q36.784374 302.88022 36.784374 303.6146ZM41.33125 308.25522Q41.33125 307.64584 41.58125 307.1146Q41.846874 306.56772 42.378124 306.28647Q42.925 305.9896 43.64375 305.9896Q44.721874 305.9896 45.346874 306.6146Q45.971874 307.22397 45.971874 308.25522Q45.971874 309.27084 45.346874 309.89584Q44.721874 310.50522 43.64375 310.50522Q42.925 310.50522 42.378124 310.20834Q41.846874 309.9271 41.58125 309.39584Q41.33125 308.84897 41.33125 308.25522ZM42.971874 308.25522Q42.971874 308.9896 43.20625 309.31772Q43.346874 309.52084 43.64375 309.52084Q43.940624 309.52084 44.096874 309.31772Q44.33125 308.9896 44.33125 308.25522Q44.33125 307.53647 44.096874 307.19272Q43.940624 306.9896 43.64375 306.9896Q43.346874 306.9896 43.20625 307.20834Q42.971874 307.53647 42.971874 308.25522Z" fill-rule="nonzero"/><path fill="#000000" d="M26.034374 179.6027L18.8625 179.6027Q18.9875 178.5402 19.6125 177.6027Q20.2375 176.6652 21.95625 175.39958Q23.003124 174.61833 23.3 174.21208Q23.596874 173.80583 23.596874 173.44646Q23.596874 173.05583 23.3 172.77458Q23.003124 172.49333 22.565624 172.49333Q22.1125 172.49333 21.815624 172.7902Q21.534374 173.07146 21.440624 173.80583L19.05 173.6027Q19.190624 172.6027 19.565624 172.0402Q19.940624 171.46208 20.6125 171.1652Q21.3 170.86833 22.503124 170.86833Q23.76875 170.86833 24.45625 171.1652Q25.159374 171.44646 25.565624 172.0402Q25.971874 172.63396 25.971874 173.36833Q25.971874 174.14958 25.503124 174.86833Q25.05 175.58708 23.83125 176.43083Q23.1125 176.93083 22.8625 177.13396Q22.628124 177.33708 22.3 177.64958L26.034374 177.64958L26.034374 179.6027ZM27.05 175.27458Q27.05 172.82146 27.925 171.8527Q28.8 170.86833 30.6125 170.86833Q31.471874 170.86833 32.034374 171.08708Q32.596874 171.2902 32.940624 171.63396Q33.3 171.9777 33.503124 172.3527Q33.70625 172.7277 33.815624 173.24333Q34.065624 174.19646 34.065624 175.24333Q34.065624 177.58708 33.26875 178.6652Q32.4875 179.74333 30.55 179.74333Q29.45625 179.74333 28.784374 179.39958Q28.128124 179.05583 27.70625 178.38396Q27.39375 177.9152 27.221874 177.1027Q27.05 176.27458 27.05 175.27458ZM29.409374 175.27458Q29.409374 176.9152 29.690624 177.52458Q29.9875 178.11833 30.534374 178.11833Q30.909374 178.11833 31.175 177.86833Q31.440624 177.6027 31.565624 177.05583Q31.690624 176.50896 31.690624 175.33708Q31.690624 173.63396 31.39375 173.0402Q31.1125 172.44646 30.534374 172.44646Q29.940624 172.44646 29.675 173.05583Q29.409374 173.64958 29.409374 175.27458ZM42.425 170.86833L43.659374 170.86833L38.70625 180.0402L37.471874 180.0402L42.425 170.86833ZM35.128124 173.11833Q35.128124 172.52458 35.39375 171.99333Q35.659374 171.44646 36.190624 171.1652Q36.721874 170.86833 37.45625 170.86833Q38.534374 170.86833 39.159374 171.49333Q39.784374 172.1027 39.784374 173.11833Q39.784374 174.14958 39.159374 174.77458Q38.534374 175.38396 37.45625 175.38396Q36.721874 175.38396 36.190624 175.1027Q35.659374 174.80583 35.39375 174.27458Q35.128124 173.7277 35.128124 173.11833ZM36.784374 173.13396Q36.784374 173.8527 37.01875 174.18083Q37.159374 174.39958 37.45625 174.39958Q37.753124 174.39958 37.89375 174.18083Q38.128124 173.8527 38.128124 173.13396Q38.128124 172.4152 37.89375 172.07146Q37.753124 171.86833 37.45625 171.86833Q37.159374 171.86833 37.01875 172.07146Q36.784374 172.39958 36.784374 173.13396ZM41.33125 177.77458Q41.33125 177.1652 41.58125 176.63396Q41.846874 176.08708 42.378124 175.80583Q42.925 175.50896 43.64375 175.50896Q44.721874 175.50896 45.346874 176.13396Q45.971874 176.74333 45.971874 177.77458Q45.971874 178.7902 45.346874 179.4152Q44.721874 180.02458 43.64375 180.02458Q42.925 180.02458 42.378124 179.7277Q41.846874 179.44646 41.58125 178.9152Q41.33125 178.36833 41.33125 177.77458ZM42.971874 177.77458Q42.971874 178.50896 43.20625 178.83708Q43.346874 179.0402 43.64375 179.0402Q43.940624 179.0402 44.096874 178.83708Q44.33125 178.50896 44.33125 177.77458Q44.33125 177.05583 44.096874 176.71208Q43.940624 176.50896 43.64375 176.50896Q43.346874 176.50896 43.20625 176.7277Q42.971874 177.05583 42.971874 177.77458Z" fill-rule="nonzero"/><path fill="#000000" d="M23.14375 47.51272L18.8 47.51272L18.8 45.559593L23.14375 40.38772L25.221874 40.38772L25.221874 45.66897L26.3 45.66897L26.3 47.51272L25.221874 47.51272L25.221874 49.122093L23.14375 49.122093L23.14375 47.51272ZM23.14375 45.66897L23.14375 42.965843L20.846874 45.66897L23.14375 45.66897ZM27.05 44.79397Q27.05 42.340843 27.925 41.372093Q28.8 40.38772 30.6125 40.38772Q31.471874 40.38772 32.034374 40.60647Q32.596874 40.809593 32.940624 41.153343Q33.3 41.497093 33.503124 41.872093Q33.70625 42.247093 33.815624 42.76272Q34.065624 43.715843 34.065624 44.76272Q34.065624 47.10647 33.26875 48.184593Q32.4875 49.26272 30.55 49.26272Q29.45625 49.26272 28.784374 48.91897Q28.128124 48.57522 27.70625 47.903343Q27.39375 47.434593 27.221874 46.622093Q27.05 45.79397 27.05 44.79397ZM29.409374 44.79397Q29.409374 46.434593 29.690624 47.04397Q29.9875 47.63772 30.534374 47.63772Q30.909374 47.63772 31.175 47.38772Q31.440624 47.122093 31.565624 46.57522Q31.690624 46.028343 31.690624 44.85647Q31.690624 43.153343 31.39375 42.559593Q31.1125 41.965843 30.534374 41.965843Q29.940624 41.965843 29.675 42.57522Q29.409374 43.16897 29.409374 44.79397ZM42.425 40.38772L43.659374 40.38772L38.70625 49.559593L37.471874 49.559593L42.425 40.38772ZM35.128124 42.63772Q35.128124 42.04397 35.39375 41.51272Q35.659374 40.965843 36.190624 40.684593Q36.721874 40.38772 37.45625 40.38772Q38.534374 40.38772 39.159374 41.01272Q39.784374 41.622093 39.784374 42.63772Q39.784374 43.66897 39.159374 44.29397Q38.534374 44.903343 37.45625 44.903343Q36.721874 44.903343 36.190624 44.622093Q35.659374 44.32522 35.39375 43.79397Q35.128124 43.247093 35.128124 42.63772ZM36.784374 42.653343Q36.784374 43.372093 37.01875 43.70022Q37.159374 43.91897 37.45625 43.91897Q37.753124 43.91897 37.89375 43.70022Q38.128124 43.372093 38.128124 42.653343Q38.128124 41.934593 37.89375 41.590843Q37.753124 41.38772 37.45625 41.38772Q37.159374 41.38772 37.01875 41.590843Q36.784374 41.91897 36.784374 42.653343ZM41.33125 47.29397Q41.33125 46.684593 41.58125 46.153343Q41.846874 45.60647 42.378124 45.32522Q42.925 45.028343 43.64375 45.028343Q44.721874 45.028343 45.346874 45.653343Q45.971874 46.26272 45.971874 47.29397Q45.971874 48.309593 45.346874 48.934593Q44.721874 49.54397 43.64375 49.54397Q42.925 49.54397 42.378124 49.247093Q41.846874 48.965843 41.58125 48.434593Q41.33125 47.88772 41.33125 47.29397ZM42.971874 47.29397Q42.971874 48.028343 43.20625 48.35647Q43.346874 48.559593 43.64375 48.559593Q43.940624 48.559593 44.096874 48.35647Q44.33125 48.028343 44.33125 47.29397Q44.33125 46.57522 44.096874 46.23147Q43.940624 46.028343 43.64375 46.028343Q43.346874 46.028343 43.20625 46.247093Q42.971874 46.57522 42.971874 47.29397Z" fill-rule="nonzero"/><path fill="#000000" d="M345.875 314.4896L352.98438 314.4896L352.98438 316.33334L348.53125 316.33334L348.53125 317.69272L352.67188 317.69272L352.67188 319.44272L348.53125 319.44272L348.53125 321.13022L353.10938 321.13022L353.10938 323.08334L345.875 323.08334L345.875 314.4896ZM354.79688 314.4896L357.1875 314.4896L357.1875 323.08334L354.79688 323.08334L354.79688 314.4896ZM365.625 320.56772L360.84375 320.56772Q360.90625 321.13022 361.15625 321.41147Q361.5 321.81772 362.0625 321.81772Q362.40625 321.81772 362.73438 321.64584Q362.92188 321.53647 363.14062 321.25522L365.5 321.47397Q364.95312 322.41147 364.1875 322.81772Q363.4375 323.22397 362.01562 323.22397Q360.76562 323.22397 360.0625 322.88022Q359.35938 322.52084 358.89062 321.77084Q358.42188 321.00522 358.42188 319.9896Q358.42188 318.52084 359.35938 317.63022Q360.29688 316.72397 361.9375 316.72397Q363.28125 316.72397 364.04688 317.13022Q364.82812 317.52084 365.21875 318.3021Q365.625 319.06772 365.625 320.28647L365.625 320.56772ZM363.20312 319.4271Q363.14062 318.72397 362.82812 318.4271Q362.53125 318.13022 362.03125 318.13022Q361.46875 318.13022 361.125 318.58334Q360.90625 318.8646 360.85938 319.4271L363.20312 319.4271ZM371.35938 320.64584L373.625 320.91147Q373.4375 321.6146 373.01562 322.14584Q372.59375 322.66147 371.92188 322.94272Q371.25 323.22397 370.23438 323.22397Q369.23438 323.22397 368.57812 323.0521Q367.92188 322.8646 367.4375 322.45834Q366.96875 322.03647 366.70312 321.4896Q366.4375 320.9271 366.4375 320.00522Q366.4375 319.03647 366.76562 318.39584Q367.0 317.9271 367.40625 317.56772Q367.82812 317.19272 368.28125 317.00522Q368.96875 316.72397 370.0625 316.72397Q371.57812 316.72397 372.375 317.27084Q373.1875 317.8021 373.5 318.8646L371.26562 319.16147Q371.15625 318.75522 370.875 318.5521Q370.59375 318.34897 370.125 318.34897Q369.54688 318.34897 369.17188 318.78647Q368.8125 319.20834 368.8125 320.06772Q368.8125 320.83334 369.17188 321.2396Q369.53125 321.63022 370.09375 321.63022Q370.5625 321.63022 370.875 321.39584Q371.20312 321.14584 371.35938 320.64584ZM377.59375 314.4896L377.59375 316.8646L378.90625 316.8646L378.90625 318.59897L377.59375 318.59897L377.59375 320.8021Q377.59375 321.20834 377.67188 321.33334Q377.79688 321.53647 378.07812 321.53647Q378.34375 321.53647 378.82812 321.38022L379.0 323.03647Q378.10938 323.22397 377.34375 323.22397Q376.45312 323.22397 376.03125 323.00522Q375.60938 322.77084 375.40625 322.3021Q375.20312 321.83334 375.20312 320.78647L375.20312 318.59897L374.32812 318.59897L374.32812 316.8646L375.20312 316.8646L375.20312 315.72397L377.59375 314.4896ZM379.8125 314.4896L382.1875 314.4896L382.1875 316.1146L379.8125 316.1146L379.8125 314.4896ZM379.8125 316.8646L382.1875 316.8646L382.1875 323.08334L379.8125 323.08334L379.8125 316.8646ZM383.42188 319.9896Q383.42188 318.56772 384.375 317.64584Q385.34375 316.72397 386.98438 316.72397Q388.85938 316.72397 389.8125 317.8021Q390.57812 318.6771 390.57812 319.95834Q390.57812 321.39584 389.625 322.31772Q388.67188 323.22397 386.98438 323.22397Q385.48438 323.22397 384.5625 322.45834Q383.42188 321.52084 383.42188 319.9896ZM385.8125 319.9896Q385.8125 320.81772 386.15625 321.22397Q386.5 321.6146 387.0 321.6146Q387.51562 321.6146 387.84375 321.22397Q388.1875 320.83334 388.1875 319.95834Q388.1875 319.14584 387.84375 318.75522Q387.51562 318.3646 387.01562 318.3646Q386.5 318.3646 386.15625 318.77084Q385.8125 319.16147 385.8125 319.9896ZM391.71875 316.8646L393.9375 316.8646L393.9375 317.88022Q394.4375 317.25522 394.9375 316.9896Q395.45312 316.72397 396.1875 316.72397Q397.1875 316.72397 397.73438 317.31772Q398.29688 317.89584 398.29688 319.13022L398.29688 323.08334L395.90625 323.08334L395.90625 319.66147Q395.90625 319.06772 395.6875 318.83334Q395.46875 318.58334 395.07812 318.58334Q394.64062 318.58334 394.375 318.91147Q394.10938 319.2396 394.10938 320.09897L394.10938 323.08334L391.71875 323.08334L391.71875 316.8646ZM403.92188 323.08334L403.92188 314.4896L408.34375 314.4896Q409.5625 314.4896 410.21875 314.70834Q410.875 314.91147 411.26562 315.4896Q411.67188 316.0521 411.67188 316.88022Q411.67188 317.59897 411.35938 318.1146Q411.0625 318.63022 410.53125 318.95834Q410.1875 319.16147 409.59375 319.28647Q410.0625 319.44272 410.28125 319.6146Q410.4375 319.70834 410.70312 320.06772Q410.98438 320.41147 411.07812 320.59897L412.35938 323.08334L409.35938 323.08334L407.95312 320.45834Q407.67188 319.94272 407.46875 319.8021Q407.17188 319.59897 406.8125 319.59897L406.57812 319.59897L406.57812 323.08334L403.92188 323.08334ZM406.57812 317.97397L407.70312 317.97397Q407.875 317.97397 408.40625 317.84897Q408.67188 317.8021 408.82812 317.58334Q409.0 317.3646 409.0 317.08334Q409.0 316.6771 408.73438 316.45834Q408.46875 316.22397 407.75 316.22397L406.57812 316.22397L406.57812 317.97397ZM419.625 320.56772L414.84375 320.56772Q414.90625 321.13022 415.15625 321.41147Q415.5 321.81772 416.0625 321.81772Q416.40625 321.81772 416.73438 321.64584Q416.92188 321.53647 417.14062 321.25522L419.5 321.47397Q418.95312 322.41147 418.1875 322.81772Q417.4375 323.22397 416.01562 323.22397Q414.76562 323.22397 414.0625 322.88022Q413.35938 322.52084 412.89062 321.77084Q412.42188 321.00522 412.42188 319.9896Q412.42188 318.52084 413.35938 317.63022Q414.29688 316.72397 415.9375 316.72397Q417.28125 316.72397 418.04688 317.13022Q418.82812 317.52084 419.21875 318.3021Q419.625 319.06772 419.625 320.28647L419.625 320.56772ZM417.20312 319.4271Q417.14062 318.72397 416.82812 318.4271Q416.53125 318.13022 416.03125 318.13022Q415.46875 318.13022 415.125 318.58334Q414.90625 318.8646 414.85938 319.4271L417.20312 319.4271ZM420.29688 321.3646L422.67188 321.13022Q422.8125 321.5521 423.07812 321.7396Q423.34375 321.9271 423.78125 321.9271Q424.26562 321.9271 424.53125 321.72397Q424.73438 321.56772 424.73438 321.33334Q424.73438 321.08334 424.45312 320.94272Q424.26562 320.83334 423.4375 320.69272Q422.1875 320.47397 421.70312 320.28647Q421.21875 320.09897 420.89062 319.66147Q420.5625 319.22397 420.5625 318.66147Q420.5625 318.0521 420.92188 317.6146Q421.28125 317.16147 421.90625 316.94272Q422.53125 316.72397 423.59375 316.72397Q424.70312 316.72397 425.23438 316.89584Q425.76562 317.0521 426.10938 317.41147Q426.46875 317.77084 426.70312 318.38022L424.4375 318.59897Q424.35938 318.3021 424.15625 318.16147Q423.875 317.97397 423.46875 317.97397Q423.0625 317.97397 422.875 318.13022Q422.70312 318.27084 422.70312 318.47397Q422.70312 318.69272 422.9375 318.81772Q423.17188 318.9271 423.95312 319.02084Q425.14062 319.16147 425.71875 319.41147Q426.29688 319.64584 426.60938 320.09897Q426.92188 320.53647 426.92188 321.06772Q426.92188 321.59897 426.59375 322.1146Q426.26562 322.63022 425.5625 322.9271Q424.85938 323.22397 423.65625 323.22397Q421.95312 323.22397 421.21875 322.7396Q420.5 322.25522 420.29688 321.3646ZM434.28125 323.08334L432.04688 323.08334L432.04688 322.06772Q431.54688 322.69272 431.04688 322.95834Q430.54688 323.22397 429.79688 323.22397Q428.8125 323.22397 428.25 322.64584Q427.70312 322.0521 427.70312 320.81772L427.70312 316.8646L430.09375 316.8646L430.09375 320.28647Q430.09375 320.8646 430.3125 321.1146Q430.53125 321.3646 430.92188 321.3646Q431.34375 321.3646 431.60938 321.03647Q431.89062 320.70834 431.89062 319.84897L431.89062 316.8646L434.28125 316.8646L434.28125 323.08334ZM435.79688 314.4896L438.1875 314.4896L438.1875 323.08334L435.79688 323.08334L435.79688 314.4896ZM442.59375 314.4896L442.59375 316.8646L443.90625 316.8646L443.90625 318.59897L442.59375 318.59897L442.59375 320.8021Q442.59375 321.20834 442.67188 321.33334Q442.79688 321.53647 443.07812 321.53647Q443.34375 321.53647 443.82812 321.38022L444.0 323.03647Q443.10938 323.22397 442.34375 323.22397Q441.45312 323.22397 441.03125 323.00522Q440.60938 322.77084 440.40625 322.3021Q440.20312 321.83334 440.20312 320.78647L440.20312 318.59897L439.32812 318.59897L439.32812 316.8646L440.20312 316.8646L440.20312 315.72397L442.59375 314.4896Z" fill-rule="nonzero"/><path fill="#f1c232" d="M45.5625 340.45C45.5625 339.8977 46.010216 339.45 46.5625 339.45L56.5625 339.45C57.114784 339.45 57.5625 339.8977 57.5625 340.45L57.5625 350.45C57.5625 351.0023 57.114784 351.45 56.5625 351.45L46.5625 351.45C46.010216 351.45 45.5625 351.0023 45.5625 350.45Z" fill-rule="nonzero"/><path fill="#000000" d="M66.4375 340.48126L69.46875 340.48126L69.46875 346.96564L73.609375 346.96564L73.609375 349.45L66.4375 349.45L66.4375 340.48126ZM74.359375 346.16876Q74.359375 344.66876 75.375 343.7Q76.390625 342.71564 78.109375 342.71564Q80.0625 342.71564 81.078125 343.85626Q81.890625 344.77814 81.890625 346.1375Q81.890625 347.65314 80.875 348.6219Q79.875 349.59064 78.109375 349.59064Q76.546875 349.59064 75.5625 348.77814Q74.359375 347.79376 74.359375 346.16876ZM77.125 346.16876Q77.125 346.9344 77.40625 347.27814Q77.703125 347.60626 78.125 347.60626Q78.546875 347.60626 78.828125 347.27814Q79.125 346.95 79.125 346.1375Q79.125 345.3875 78.828125 345.0594Q78.546875 344.73126 78.140625 344.73126Q77.703125 344.73126 77.40625 345.075Q77.125 345.40314 77.125 346.16876ZM89.96875 349.45L87.359375 349.45L87.359375 348.77814Q87.171875 349.0125 86.625 349.3094Q86.09375 349.59064 85.296875 349.59064Q84.234375 349.59064 83.625 348.95Q83.015625 348.3094 83.015625 346.9969L83.015625 342.85626L85.78125 342.85626L85.78125 346.46564Q85.78125 346.96564 85.9375 347.16876Q86.109375 347.35626 86.421875 347.35626Q86.75 347.35626 86.96875 347.09064Q87.203125 346.825 87.203125 346.02814L87.203125 342.85626L89.96875 342.85626L89.96875 349.45ZM91.5 340.48126L94.25 340.48126L94.25 342.48126L91.5 342.48126L91.5 340.48126ZM91.5 342.85626L94.25 342.85626L94.25 349.45L91.5 349.45L91.5 342.85626ZM95.3125 347.3719L98.046875 347.10626Q98.21875 347.60626 98.4375 347.7625Q98.65625 347.91876 99.03125 347.91876Q99.453125 347.91876 99.671875 347.7469Q99.796875 347.65314 99.796875 347.5125Q99.796875 347.3719 99.609375 347.29376Q99.453125 347.1844 98.65625 347.0594Q97.390625 346.84064 96.859375 346.6375Q96.34375 346.4344 95.984375 345.95Q95.625 345.46564 95.625 344.84064Q95.625 344.16876 96.015625 343.6844Q96.421875 343.1844 97.078125 342.95Q97.75 342.71564 98.84375 342.71564Q99.984375 342.71564 100.546875 342.8875Q101.109375 343.0594 101.484375 343.45Q101.875 343.84064 102.21875 344.71564L99.546875 344.98126Q99.453125 344.59064 99.296875 344.4969Q99.0625 344.34064 98.71875 344.34064Q98.375 344.34064 98.25 344.45Q98.140625 344.54376 98.140625 344.65314Q98.140625 344.7625 98.265625 344.825Q98.46875 344.91876 99.21875 345.0125Q100.4375 345.15314 101.046875 345.41876Q101.671875 345.66876 102.015625 346.16876Q102.359375 346.65314 102.359375 347.2469Q102.359375 347.825 102.0 348.40314Q101.640625 348.96564 100.890625 349.27814Q100.140625 349.59064 98.90625 349.59064Q97.140625 349.59064 96.359375 349.075Q95.578125 348.54376 95.3125 347.3719ZM110.40625 340.35626L110.40625 342.85626L111.71875 342.85626L111.71875 344.96564L110.40625 344.96564L110.40625 346.98126Q110.40625 347.34064 110.453125 347.41876Q110.53125 347.52814 110.703125 347.52814Q110.9375 347.52814 111.609375 347.3094L111.828125 349.3719Q110.75 349.59064 109.96875 349.59064Q109.03125 349.59064 108.5625 349.34064Q108.09375 349.09064 107.859375 348.575Q107.640625 348.04376 107.640625 346.96564L107.640625 344.96564L106.765625 344.96564L106.765625 342.85626L107.640625 342.85626L107.640625 341.79376L110.40625 340.35626ZM112.53125 340.48126L115.296875 340.48126L115.296875 343.3719Q115.484375 343.16876 115.984375 342.95Q116.5 342.71564 117.203125 342.71564Q118.265625 342.71564 118.875 343.35626Q119.484375 343.9969 119.484375 345.3094L119.484375 349.45L116.71875 349.45L116.71875 345.84064Q116.71875 345.325 116.546875 345.1375Q116.390625 344.95 116.078125 344.95Q115.734375 344.95 115.515625 345.21564Q115.296875 345.48126 115.296875 346.27814L115.296875 349.45L112.53125 349.45L112.53125 340.48126ZM128.1875 346.9344L123.421875 346.9344Q123.46875 347.23126 123.671875 347.46564Q123.96875 347.8094 124.4375 347.8094Q124.734375 347.8094 125.015625 347.65314Q125.171875 347.575 125.4375 347.23126L128.1875 347.4969Q127.46875 348.73126 126.65625 349.16876Q125.859375 349.59064 124.390625 349.59064Q123.09375 349.59064 122.34375 349.21564Q121.609375 348.84064 121.109375 348.04376Q120.609375 347.23126 120.609375 346.16876Q120.609375 344.6219 121.59375 343.66876Q122.59375 342.71564 124.3125 342.71564Q125.703125 342.71564 126.515625 343.1375Q127.34375 343.5594 127.765625 344.3875Q128.1875 345.2 128.1875 346.46564L128.1875 346.9344ZM125.375 345.41876Q125.328125 344.98126 125.078125 344.7469Q124.828125 344.4969 124.40625 344.4969Q123.9375 344.4969 123.65625 344.8719Q123.46875 345.1219 123.4375 345.41876L125.375 345.41876ZM133.4375 340.48126L136.46875 340.48126L136.46875 346.96564L140.60938 346.96564L140.60938 349.45L133.4375 349.45L133.4375 340.48126ZM141.75 340.48126L144.5 340.48126L144.5 342.48126L141.75 342.48126L141.75 340.48126ZM141.75 342.85626L144.5 342.85626L144.5 349.45L141.75 349.45L141.75 342.85626ZM146.04688 340.48126L148.82812 340.48126L148.82812 343.1844Q148.89062 343.1219 149.375 342.91876Q149.875 342.71564 150.45312 342.71564Q151.67188 342.71564 152.46875 343.59064Q153.26562 344.45 153.26562 346.0594Q153.26562 347.10626 152.90625 347.9344Q152.5625 348.7625 151.90625 349.1844Q151.25 349.59064 150.46875 349.59064Q149.79688 349.59064 149.23438 349.3094Q148.79688 349.0594 148.65625 348.8875L148.65625 349.45L146.04688 349.45L146.04688 340.48126ZM148.8125 346.1375Q148.8125 346.8719 149.0625 347.16876Q149.32812 347.46564 149.6875 347.46564Q150.03125 347.46564 150.26562 347.1844Q150.51562 346.8875 150.51562 346.10626Q150.51562 345.4344 150.26562 345.15314Q150.03125 344.8719 149.71875 344.8719Q149.32812 344.8719 149.0625 345.16876Q148.8125 345.46564 148.8125 346.1375ZM161.6875 346.9344L156.92188 346.9344Q156.96875 347.23126 157.17188 347.46564Q157.46875 347.8094 157.9375 347.8094Q158.23438 347.8094 158.51562 347.65314Q158.67188 347.575 158.9375 347.23126L161.6875 347.4969Q160.96875 348.73126 160.15625 349.16876Q159.35938 349.59064 157.89062 349.59064Q156.59375 349.59064 155.84375 349.21564Q155.10938 348.84064 154.60938 348.04376Q154.10938 347.23126 154.10938 346.16876Q154.10938 344.6219 155.09375 343.66876Q156.09375 342.71564 157.8125 342.71564Q159.20312 342.71564 160.01562 343.1375Q160.84375 343.5594 161.26562 344.3875Q161.6875 345.2 161.6875 346.46564L161.6875 346.9344ZM158.875 345.41876Q158.82812 344.98126 158.57812 344.7469Q158.32812 344.4969 157.90625 344.4969Q157.4375 344.4969 157.15625 344.8719Q156.96875 345.1219 156.9375 345.41876L158.875 345.41876ZM162.8125 342.85626L165.42188 342.85626L165.42188 343.23126Q165.39062 343.27814 165.78125 342.9969Q166.17188 342.71564 166.73438 342.71564Q167.3125 342.71564 168.125 343.15314L167.25 345.16876Q166.70312 344.9344 166.48438 344.9344Q166.125 344.9344 165.92188 345.2469Q165.57812 345.7469 165.57812 347.16876L165.57812 349.45L162.8125 349.45L162.8125 342.85626ZM170.64062 345.2625L168.0 344.96564Q168.20312 344.1375 168.46875 343.7625Q168.73438 343.3875 169.21875 343.1219Q169.57812 342.91876 170.17188 342.825Q170.78125 342.71564 171.45312 342.71564Q172.54688 342.71564 173.21875 342.84064Q173.90625 342.96564 174.39062 343.3719Q174.71875 343.66876 174.90625 344.2Q175.10938 344.71564 175.10938 345.1844L175.10938 347.9344Q175.10938 348.35626 175.15625 348.59064Q175.20312 348.8094 175.51562 349.45L172.875 349.45Q172.67188 349.10626 172.625 348.96564Q172.57812 348.8094 172.625 348.77814Q172.35938 349.10626 171.875 349.3094Q171.1875 349.59064 170.32812 349.59064Q169.125 349.59064 168.48438 349.02814Q167.85938 348.45 167.85938 347.6219Q167.85938 346.825 168.32812 346.325Q168.79688 345.825 169.96875 345.575Q171.29688 345.3094 171.6875 345.21564Q172.07812 345.10626 172.40625 344.98126Q172.40625 344.7469 172.26562 344.6219Q172.14062 344.4969 171.76562 344.4969Q171.23438 344.4969 171.0 344.65314Q170.8125 344.77814 170.64062 345.2625ZM172.40625 346.575Q172.14062 346.65314 171.60938 346.8094Q170.9375 346.98126 170.76562 347.1375Q170.625 347.27814 170.625 347.4344Q170.625 347.6375 170.76562 347.7625Q170.92188 347.8875 171.21875 347.8875Q171.5625 347.8875 171.85938 347.71564Q172.15625 347.54376 172.28125 347.325Q172.40625 347.09064 172.40625 346.6844L172.40625 346.575ZM176.60938 340.48126L179.375 340.48126L179.375 349.45L176.60938 349.45L176.60938 340.48126Z" fill-rule="nonzero"/><path fill="#a4c2f4" d="M196.1875 340.45C196.1875 339.8977 196.63521 339.45 197.1875 339.45L207.1875 339.45C207.73979 339.45 208.1875 339.8977 208.1875 340.45L208.1875 350.45C208.1875 351.0023 207.73979 351.45 207.1875 351.45L197.1875 351.45C196.63521 351.45 196.1875 351.0023 196.1875 350.45Z" fill-rule="nonzero"/><path fill="#000000" d="M222.82812 345.5125L225.51562 346.325Q225.23438 347.5125 224.70312 348.21564Q224.1875 348.90314 223.39062 349.2625Q222.60938 349.60626 221.40625 349.60626Q219.96875 349.60626 219.03125 349.1844Q218.10938 348.7469 217.42188 347.66876Q216.75 346.59064 216.75 344.95Q216.75 342.73126 217.9375 341.54376Q219.14062 340.34064 221.28125 340.34064Q222.96875 340.34064 223.9375 341.02814Q224.92188 341.71564 225.46875 343.34064L222.75 343.9344Q222.57812 343.41876 222.45312 343.2469Q222.26562 342.98126 221.98438 342.84064Q221.70312 342.7 221.34375 342.7Q220.54688 342.7 220.125 343.34064Q219.79688 343.84064 219.79688 344.9344Q219.79688 346.29376 220.17188 346.7625Q220.5625 347.23126 221.25 347.23126Q221.9375 347.23126 222.28125 346.85626Q222.625 346.46564 222.82812 345.5125ZM228.76562 345.2625L226.125 344.96564Q226.32812 344.1375 226.59375 343.7625Q226.85938 343.3875 227.34375 343.1219Q227.70312 342.91876 228.29688 342.825Q228.90625 342.71564 229.57812 342.71564Q230.67188 342.71564 231.34375 342.84064Q232.03125 342.96564 232.51562 343.3719Q232.84375 343.66876 233.03125 344.2Q233.23438 344.71564 233.23438 345.1844L233.23438 347.9344Q233.23438 348.35626 233.28125 348.59064Q233.32812 348.8094 233.64062 349.45L231.0 349.45Q230.79688 349.10626 230.75 348.96564Q230.70312 348.8094 230.75 348.77814Q230.48438 349.10626 230.0 349.3094Q229.3125 349.59064 228.45312 349.59064Q227.25 349.59064 226.60938 349.02814Q225.98438 348.45 225.98438 347.6219Q225.98438 346.825 226.45312 346.325Q226.92188 345.825 228.09375 345.575Q229.42188 345.3094 229.8125 345.21564Q230.20312 345.10626 230.53125 344.98126Q230.53125 344.7469 230.39062 344.6219Q230.26562 344.4969 229.89062 344.4969Q229.35938 344.4969 229.125 344.65314Q228.9375 344.77814 228.76562 345.2625ZM230.53125 346.575Q230.26562 346.65314 229.73438 346.8094Q229.0625 346.98126 228.89062 347.1375Q228.75 347.27814 228.75 347.4344Q228.75 347.6375 228.89062 347.7625Q229.04688 347.8875 229.34375 347.8875Q229.6875 347.8875 229.98438 347.71564Q230.28125 347.54376 230.40625 347.325Q230.53125 347.09064 230.53125 346.6844L230.53125 346.575ZM234.6875 342.85626L237.29688 342.85626L237.29688 343.23126Q237.26562 343.27814 237.65625 342.9969Q238.04688 342.71564 238.60938 342.71564Q239.1875 342.71564 240.0 343.15314L239.125 345.16876Q238.57812 344.9344 238.35938 344.9344Q238.0 344.9344 237.79688 345.2469Q237.45312 345.7469 237.45312 347.16876L237.45312 349.45L234.6875 349.45L234.6875 342.85626ZM239.73438 346.16876Q239.73438 344.66876 240.75 343.7Q241.76562 342.71564 243.48438 342.71564Q245.4375 342.71564 246.45312 343.85626Q247.26562 344.77814 247.26562 346.1375Q247.26562 347.65314 246.25 348.6219Q245.25 349.59064 243.48438 349.59064Q241.92188 349.59064 240.9375 348.77814Q239.73438 347.79376 239.73438 346.16876ZM242.5 346.16876Q242.5 346.9344 242.78125 347.27814Q243.07812 347.60626 243.5 347.60626Q243.92188 347.60626 244.20312 347.27814Q244.5 346.95 244.5 346.1375Q244.5 345.3875 244.20312 345.0594Q243.92188 344.73126 243.51562 344.73126Q243.07812 344.73126 242.78125 345.075Q242.5 345.40314 242.5 346.16876ZM248.48438 340.48126L251.25 340.48126L251.25 349.45L248.48438 349.45L248.48438 340.48126ZM252.875 340.48126L255.625 340.48126L255.625 342.48126L252.875 342.48126L252.875 340.48126ZM252.875 342.85626L255.625 342.85626L255.625 349.45L252.875 349.45L252.875 342.85626ZM257.15625 342.85626L259.75 342.85626L259.75 343.52814Q259.9375 343.29376 260.48438 343.0125Q261.03125 342.71564 261.8125 342.71564Q262.89062 342.71564 263.5 343.35626Q264.10938 343.9969 264.10938 345.3094L264.10938 349.45L261.34375 349.45L261.34375 345.84064Q261.34375 345.325 261.17188 345.1375Q261.01562 344.95 260.70312 344.95Q260.35938 344.95 260.14062 345.21564Q259.92188 345.48126 259.92188 346.27814L259.92188 349.45L257.15625 349.45L257.15625 342.85626ZM272.8125 346.9344L268.04688 346.9344Q268.09375 347.23126 268.29688 347.46564Q268.59375 347.8094 269.0625 347.8094Q269.35938 347.8094 269.64062 347.65314Q269.79688 347.575 270.0625 347.23126L272.8125 347.4969Q272.09375 348.73126 271.28125 349.16876Q270.48438 349.59064 269.01562 349.59064Q267.71875 349.59064 266.96875 349.21564Q266.23438 348.84064 265.73438 348.04376Q265.23438 347.23126 265.23438 346.16876Q265.23438 344.6219 266.21875 343.66876Q267.21875 342.71564 268.9375 342.71564Q270.32812 342.71564 271.14062 343.1375Q271.96875 343.5594 272.39062 344.3875Q272.8125 345.2 272.8125 346.46564L272.8125 346.9344ZM270.0 345.41876Q269.95312 344.98126 269.70312 344.7469Q269.45312 344.4969 269.03125 344.4969Q268.5625 344.4969 268.28125 344.8719Q268.09375 345.1219 268.0625 345.41876L270.0 345.41876ZM281.15625 340.35626L281.15625 342.85626L282.46875 342.85626L282.46875 344.96564L281.15625 344.96564L281.15625 346.98126Q281.15625 347.34064 281.20312 347.41876Q281.28125 347.52814 281.45312 347.52814Q281.6875 347.52814 282.35938 347.3094L282.57812 349.3719Q281.5 349.59064 280.71875 349.59064Q279.78125 349.59064 279.3125 349.34064Q278.84375 349.09064 278.60938 348.575Q278.39062 348.04376 278.39062 346.96564L278.39062 344.96564L277.51562 344.96564L277.51562 342.85626L278.39062 342.85626L278.39062 341.79376L281.15625 340.35626ZM283.28125 340.48126L286.04688 340.48126L286.04688 343.3719Q286.23438 343.16876 286.73438 342.95Q287.25 342.71564 287.95312 342.71564Q289.01562 342.71564 289.625 343.35626Q290.23438 343.9969 290.23438 345.3094L290.23438 349.45L287.46875 349.45L287.46875 345.84064Q287.46875 345.325 287.29688 345.1375Q287.14062 344.95 286.82812 344.95Q286.48438 344.95 286.26562 345.21564Q286.04688 345.48126 286.04688 346.27814L286.04688 349.45L283.28125 349.45L283.28125 340.48126ZM298.9375 346.9344L294.17188 346.9344Q294.21875 347.23126 294.42188 347.46564Q294.71875 347.8094 295.1875 347.8094Q295.48438 347.8094 295.76562 347.65314Q295.92188 347.575 296.1875 347.23126L298.9375 347.4969Q298.21875 348.73126 297.40625 349.16876Q296.60938 349.59064 295.14062 349.59064Q293.84375 349.59064 293.09375 349.21564Q292.35938 348.84064 291.85938 348.04376Q291.35938 347.23126 291.35938 346.16876Q291.35938 344.6219 292.34375 343.66876Q293.34375 342.71564 295.0625 342.71564Q296.45312 342.71564 297.26562 343.1375Q298.09375 343.5594 298.51562 344.3875Q298.9375 345.2 298.9375 346.46564L298.9375 346.9344ZM296.125 345.41876Q296.07812 344.98126 295.82812 344.7469Q295.57812 344.4969 295.15625 344.4969Q294.6875 344.4969 294.40625 344.8719Q294.21875 345.1219 294.1875 345.41876L296.125 345.41876ZM309.95312 345.5125L312.64062 346.325Q312.35938 347.5125 311.82812 348.21564Q311.3125 348.90314 310.51562 349.2625Q309.73438 349.60626 308.53125 349.60626Q307.09375 349.60626 306.15625 349.1844Q305.23438 348.7469 304.54688 347.66876Q303.875 346.59064 303.875 344.95Q303.875 342.73126 305.0625 341.54376Q306.26562 340.34064 308.40625 340.34064Q310.09375 340.34064 311.0625 341.02814Q312.04688 341.71564 312.59375 343.34064L309.875 343.9344Q309.70312 343.41876 309.57812 343.2469Q309.39062 342.98126 309.10938 342.84064Q308.82812 342.7 308.46875 342.7Q307.67188 342.7 307.25 343.34064Q306.92188 343.84064 306.92188 344.9344Q306.92188 346.29376 307.29688 346.7625Q307.6875 347.23126 308.375 347.23126Q309.0625 347.23126 309.40625 346.85626Q309.75 346.46564 309.95312 345.5125ZM313.10938 346.16876Q313.10938 344.66876 314.125 343.7Q315.14062 342.71564 316.85938 342.71564Q318.8125 342.71564 319.82812 343.85626Q320.64062 344.77814 320.64062 346.1375Q320.64062 347.65314 319.625 348.6219Q318.625 349.59064 316.85938 349.59064Q315.29688 349.59064 314.3125 348.77814Q313.10938 347.79376 313.10938 346.16876ZM315.875 346.16876Q315.875 346.9344 316.15625 347.27814Q316.45312 347.60626 316.875 347.60626Q317.29688 347.60626 317.57812 347.27814Q317.875 346.95 317.875 346.1375Q317.875 345.3875 317.57812 345.0594Q317.29688 344.73126 316.89062 344.73126Q316.45312 344.73126 316.15625 345.075Q315.875 345.40314 315.875 346.16876ZM321.78125 342.85626L324.375 342.85626L324.375 343.52814Q324.5625 343.29376 325.10938 343.0125Q325.65625 342.71564 326.4375 342.71564Q327.51562 342.71564 328.125 343.35626Q328.73438 343.9969 328.73438 345.3094L328.73438 349.45L325.96875 349.45L325.96875 345.84064Q325.96875 345.325 325.79688 345.1375Q325.64062 344.95 325.32812 344.95Q324.98438 344.95 324.76562 345.21564Q324.54688 345.48126 324.54688 346.27814L324.54688 349.45L321.78125 349.45L321.78125 342.85626ZM329.6875 347.3719L332.42188 347.10626Q332.59375 347.60626 332.8125 347.7625Q333.03125 347.91876 333.40625 347.91876Q333.82812 347.91876 334.04688 347.7469Q334.17188 347.65314 334.17188 347.5125Q334.17188 347.3719 333.98438 347.29376Q333.82812 347.1844 333.03125 347.0594Q331.76562 346.84064 331.23438 346.6375Q330.71875 346.4344 330.35938 345.95Q330.0 345.46564 330.0 344.84064Q330.0 344.16876 330.39062 343.6844Q330.79688 343.1844 331.45312 342.95Q332.125 342.71564 333.21875 342.71564Q334.35938 342.71564 334.92188 342.8875Q335.48438 343.0594 335.85938 343.45Q336.25 343.84064 336.59375 344.71564L333.92188 344.98126Q333.82812 344.59064 333.67188 344.4969Q333.4375 344.34064 333.09375 344.34064Q332.75 344.34064 332.625 344.45Q332.51562 344.54376 332.51562 344.65314Q332.51562 344.7625 332.64062 344.825Q332.84375 344.91876 333.59375 345.0125Q334.8125 345.15314 335.42188 345.41876Q336.04688 345.66876 336.39062 346.16876Q336.73438 346.65314 336.73438 347.2469Q336.73438 347.825 336.375 348.40314Q336.01562 348.96564 335.26562 349.27814Q334.51562 349.59064 333.28125 349.59064Q331.51562 349.59064 330.73438 349.075Q329.95312 348.54376 329.6875 347.3719ZM344.8125 346.9344L340.04688 346.9344Q340.09375 347.23126 340.29688 347.46564Q340.59375 347.8094 341.0625 347.8094Q341.35938 347.8094 341.64062 347.65314Q341.79688 347.575 342.0625 347.23126L344.8125 347.4969Q344.09375 348.73126 343.28125 349.16876Q342.48438 349.59064 341.01562 349.59064Q339.71875 349.59064 338.96875 349.21564Q338.23438 348.84064 337.73438 348.04376Q337.23438 347.23126 337.23438 346.16876Q337.23438 344.6219 338.21875 343.66876Q339.21875 342.71564 340.9375 342.71564Q342.32812 342.71564 343.14062 343.1375Q343.96875 343.5594 344.39062 344.3875Q344.8125 345.2 344.8125 346.46564L344.8125 346.9344ZM342.0 345.41876Q341.95312 344.98126 341.70312 344.7469Q341.45312 344.4969 341.03125 344.4969Q340.5625 344.4969 340.28125 344.8719Q340.09375 345.1219 340.0625 345.41876L342.0 345.41876ZM345.9375 342.85626L348.54688 342.85626L348.54688 343.23126Q348.51562 343.27814 348.90625 342.9969Q349.29688 342.71564 349.85938 342.71564Q350.4375 342.71564 351.25 343.15314L350.375 345.16876Q349.82812 344.9344 349.60938 344.9344Q349.25 344.9344 349.04688 345.2469Q348.70312 345.7469 348.70312 347.16876L348.70312 349.45L345.9375 349.45L345.9375 342.85626ZM350.48438 342.85626L353.39062 342.85626L354.45312 346.35626L355.5625 342.85626L358.39062 342.85626L355.59375 349.45L353.23438 349.45L350.48438 342.85626ZM361.14062 345.2625L358.5 344.96564Q358.70312 344.1375 358.96875 343.7625Q359.23438 343.3875 359.71875 343.1219Q360.07812 342.91876 360.67188 342.825Q361.28125 342.71564 361.95312 342.71564Q363.04688 342.71564 363.71875 342.84064Q364.40625 342.96564 364.89062 343.3719Q365.21875 343.66876 365.40625 344.2Q365.60938 344.71564 365.60938 345.1844L365.60938 347.9344Q365.60938 348.35626 365.65625 348.59064Q365.70312 348.8094 366.01562 349.45L363.375 349.45Q363.17188 349.10626 363.125 348.96564Q363.07812 348.8094 363.125 348.77814Q362.85938 349.10626 362.375 349.3094Q361.6875 349.59064 360.82812 349.59064Q359.625 349.59064 358.98438 349.02814Q358.35938 348.45 358.35938 347.6219Q358.35938 346.825 358.82812 346.325Q359.29688 345.825 360.46875 345.575Q361.79688 345.3094 362.1875 345.21564Q362.57812 345.10626 362.90625 344.98126Q362.90625 344.7469 362.76562 344.6219Q362.64062 344.4969 362.26562 344.4969Q361.73438 344.4969 361.5 344.65314Q361.3125 344.77814 361.14062 345.2625ZM362.90625 346.575Q362.64062 346.65314 362.10938 346.8094Q361.4375 346.98126 361.26562 347.1375Q361.125 347.27814 361.125 347.4344Q361.125 347.6375 361.26562 347.7625Q361.42188 347.8875 361.71875 347.8875Q362.0625 347.8875 362.35938 347.71564Q362.65625 347.54376 362.78125 347.325Q362.90625 347.09064 362.90625 346.6844L362.90625 346.575ZM370.28125 340.35626L370.28125 342.85626L371.59375 342.85626L371.59375 344.96564L370.28125 344.96564L370.28125 346.98126Q370.28125 347.34064 370.32812 347.41876Q370.40625 347.52814 370.57812 347.52814Q370.8125 347.52814 371.48438 347.3094L371.70312 349.3719Q370.625 349.59064 369.84375 349.59064Q368.90625 349.59064 368.4375 349.34064Q367.96875 349.09064 367.73438 348.575Q367.51562 348.04376 367.51562 346.96564L367.51562 344.96564L366.64062 344.96564L366.64062 342.85626L367.51562 342.85626L367.51562 341.79376L370.28125 340.35626ZM372.5 340.48126L375.25 340.48126L375.25 342.48126L372.5 342.48126L372.5 340.48126ZM372.5 342.85626L375.25 342.85626L375.25 349.45L372.5 349.45L372.5 342.85626ZM375.98438 342.85626L378.89062 342.85626L379.95312 346.35626L381.0625 342.85626L383.89062 342.85626L381.09375 349.45L378.73438 349.45L375.98438 342.85626ZM391.4375 346.9344L386.67188 346.9344Q386.71875 347.23126 386.92188 347.46564Q387.21875 347.8094 387.6875 347.8094Q387.98438 347.8094 388.26562 347.65314Q388.42188 347.575 388.6875 347.23126L391.4375 347.4969Q390.71875 348.73126 389.90625 349.16876Q389.10938 349.59064 387.64062 349.59064Q386.34375 349.59064 385.59375 349.21564Q384.85938 348.84064 384.35938 348.04376Q383.85938 347.23126 383.85938 346.16876Q383.85938 344.6219 384.84375 343.66876Q385.84375 342.71564 387.5625 342.71564Q388.95312 342.71564 389.76562 343.1375Q390.59375 343.5594 391.01562 344.3875Q391.4375 345.2 391.4375 346.46564L391.4375 346.9344ZM388.625 345.41876Q388.57812 344.98126 388.32812 344.7469Q388.07812 344.4969 387.65625 344.4969Q387.1875 344.4969 386.90625 344.8719Q386.71875 345.1219 386.6875 345.41876L388.625 345.41876Z" fill-rule="nonzero"/><path fill="#ff0000" d="M407.8125 340.45C407.8125 339.8977 408.26022 339.45 408.8125 339.45L418.8125 339.45C419.36478 339.45 419.8125 339.8977 419.8125 340.45L419.8125 350.45C419.8125 351.0023 419.36478 351.45 418.8125 351.45L408.8125 351.45C408.26022 351.45 407.8125 351.0023 407.8125 350.45Z" fill-rule="nonzero"/><path fill="#000000" d="M428.21875 346.2469L431.09375 346.0594Q431.20312 346.79376 431.42188 347.09064Q431.78125 347.52814 432.45312 347.52814Q432.95312 347.52814 433.1875 347.325Q433.4375 347.10626 433.4375 346.84064Q433.4375 346.575 433.21875 346.3719Q432.96875 346.15314 431.9375 345.9344Q430.14062 345.5125 429.35938 344.84064Q428.54688 344.1219 428.54688 343.04376Q428.54688 342.3094 428.95312 341.6844Q429.375 341.04376 430.1875 340.7Q431.01562 340.34064 432.39062 340.34064Q434.09375 340.34064 435.01562 340.9969Q435.9375 341.6375 436.125 343.2625L433.26562 343.4344Q433.15625 342.7469 432.89062 342.52814Q432.625 342.3094 432.125 342.3094Q431.71875 342.3094 431.54688 342.46564Q431.375 342.60626 431.375 342.79376Q431.375 342.90314 431.51562 343.02814Q431.67188 343.16876 432.3125 343.29376Q434.07812 343.6844 434.875 344.09064Q435.67188 344.48126 436.03125 345.10626Q436.39062 345.71564 436.39062 346.46564Q436.39062 347.35626 435.90625 348.10626Q435.42188 348.84064 434.5625 349.21564Q433.70312 349.59064 432.40625 349.59064Q430.14062 349.59064 429.23438 348.7Q428.34375 347.79376 428.21875 346.2469ZM440.39062 345.2625L437.75 344.96564Q437.95312 344.1375 438.21875 343.7625Q438.48438 343.3875 438.96875 343.1219Q439.32812 342.91876 439.92188 342.825Q440.53125 342.71564 441.20312 342.71564Q442.29688 342.71564 442.96875 342.84064Q443.65625 342.96564 444.14062 343.3719Q444.46875 343.66876 444.65625 344.2Q444.85938 344.71564 444.85938 345.1844L444.85938 347.9344Q444.85938 348.35626 444.90625 348.59064Q444.95312 348.8094 445.26562 349.45L442.625 349.45Q442.42188 349.10626 442.375 348.96564Q442.32812 348.8094 442.375 348.77814Q442.10938 349.10626 441.625 349.3094Q440.9375 349.59064 440.07812 349.59064Q438.875 349.59064 438.23438 349.02814Q437.60938 348.45 437.60938 347.6219Q437.60938 346.825 438.07812 346.325Q438.54688 345.825 439.71875 345.575Q441.04688 345.3094 441.4375 345.21564Q441.82812 345.10626 442.15625 344.98126Q442.15625 344.7469 442.01562 344.6219Q441.89062 344.4969 441.51562 344.4969Q440.98438 344.4969 440.75 344.65314Q440.5625 344.77814 440.39062 345.2625ZM442.15625 346.575Q441.89062 346.65314 441.35938 346.8094Q440.6875 346.98126 440.51562 347.1375Q440.375 347.27814 440.375 347.4344Q440.375 347.6375 440.51562 347.7625Q440.67188 347.8875 440.96875 347.8875Q441.3125 347.8875 441.60938 347.71564Q441.90625 347.54376 442.03125 347.325Q442.15625 347.09064 442.15625 346.6844L442.15625 346.575ZM446.29688 342.85626L448.90625 342.85626L448.90625 343.4344Q449.07812 343.21564 449.59375 342.96564Q450.125 342.71564 450.85938 342.71564Q451.65625 342.71564 452.14062 342.9969Q452.625 343.27814 452.79688 343.6219Q453.20312 343.1844 453.6875 342.95Q454.1875 342.71564 454.92188 342.71564Q456.0 342.71564 456.60938 343.3719Q457.23438 344.0125 457.23438 345.35626L457.23438 349.45L454.46875 349.45L454.46875 345.71564Q454.46875 345.35626 454.34375 345.2Q454.15625 344.95 453.89062 344.95Q453.5625 344.95 453.34375 345.2Q453.14062 345.4344 453.14062 346.04376L453.14062 349.45L450.375 349.45L450.375 345.84064Q450.375 345.45 450.34375 345.34064Q450.28125 345.15314 450.14062 345.0594Q450.0 344.95 449.8125 344.95Q449.48438 344.95 449.26562 345.2Q449.0625 345.4344 449.0625 346.09064L449.0625 349.45L446.29688 349.45L446.29688 342.85626ZM465.90625 340.35626L465.90625 342.85626L467.21875 342.85626L467.21875 344.96564L465.90625 344.96564L465.90625 346.98126Q465.90625 347.34064 465.95312 347.41876Q466.03125 347.52814 466.20312 347.52814Q466.4375 347.52814 467.10938 347.3094L467.32812 349.3719Q466.25 349.59064 465.46875 349.59064Q464.53125 349.59064 464.0625 349.34064Q463.59375 349.09064 463.35938 348.575Q463.14062 348.04376 463.14062 346.96564L463.14062 344.96564L462.26562 344.96564L462.26562 342.85626L463.14062 342.85626L463.14062 341.79376L465.90625 340.35626ZM468.03125 340.48126L470.79688 340.48126L470.79688 343.3719Q470.98438 343.16876 471.48438 342.95Q472.0 342.71564 472.70312 342.71564Q473.76562 342.71564 474.375 343.35626Q474.98438 343.9969 474.98438 345.3094L474.98438 349.45L472.21875 349.45L472.21875 345.84064Q472.21875 345.325 472.04688 345.1375Q471.89062 344.95 471.57812 344.95Q471.23438 344.95 471.01562 345.21564Q470.79688 345.48126 470.79688 346.27814L470.79688 349.45L468.03125 349.45L468.03125 340.48126ZM483.6875 346.9344L478.92188 346.9344Q478.96875 347.23126 479.17188 347.46564Q479.46875 347.8094 479.9375 347.8094Q480.23438 347.8094 480.51562 347.65314Q480.67188 347.575 480.9375 347.23126L483.6875 347.4969Q482.96875 348.73126 482.15625 349.16876Q481.35938 349.59064 479.89062 349.59064Q478.59375 349.59064 477.84375 349.21564Q477.10938 348.84064 476.60938 348.04376Q476.10938 347.23126 476.10938 346.16876Q476.10938 344.6219 477.09375 343.66876Q478.09375 342.71564 479.8125 342.71564Q481.20312 342.71564 482.01562 343.1375Q482.84375 343.5594 483.26562 344.3875Q483.6875 345.2 483.6875 346.46564L483.6875 346.9344ZM480.875 345.41876Q480.82812 344.98126 480.57812 344.7469Q480.32812 344.4969 479.90625 344.4969Q479.4375 344.4969 479.15625 344.8719Q478.96875 345.1219 478.9375 345.41876L480.875 345.41876ZM488.46875 346.2469L491.34375 346.0594Q491.45312 346.79376 491.67188 347.09064Q492.03125 347.52814 492.70312 347.52814Q493.20312 347.52814 493.4375 347.325Q493.6875 347.10626 493.6875 346.84064Q493.6875 346.575 493.46875 346.3719Q493.21875 346.15314 492.1875 345.9344Q490.39062 345.5125 489.60938 344.84064Q488.79688 344.1219 488.79688 343.04376Q488.79688 342.3094 489.20312 341.6844Q489.625 341.04376 490.4375 340.7Q491.26562 340.34064 492.64062 340.34064Q494.34375 340.34064 495.26562 340.9969Q496.1875 341.6375 496.375 343.2625L493.51562 343.4344Q493.40625 342.7469 493.14062 342.52814Q492.875 342.3094 492.375 342.3094Q491.96875 342.3094 491.79688 342.46564Q491.625 342.60626 491.625 342.79376Q491.625 342.90314 491.76562 343.02814Q491.92188 343.16876 492.5625 343.29376Q494.32812 343.6844 495.125 344.09064Q495.92188 344.48126 496.28125 345.10626Q496.64062 345.71564 496.64062 346.46564Q496.64062 347.35626 496.15625 348.10626Q495.67188 348.84064 494.8125 349.21564Q493.95312 349.59064 492.65625 349.59064Q490.39062 349.59064 489.48438 348.7Q488.59375 347.79376 488.46875 346.2469ZM497.85938 346.16876Q497.85938 344.66876 498.875 343.7Q499.89062 342.71564 501.60938 342.71564Q503.5625 342.71564 504.57812 343.85626Q505.39062 344.77814 505.39062 346.1375Q505.39062 347.65314 504.375 348.6219Q503.375 349.59064 501.60938 349.59064Q500.04688 349.59064 499.0625 348.77814Q497.85938 347.79376 497.85938 346.16876ZM500.625 346.16876Q500.625 346.9344 500.90625 347.27814Q501.20312 347.60626 501.625 347.60626Q502.04688 347.60626 502.32812 347.27814Q502.625 346.95 502.625 346.1375Q502.625 345.3875 502.32812 345.0594Q502.04688 344.73126 501.64062 344.73126Q501.20312 344.73126 500.90625 345.075Q500.625 345.40314 500.625 346.16876ZM511.23438 346.6219L513.8594 346.9344Q513.6094 347.8875 513.15625 348.45Q512.7031 348.9969 511.98438 349.29376Q511.28125 349.59064 510.23438 349.59064Q509.20312 349.59064 508.51562 349.40314Q507.82812 349.21564 507.3125 348.77814Q506.8125 348.325 506.53125 347.7469Q506.25 347.15314 506.25 346.1844Q506.25 345.16876 506.59375 344.4969Q506.84375 343.9969 507.28125 343.60626Q507.73438 343.21564 508.20312 343.0125Q508.9375 342.71564 510.0625 342.71564Q511.64062 342.71564 512.4844 343.29376Q513.34375 343.85626 513.7344 345.2L511.125 345.54376Q511.0 345.04376 510.76562 344.8875Q510.53125 344.71564 510.125 344.71564Q509.64062 344.71564 509.3125 345.09064Q509.0 345.45 509.0 346.2469Q509.0 346.9344 509.29688 347.27814Q509.60938 347.6219 510.09375 347.6219Q510.5 347.6219 510.76562 347.41876Q511.04688 347.21564 511.23438 346.6219ZM515.0 340.48126L517.75 340.48126L517.75 342.48126L515.0 342.48126L515.0 340.48126ZM515.0 342.85626L517.75 342.85626L517.75 349.45L515.0 349.45L515.0 342.85626ZM521.7656 345.2625L519.125 344.96564Q519.3281 344.1375 519.59375 343.7625Q519.8594 343.3875 520.34375 343.1219Q520.7031 342.91876 521.2969 342.825Q521.90625 342.71564 522.5781 342.71564Q523.6719 342.71564 524.34375 342.84064Q525.03125 342.96564 525.5156 343.3719Q525.84375 343.66876 526.03125 344.2Q526.2344 344.71564 526.2344 345.1844L526.2344 347.9344Q526.2344 348.35626 526.28125 348.59064Q526.3281 348.8094 526.6406 349.45L524.0 349.45Q523.7969 349.10626 523.75 348.96564Q523.7031 348.8094 523.75 348.77814Q523.4844 349.10626 523.0 349.3094Q522.3125 349.59064 521.4531 349.59064Q520.25 349.59064 519.6094 349.02814Q518.9844 348.45 518.9844 347.6219Q518.9844 346.825 519.4531 346.325Q519.9219 345.825 521.09375 345.575Q522.4219 345.3094 522.8125 345.21564Q523.2031 345.10626 523.53125 344.98126Q523.53125 344.7469 523.3906 344.6219Q523.2656 344.4969 522.8906 344.4969Q522.3594 344.4969 522.125 344.65314Q521.9375 344.77814 521.7656 345.2625ZM523.53125 346.575Q523.2656 346.65314 522.7344 346.8094Q522.0625 346.98126 521.8906 347.1375Q521.75 347.27814 521.75 347.4344Q521.75 347.6375 521.8906 347.7625Q522.0469 347.8875 522.34375 347.8875Q522.6875 347.8875 522.9844 347.71564Q523.28125 347.54376 523.40625 347.325Q523.53125 347.09064 523.53125 346.6844L523.53125 346.575ZM527.7344 340.48126L530.5 340.48126L530.5 349.45L527.7344 349.45L527.7344 340.48126ZM532.125 340.48126L534.875 340.48126L534.875 342.48126L532.125 342.48126L532.125 340.48126ZM532.125 342.85626L534.875 342.85626L534.875 349.45L532.125 349.45L532.125 342.85626ZM535.9375 347.3719L538.6719 347.10626Q538.84375 347.60626 539.0625 347.7625Q539.28125 347.91876 539.65625 347.91876Q540.0781 347.91876 540.2969 347.7469Q540.4219 347.65314 540.4219 347.5125Q540.4219 347.3719 540.2344 347.29376Q540.0781 347.1844 539.28125 347.0594Q538.0156 346.84064 537.4844 346.6375Q536.96875 346.4344 536.6094 345.95Q536.25 345.46564 536.25 344.84064Q536.25 344.16876 536.6406 343.6844Q537.0469 343.1844 537.7031 342.95Q538.375 342.71564 539.46875 342.71564Q540.6094 342.71564 541.1719 342.8875Q541.7344 343.0594 542.1094 343.45Q542.5 343.84064 542.84375 344.71564L540.1719 344.98126Q540.0781 344.59064 539.9219 344.4969Q539.6875 344.34064 539.34375 344.34064Q539.0 344.34064 538.875 344.45Q538.7656 344.54376 538.7656 344.65314Q538.7656 344.7625 538.8906 344.825Q539.09375 344.91876 539.84375 345.0125Q541.0625 345.15314 541.6719 345.41876Q542.2969 345.66876 542.6406 346.16876Q542.9844 346.65314 542.9844 347.2469Q542.9844 347.825 542.625 348.40314Q542.2656 348.96564 541.5156 349.27814Q540.7656 349.59064 539.53125 349.59064Q537.7656 349.59064 536.9844 349.075Q536.2031 348.54376 535.9375 347.3719ZM547.03125 340.35626L547.03125 342.85626L548.34375 342.85626L548.34375 344.96564L547.03125 344.96564L547.03125 346.98126Q547.03125 347.34064 547.0781 347.41876Q547.15625 347.52814 547.3281 347.52814Q547.5625 347.52814 548.2344 347.3094L548.4531 349.3719Q547.375 349.59064 546.59375 349.59064Q545.65625 349.59064 545.1875 349.34064Q544.71875 349.09064 544.4844 348.575Q544.2656 348.04376 544.2656 346.96564L544.2656 344.96564L543.3906 344.96564L543.3906 342.85626L544.2656 342.85626L544.2656 341.79376L547.03125 340.35626Z" fill-rule="nonzero"/><path fill="#34a853" d="M564.4375 340.45C564.4375 339.8977 564.8852 339.45 565.4375 339.45L575.4375 339.45C575.9898 339.45 576.4375 339.8977 576.4375 340.45L576.4375 350.45C576.4375 351.0023 575.9898 351.45 575.4375 351.45L565.4375 351.45C564.8852 351.45 564.4375 351.0023 564.4375 350.45Z" fill-rule="nonzero"/><path fill="#000000" d="M585.3594 349.45L585.3594 340.48126L589.96875 340.48126Q591.21875 340.48126 591.9219 340.71564Q592.625 340.9344 593.0469 341.5594Q593.4844 342.16876 593.4844 343.0594Q593.4844 343.825 593.15625 344.3875Q592.8281 344.95 592.25 345.29376Q591.875 345.5125 591.7344 345.4969Q591.78125 345.45 592.0156 345.6375Q592.1875 345.7469 592.46875 346.1219Q592.7656 346.4969 592.875 346.7L594.2969 349.45L590.875 349.45L589.40625 346.73126Q589.15625 346.2469 588.9844 346.1375Q588.7344 345.96564 588.4375 345.96564L588.3906 345.96564L588.3906 349.45L585.3594 349.45ZM588.3906 343.96564L589.3281 343.96564Q589.4844 343.96564 590.0 343.84064Q590.1875 343.8094 590.3125 343.65314Q590.4375 343.48126 590.4375 343.2625Q590.4375 342.95 590.2344 342.77814Q590.03125 342.59064 589.375 342.59064L588.3906 342.59064L588.3906 343.96564ZM594.2344 346.16876Q594.2344 344.66876 595.25 343.7Q596.2656 342.71564 597.9844 342.71564Q599.9375 342.71564 600.9531 343.85626Q601.7656 344.77814 601.7656 346.1375Q601.7656 347.65314 600.75 348.6219Q599.75 349.59064 597.9844 349.59064Q596.4219 349.59064 595.4375 348.77814Q594.2344 347.79376 594.2344 346.16876ZM597.0 346.16876Q597.0 346.9344 597.28125 347.27814Q597.5781 347.60626 598.0 347.60626Q598.4219 347.60626 598.7031 347.27814Q599.0 346.95 599.0 346.1375Q599.0 345.3875 598.7031 345.0594Q598.4219 344.73126 598.0156 344.73126Q597.5781 344.73126 597.28125 345.075Q597.0 345.40314 597.0 346.16876ZM602.90625 342.85626L605.5 342.85626L605.5 343.52814Q605.6875 343.29376 606.2344 343.0125Q606.78125 342.71564 607.5625 342.71564Q608.6406 342.71564 609.25 343.35626Q609.8594 343.9969 609.8594 345.3094L609.8594 349.45L607.09375 349.45L607.09375 345.84064Q607.09375 345.325 606.9219 345.1375Q606.7656 344.95 606.4531 344.95Q606.1094 344.95 605.8906 345.21564Q605.6719 345.48126 605.6719 346.27814L605.6719 349.45L602.90625 349.45L602.90625 342.85626ZM613.7656 345.2625L611.125 344.96564Q611.3281 344.1375 611.59375 343.7625Q611.8594 343.3875 612.34375 343.1219Q612.7031 342.91876 613.2969 342.825Q613.90625 342.71564 614.5781 342.71564Q615.6719 342.71564 616.34375 342.84064Q617.03125 342.96564 617.5156 343.3719Q617.84375 343.66876 618.03125 344.2Q618.2344 344.71564 618.2344 345.1844L618.2344 347.9344Q618.2344 348.35626 618.28125 348.59064Q618.3281 348.8094 618.6406 349.45L616.0 349.45Q615.7969 349.10626 615.75 348.96564Q615.7031 348.8094 615.75 348.77814Q615.4844 349.10626 615.0 349.3094Q614.3125 349.59064 613.4531 349.59064Q612.25 349.59064 611.6094 349.02814Q610.9844 348.45 610.9844 347.6219Q610.9844 346.825 611.4531 346.325Q611.9219 345.825 613.09375 345.575Q614.4219 345.3094 614.8125 345.21564Q615.2031 345.10626 615.53125 344.98126Q615.53125 344.7469 615.3906 344.6219Q615.2656 344.4969 614.8906 344.4969Q614.3594 344.4969 614.125 344.65314Q613.9375 344.77814 613.7656 345.2625ZM615.53125 346.575Q615.2656 346.65314 614.7344 346.8094Q614.0625 346.98126 613.8906 347.1375Q613.75 347.27814 613.75 347.4344Q613.75 347.6375 613.8906 347.7625Q614.0469 347.8875 614.34375 347.8875Q614.6875 347.8875 614.9844 347.71564Q615.28125 347.54376 615.40625 347.325Q615.53125 347.09064 615.53125 346.6844L615.53125 346.575ZM619.7344 340.48126L622.5 340.48126L622.5 349.45L619.7344 349.45L619.7344 340.48126ZM630.9531 340.48126L630.9531 349.45L628.3594 349.45L628.3594 348.8875Q628.2031 349.075 627.78125 349.3094Q627.21875 349.59064 626.53125 349.59064Q625.1719 349.59064 624.4531 348.5594Q623.7344 347.52814 623.7344 346.09064Q623.7344 344.46564 624.53125 343.59064Q625.3281 342.71564 626.5469 342.71564Q627.1406 342.71564 627.625 342.91876Q628.125 343.1219 628.1719 343.16876L628.1719 340.48126L630.9531 340.48126ZM628.1875 346.1375Q628.1875 345.46564 627.9219 345.16876Q627.6719 344.8719 627.28125 344.8719Q626.96875 344.8719 626.7344 345.15314Q626.5 345.4344 626.5 346.1844Q626.5 346.8875 626.7344 347.1844Q626.9844 347.46564 627.3125 347.46564Q627.6719 347.46564 627.9219 347.16876Q628.1875 346.8719 628.1875 346.1375ZM636.6094 349.45L636.6094 340.48126L641.21875 340.48126Q642.46875 340.48126 643.1719 340.71564Q643.875 340.9344 644.2969 341.5594Q644.7344 342.16876 644.7344 343.0594Q644.7344 343.825 644.40625 344.3875Q644.0781 344.95 643.5 345.29376Q643.125 345.5125 642.9844 345.4969Q643.03125 345.45 643.2656 345.6375Q643.4375 345.7469 643.71875 346.1219Q644.0156 346.4969 644.125 346.7L645.5469 349.45L642.125 349.45L640.65625 346.73126Q640.40625 346.2469 640.2344 346.1375Q639.9844 345.96564 639.6875 345.96564L639.6406 345.96564L639.6406 349.45L636.6094 349.45ZM639.6406 343.96564L640.5781 343.96564Q640.7344 343.96564 641.25 343.84064Q641.4375 343.8094 641.5625 343.65314Q641.6875 343.48126 641.6875 343.2625Q641.6875 342.95 641.4844 342.77814Q641.28125 342.59064 640.625 342.59064L639.6406 342.59064L639.6406 343.96564ZM645.875 340.48126L648.625 340.48126L648.625 342.48126L645.875 342.48126L645.875 340.48126ZM645.875 342.85626L648.625 342.85626L648.625 349.45L645.875 349.45L645.875 342.85626ZM654.4844 342.85626L657.09375 342.85626L657.09375 348.91876L657.1094 349.1844Q657.1094 349.825 656.84375 350.3875Q656.5781 350.96564 656.125 351.3094Q655.6719 351.66876 655.0 351.825Q654.3281 351.98126 653.5 351.98126Q651.5625 351.98126 650.7969 351.3719Q650.03125 350.7625 650.03125 349.71564Q650.03125 349.60626 650.0625 349.2L652.6875 349.4969Q652.7969 349.8719 652.9219 349.95Q653.1406 350.10626 653.4844 350.10626Q653.9219 350.10626 654.1094 349.8875Q654.3125 349.66876 654.3125 349.0594L654.3125 348.6375Q654.28125 348.66876 653.8906 348.8875Q653.2969 349.2 652.6094 349.2Q651.2656 349.2 650.4375 348.02814Q649.8594 347.21564 649.8594 345.8719Q649.8594 344.34064 650.6094 343.52814Q651.375 342.71564 652.59375 342.71564Q653.375 342.71564 653.875 342.98126Q654.3906 343.2469 654.4844 343.3719L654.4844 342.85626ZM652.625 346.0594Q652.625 346.66876 652.8594 346.9344Q653.09375 347.2 653.46875 347.2Q653.84375 347.2 654.09375 346.91876Q654.34375 346.6219 654.34375 346.02814Q654.34375 345.41876 654.0781 345.1219Q653.8125 344.8094 653.4375 344.8094Q653.0781 344.8094 652.84375 345.09064Q652.625 345.35626 652.625 346.0594ZM658.53125 340.48126L661.2969 340.48126L661.2969 343.3719Q661.4844 343.16876 661.9844 342.95Q662.5 342.71564 663.2031 342.71564Q664.2656 342.71564 664.875 343.35626Q665.4844 343.9969 665.4844 345.3094L665.4844 349.45L662.71875 349.45L662.71875 345.84064Q662.71875 345.325 662.5469 345.1375Q662.3906 344.95 662.0781 344.95Q661.7344 344.95 661.5156 345.21564Q661.2969 345.48126 661.2969 346.27814L661.2969 349.45L658.53125 349.45L658.53125 340.48126ZM670.15625 340.35626L670.15625 342.85626L671.46875 342.85626L671.46875 344.96564L670.15625 344.96564L670.15625 346.98126Q670.15625 347.34064 670.2031 347.41876Q670.28125 347.52814 670.4531 347.52814Q670.6875 347.52814 671.3594 347.3094L671.5781 349.3719Q670.5 349.59064 669.71875 349.59064Q668.78125 349.59064 668.3125 349.34064Q667.84375 349.09064 667.6094 348.575Q667.3906 348.04376 667.3906 346.96564L667.3906 344.96564L666.5156 344.96564L666.5156 342.85626L667.3906 342.85626L667.3906 341.79376L670.15625 340.35626ZM671.8281 345.0125L675.6719 345.0125L675.6719 347.2469L671.8281 347.2469L671.8281 345.0125ZM675.8906 340.48126L678.7969 340.48126L679.5781 344.6375L680.7344 340.48126L683.53125 340.48126L684.6875 344.6375L685.46875 340.48126L688.3594 340.48126L686.3906 349.45L683.5 349.45L682.125 344.5594L680.7656 349.45L677.875 349.45L675.8906 340.48126ZM689.125 340.48126L691.875 340.48126L691.875 342.48126L689.125 342.48126L689.125 340.48126ZM689.125 342.85626L691.875 342.85626L691.875 349.45L689.125 349.45L689.125 342.85626ZM693.40625 342.85626L696.0 342.85626L696.0 343.52814Q696.1875 343.29376 696.7344 343.0125Q697.28125 342.71564 698.0625 342.71564Q699.1406 342.71564 699.75 343.35626Q700.3594 343.9969 700.3594 345.3094L700.3594 349.45L697.59375 349.45L697.59375 345.84064Q697.59375 345.325 697.4219 345.1375Q697.2656 344.95 696.9531 344.95Q696.6094 344.95 696.3906 345.21564Q696.1719 345.48126 696.1719 346.27814L696.1719 349.45L693.40625 349.45L693.40625 342.85626ZM706.1094 342.85626L708.71875 342.85626L708.71875 348.91876L708.7344 349.1844Q708.7344 349.825 708.46875 350.3875Q708.2031 350.96564 707.75 351.3094Q707.2969 351.66876 706.625 351.825Q705.9531 351.98126 705.125 351.98126Q703.1875 351.98126 702.4219 351.3719Q701.65625 350.7625 701.65625 349.71564Q701.65625 349.60626 701.6875 349.2L704.3125 349.4969Q704.4219 349.8719 704.5469 349.95Q704.7656 350.10626 705.1094 350.10626Q705.5469 350.10626 705.7344 349.8875Q705.9375 349.66876 705.9375 349.0594L705.9375 348.6375Q705.90625 348.66876 705.5156 348.8875Q704.9219 349.2 704.2344 349.2Q702.8906 349.2 702.0625 348.02814Q701.4844 347.21564 701.4844 345.8719Q701.4844 344.34064 702.2344 343.52814Q703.0 342.71564 704.21875 342.71564Q705.0 342.71564 705.5 342.98126Q706.0156 343.2469 706.1094 343.3719L706.1094 342.85626ZM704.25 346.0594Q704.25 346.66876 704.4844 346.9344Q704.71875 347.2 705.09375 347.2Q705.46875 347.2 705.71875 346.91876Q705.96875 346.6219 705.96875 346.02814Q705.96875 345.41876 705.7031 345.1219Q705.4375 344.8094 705.0625 344.8094Q704.7031 344.8094 704.46875 345.09064Q704.25 345.35626 704.25 346.0594Z" fill-rule="nonzero"/></svg>