<svg version="1.1" viewBox="0.0 0.0 755.0 371.0" fill="none" stroke="none" stroke-linecap="square" stroke-miterlimit="10" width="755" height="371" xmlns:xlink="http://www.w3.org/1999/xlink" xmlns="http://www.w3.org/2000/svg"><path fill="#ffffff" fill-opacity="0.0" d="M0 0L755.0 0L755.0 371.0L0 371.0L0 0Z" fill-rule="nonzero"/><clipPath id="id_0"><path d="M52.55 25.55L736.45 25.55L736.45 306.08334L52.55 306.08334L52.55 25.55Z" clip-rule="nonzero"/></clipPath><path stroke="#000000" stroke-width="2.0" stroke-linecap="butt" stroke-opacity="0.0" clip-path="url(#id_0)" d="M312.0 306.0L232.0 306.0L232.0 105.0C232.0 103.89543 232.89543 103.0 234.0 103.0L310.0 103.0C311.10458 103.0 312.0 103.89543 312.0 105.0Z" fill-rule="nonzero"/><path fill="#f1c232" clip-path="url(#id_0)" d="M312.0 306.0L232.0 306.0L232.0 105.0C232.0 103.89543 232.89543 103.0 234.0 103.0L310.0 103.0C311.10458 103.0 312.0 103.89543 312.0 105.0Z" fill-rule="nonzero"/><path stroke="#000000" stroke-width="2.0" stroke-linecap="butt" stroke-opacity="0.0" clip-path="url(#id_0)" d="M394.0 306.0L314.0 306.0L314.0 63.0C314.0 61.89543 314.89542 61.0 316.0 61.0L392.0 61.0C393.10458 61.0 394.0 61.89543 394.0 63.0Z" fill-rule="nonzero"/><path fill="#a4c2f4" clip-path="url(#id_0)" d="M394.0 306.0L314.0 306.0L314.0 63.0C314.0 61.89543 314.89542 61.0 316.0 61.0L392.0 61.0C393.10458 61.0 394.0 61.89543 394.0 63.0Z" fill-rule="nonzero"/><path stroke="#000000" stroke-width="2.0" stroke-linecap="butt" stroke-opacity="0.0" clip-path="url(#id_0)" d="M476.0 306.0L396.0 306.0L396.0 140.0C396.0 138.89543 396.89542 138.0 398.0 138.0L474.0 138.0C475.10458 138.0 476.0 138.89543 476.0 140.0Z" fill-rule="nonzero"/><path fill="#ff0000" clip-path="url(#id_0)" d="M476.0 306.0L396.0 306.0L396.0 140.0C396.0 138.89543 396.89542 138.0 398.0 138.0L474.0 138.0C475.10458 138.0 476.0 138.89543 476.0 140.0Z" fill-rule="nonzero"/><path stroke="#000000" stroke-width="2.0" stroke-linecap="butt" stroke-opacity="0.0" clip-path="url(#id_0)" d="M558.0 306.0L478.0 306.0L478.0 224.0C478.0 222.89543 478.89542 222.0 480.0 222.0L556.0 222.0C557.10455 222.0 558.0 222.89543 558.0 224.0Z" fill-rule="nonzero"/><path fill="#34a853" clip-path="url(#id_0)" d="M558.0 306.0L478.0 306.0L478.0 224.0C478.0 222.89543 478.89542 222.0 480.0 222.0L556.0 222.0C557.10455 222.0 558.0 222.89543 558.0 224.0Z" fill-rule="nonzero"/><path fill="#000000" d="M27.05 305.75522Q27.05 303.3021 27.925 302.33334Q28.8 301.34897 30.6125 301.34897Q31.471874 301.34897 32.034374 301.56772Q32.596874 301.77084 32.940624 302.1146Q33.3 302.45834 33.503124 302.83334Q33.70625 303.20834 33.815624 303.72397Q34.065624 304.6771 34.065624 305.72397Q34.065624 308.06772 33.26875 309.14584Q32.4875 310.22397 30.55 310.22397Q29.45625 310.22397 28.784374 309.88022Q28.128124 309.53647 27.70625 308.8646Q27.39375 308.39584 27.221874 307.58334Q27.05 306.75522 27.05 305.75522ZM29.409374 305.75522Q29.409374 307.39584 29.690624 308.00522Q29.9875 308.59897 30.534374 308.59897Q30.909374 308.59897 31.175 308.34897Q31.440624 308.08334 31.565624 307.53647Q31.690624 306.9896 31.690624 305.81772Q31.690624 304.1146 31.39375 303.52084Q31.1125 302.9271 30.534374 302.9271Q29.940624 302.9271 29.675 303.53647Q29.409374 304.13022 29.409374 305.75522ZM42.425 301.34897L43.659374 301.34897L38.70625 310.52084L37.471874 310.52084L42.425 301.34897ZM35.128124 303.59897Q35.128124 303.00522 35.39375 302.47397Q35.659374 301.9271 36.190624 301.64584Q36.721874 301.34897 37.45625 301.34897Q38.534374 301.34897 39.159374 301.97397Q39.784374 302.58334 39.784374 303.59897Q39.784374 304.63022 39.159374 305.25522Q38.534374 305.8646 37.45625 305.8646Q36.721874 305.8646 36.190624 305.58334Q35.659374 305.28647 35.39375 304.75522Q35.128124 304.20834 35.128124 303.59897ZM36.784374 303.6146Q36.784374 304.33334 37.01875 304.66147Q37.159374 304.88022 37.45625 304.88022Q37.753124 304.88022 37.89375 304.66147Q38.128124 304.33334 38.128124 303.6146Q38.128124 302.89584 37.89375 302.5521Q37.753124 302.34897 37.45625 302.34897Q37.159374 302.34897 37.01875 302.5521Q36.784374 302.88022 36.784374 303.6146ZM41.33125 308.25522Q41.33125 307.64584 41.58125 307.1146Q41.846874 306.56772 42.378124 306.28647Q42.925 305.9896 43.64375 305.9896Q44.721874 305.9896 45.346874 306.6146Q45.971874 307.22397 45.971874 308.25522Q45.971874 309.27084 45.346874 309.89584Q44.721874 310.50522 43.64375 310.50522Q42.925 310.50522 42.378124 310.20834Q41.846874 309.9271 41.58125 309.39584Q41.33125 308.84897 41.33125 308.25522ZM42.971874 308.25522Q42.971874 308.9896 43.20625 309.31772Q43.346874 309.52084 43.64375 309.52084Q43.940624 309.52084 44.096874 309.31772Q44.33125 308.9896 44.33125 308.25522Q44.33125 307.53647 44.096874 307.19272Q43.940624 306.9896 43.64375 306.9896Q43.346874 306.9896 43.20625 307.20834Q42.971874 307.53647 42.971874 308.25522Z" fill-rule="nonzero"/><path fill="#000000" d="M26.034374 169.81667L18.8625 169.81667Q18.9875 168.75417 19.6125 167.81667Q20.2375 166.87917 21.95625 165.61354Q23.003124 164.83229 23.3 164.42604Q23.596874 164.01979 23.596874 163.66042Q23.596874 163.26979 23.3 162.98854Q23.003124 162.70729 22.565624 162.70729Q22.1125 162.70729 21.815624 163.00417Q21.534374 163.28542 21.440624 164.01979L19.05 163.81667Q19.190624 162.81667 19.565624 162.25417Q19.940624 161.67604 20.6125 161.37917Q21.3 161.08229 22.503124 161.08229Q23.76875 161.08229 24.45625 161.37917Q25.159374 161.66042 25.565624 162.25417Q25.971874 162.84792 25.971874 163.58229Q25.971874 164.36354 25.503124 165.08229Q25.05 165.80104 23.83125 166.64479Q23.1125 167.14479 22.8625 167.34792Q22.628124 167.55104 22.3 167.86354L26.034374 167.86354L26.034374 169.81667ZM27.05 165.48854Q27.05 163.03542 27.925 162.06667Q28.8 161.08229 30.6125 161.08229Q31.471874 161.08229 32.034374 161.30104Q32.596874 161.50417 32.940624 161.84792Q33.3 162.19167 33.503124 162.56667Q33.70625 162.94167 33.815624 163.45729Q34.065624 164.41042 34.065624 165.45729Q34.065624 167.80104 33.26875 168.87917Q32.4875 169.95729 30.55 169.95729Q29.45625 169.95729 28.784374 169.61354Q28.128124 169.26979 27.70625 168.59792Q27.39375 168.12917 27.221874 167.31667Q27.05 166.48854 27.05 165.48854ZM29.409374 165.48854Q29.409374 167.12917 29.690624 167.73854Q29.9875 168.33229 30.534374 168.33229Q30.909374 168.33229 31.175 168.08229Q31.440624 167.81667 31.565624 167.26979Q31.690624 166.72292 31.690624 165.55104Q31.690624 163.84792 31.39375 163.25417Q31.1125 162.66042 30.534374 162.66042Q29.940624 162.66042 29.675 163.26979Q29.409374 163.86354 29.409374 165.48854ZM42.425 161.08229L43.659374 161.08229L38.70625 170.25417L37.471874 170.25417L42.425 161.08229ZM35.128124 163.33229Q35.128124 162.73854 35.39375 162.20729Q35.659374 161.66042 36.190624 161.37917Q36.721874 161.08229 37.45625 161.08229Q38.534374 161.08229 39.159374 161.70729Q39.784374 162.31667 39.784374 163.33229Q39.784374 164.36354 39.159374 164.98854Q38.534374 165.59792 37.45625 165.59792Q36.721874 165.59792 36.190624 165.31667Q35.659374 165.01979 35.39375 164.48854Q35.128124 163.94167 35.128124 163.33229ZM36.784374 163.34792Q36.784374 164.06667 37.01875 164.39479Q37.159374 164.61354 37.45625 164.61354Q37.753124 164.61354 37.89375 164.39479Q38.128124 164.06667 38.128124 163.34792Q38.128124 162.62917 37.89375 162.28542Q37.753124 162.08229 37.45625 162.08229Q37.159374 162.08229 37.01875 162.28542Q36.784374 162.61354 36.784374 163.34792ZM41.33125 167.98854Q41.33125 167.37917 41.58125 166.84792Q41.846874 166.30104 42.378124 166.01979Q42.925 165.72292 43.64375 165.72292Q44.721874 165.72292 45.346874 166.34792Q45.971874 166.95729 45.971874 167.98854Q45.971874 169.00417 45.346874 169.62917Q44.721874 170.23854 43.64375 170.23854Q42.925 170.23854 42.378124 169.94167Q41.846874 169.66042 41.58125 169.12917Q41.33125 168.58229 41.33125 167.98854ZM42.971874 167.98854Q42.971874 168.72292 43.20625 169.05104Q43.346874 169.25417 43.64375 169.25417Q43.940624 169.25417 44.096874 169.05104Q44.33125 168.72292 44.33125 167.98854Q44.33125 167.26979 44.096874 166.92604Q43.940624 166.72292 43.64375 166.72292Q43.346874 166.72292 43.20625 166.94167Q42.971874 167.26979 42.971874 167.98854Z" fill-rule="nonzero"/><path fill="#000000" d="M23.14375 27.940624L18.8 27.940624L18.8 25.9875L23.14375 20.815624L25.221874 20.815624L25.221874 26.096874L26.3 26.096874L26.3 27.940624L25.221874 27.940624L25.221874 29.55L23.14375 29.55L23.14375 27.940624ZM23.14375 26.096874L23.14375 23.39375L20.846874 26.096874L23.14375 26.096874ZM27.05 25.221874Q27.05 22.76875 27.925 21.8Q28.8 20.815624 30.6125 20.815624Q31.471874 20.815624 32.034374 21.034374Q32.596874 21.2375 32.940624 21.58125Q33.3 21.925 33.503124 22.3Q33.70625 22.675 33.815624 23.190624Q34.065624 24.14375 34.065624 25.190624Q34.065624 27.534374 33.26875 28.6125Q32.4875 29.690624 30.55 29.690624Q29.45625 29.690624 28.784374 29.346874Q28.128124 29.003124 27.70625 28.33125Q27.39375 27.8625 27.221874 27.05Q27.05 26.221874 27.05 25.221874ZM29.409374 25.221874Q29.409374 26.8625 29.690624 27.471874Q29.9875 28.065624 30.534374 28.065624Q30.909374 28.065624 31.175 27.815624Q31.440624 27.55 31.565624 27.003124Q31.690624 26.45625 31.690624 25.284374Q31.690624 23.58125 31.39375 22.9875Q31.1125 22.39375 30.534374 22.39375Q29.940624 22.39375 29.675 23.003124Q29.409374 23.596874 29.409374 25.221874ZM42.425 20.815624L43.659374 20.815624L38.70625 29.9875L37.471874 29.9875L42.425 20.815624ZM35.128124 23.065624Q35.128124 22.471874 35.39375 21.940624Q35.659374 21.39375 36.190624 21.1125Q36.721874 20.815624 37.45625 20.815624Q38.534374 20.815624 39.159374 21.440624Q39.784374 22.05 39.784374 23.065624Q39.784374 24.096874 39.159374 24.721874Q38.534374 25.33125 37.45625 25.33125Q36.721874 25.33125 36.190624 25.05Q35.659374 24.753124 35.39375 24.221874Q35.128124 23.675 35.128124 23.065624ZM36.784374 23.08125Q36.784374 23.8 37.01875 24.128124Q37.159374 24.346874 37.45625 24.346874Q37.753124 24.346874 37.89375 24.128124Q38.128124 23.8 38.128124 23.08125Q38.128124 22.3625 37.89375 22.01875Q37.753124 21.815624 37.45625 21.815624Q37.159374 21.815624 37.01875 22.01875Q36.784374 22.346874 36.784374 23.08125ZM41.33125 27.721874Q41.33125 27.1125 41.58125 26.58125Q41.846874 26.034374 42.378124 25.753124Q42.925 25.45625 43.64375 25.45625Q44.721874 25.45625 45.346874 26.08125Q45.971874 26.690624 45.971874 27.721874Q45.971874 28.7375 45.346874 29.3625Q44.721874 29.971874 43.64375 29.971874Q42.925 29.971874 42.378124 29.675Q41.846874 29.39375 41.58125 28.8625Q41.33125 28.315624 41.33125 27.721874ZM42.971874 27.721874Q42.971874 28.45625 43.20625 28.784374Q43.346874 28.9875 43.64375 28.9875Q43.940624 28.9875 44.096874 28.784374Q44.33125 28.45625 44.33125 27.721874Q44.33125 27.003124 44.096874 26.659374Q43.940624 26.45625 43.64375 26.45625Q43.346874 26.45625 43.20625 26.675Q42.971874 27.003124 42.971874 27.721874Z" fill-rule="nonzero"/><path fill="#000000" d="M352.17188 321.66147L349.14062 321.66147L348.71875 323.08334L346.01562 323.08334L349.23438 314.4896L352.14062 314.4896L355.35938 323.08334L352.59375 323.08334L352.17188 321.66147ZM351.60938 319.8021L350.65625 316.72397L349.71875 319.8021L351.60938 319.8021ZM360.35938 320.64584L362.625 320.91147Q362.4375 321.6146 362.01562 322.14584Q361.59375 322.66147 360.92188 322.94272Q360.25 323.22397 359.23438 323.22397Q358.23438 323.22397 357.57812 323.0521Q356.92188 322.8646 356.4375 322.45834Q355.96875 322.03647 355.70312 321.4896Q355.4375 320.9271 355.4375 320.00522Q355.4375 319.03647 355.76562 318.39584Q356.0 317.9271 356.40625 317.56772Q356.82812 317.19272 357.28125 317.00522Q357.96875 316.72397 359.0625 316.72397Q360.57812 316.72397 361.375 317.27084Q362.1875 317.8021 362.5 318.8646L360.26562 319.16147Q360.15625 318.75522 359.875 318.5521Q359.59375 318.34897 359.125 318.34897Q358.54688 318.34897 358.17188 318.78647Q357.8125 319.20834 357.8125 320.06772Q357.8125 320.83334 358.17188 321.2396Q358.53125 321.63022 359.09375 321.63022Q359.5625 321.63022 359.875 321.39584Q360.20312 321.14584 360.35938 320.64584ZM366.59375 314.4896L366.59375 316.8646L367.90625 316.8646L367.90625 318.59897L366.59375 318.59897L366.59375 320.8021Q366.59375 321.20834 366.67188 321.33334Q366.79688 321.53647 367.07812 321.53647Q367.34375 321.53647 367.82812 321.38022L368.0 323.03647Q367.10938 323.22397 366.34375 323.22397Q365.45312 323.22397 365.03125 323.00522Q364.60938 322.77084 364.40625 322.3021Q364.20312 321.83334 364.20312 320.78647L364.20312 318.59897L363.32812 318.59897L363.32812 316.8646L364.20312 316.8646L364.20312 315.72397L366.59375 314.4896ZM375.28125 323.08334L373.04688 323.08334L373.04688 322.06772Q372.54688 322.69272 372.04688 322.95834Q371.54688 323.22397 370.79688 323.22397Q369.8125 323.22397 369.25 322.64584Q368.70312 322.0521 368.70312 320.81772L368.70312 316.8646L371.09375 316.8646L371.09375 320.28647Q371.09375 320.8646 371.3125 321.1146Q371.53125 321.3646 371.92188 321.3646Q372.34375 321.3646 372.60938 321.03647Q372.89062 320.70834 372.89062 319.84897L372.89062 316.8646L375.28125 316.8646L375.28125 323.08334ZM378.89062 318.88022L376.60938 318.63022Q376.75 318.03647 376.98438 317.69272Q377.23438 317.34897 377.6875 317.09897Q378.01562 316.91147 378.59375 316.81772Q379.17188 316.72397 379.82812 316.72397Q380.90625 316.72397 381.54688 316.84897Q382.20312 316.95834 382.64062 317.33334Q382.9375 317.59897 383.10938 318.08334Q383.29688 318.56772 383.29688 319.00522L383.29688 321.75522Q383.29688 322.19272 383.34375 322.44272Q383.40625 322.69272 383.59375 323.08334L381.35938 323.08334Q381.21875 322.84897 381.17188 322.72397Q381.14062 322.58334 381.09375 322.31772Q380.625 322.77084 380.17188 322.95834Q379.53125 323.22397 378.70312 323.22397Q377.57812 323.22397 377.0 322.70834Q376.42188 322.19272 376.42188 321.44272Q376.42188 320.72397 376.84375 320.27084Q377.26562 319.81772 378.375 319.58334Q379.71875 319.31772 380.10938 319.20834Q380.51562 319.09897 380.96875 318.9271Q380.96875 318.4896 380.78125 318.31772Q380.59375 318.13022 380.14062 318.13022Q379.5625 318.13022 379.26562 318.31772Q379.03125 318.47397 378.89062 318.88022ZM380.96875 320.13022Q380.46875 320.3021 379.9375 320.44272Q379.21875 320.63022 379.01562 320.81772Q378.8125 321.02084 378.8125 321.25522Q378.8125 321.53647 379.01562 321.72397Q379.21875 321.89584 379.59375 321.89584Q379.98438 321.89584 380.32812 321.70834Q380.67188 321.50522 380.8125 321.2396Q380.96875 320.95834 380.96875 320.50522L380.96875 320.13022ZM384.79688 314.4896L387.1875 314.4896L387.1875 323.08334L384.79688 323.08334L384.79688 314.4896ZM392.42188 320.2396L394.9375 320.08334Q395.03125 320.69272 395.28125 321.02084Q395.6875 321.53647 396.45312 321.53647Q397.01562 321.53647 397.3125 321.27084Q397.625 321.00522 397.625 320.66147Q397.625 320.31772 397.34375 320.0521Q397.04688 319.8021 395.98438 319.56772Q394.23438 319.16147 393.48438 318.52084Q392.73438 317.8646 392.73438 316.8646Q392.73438 316.19272 393.10938 315.6146Q393.5 315.02084 394.26562 314.69272Q395.04688 314.34897 396.39062 314.34897Q398.03125 314.34897 398.89062 314.95834Q399.76562 315.56772 399.92188 316.91147L397.42188 317.0521Q397.32812 316.47397 397.0 316.20834Q396.6875 315.94272 396.125 315.94272Q395.65625 315.94272 395.42188 316.14584Q395.1875 316.33334 395.1875 316.6146Q395.1875 316.81772 395.39062 316.9896Q395.57812 317.16147 396.28125 317.3021Q398.01562 317.6771 398.76562 318.06772Q399.53125 318.44272 399.85938 319.02084Q400.20312 319.58334 400.20312 320.28647Q400.20312 321.1146 399.75 321.81772Q399.29688 322.50522 398.46875 322.8646Q397.65625 323.22397 396.40625 323.22397Q394.21875 323.22397 393.375 322.38022Q392.53125 321.53647 392.42188 320.2396ZM408.28125 323.08334L406.04688 323.08334L406.04688 322.06772Q405.54688 322.69272 405.04688 322.95834Q404.54688 323.22397 403.79688 323.22397Q402.8125 323.22397 402.25 322.64584Q401.70312 322.0521 401.70312 320.81772L401.70312 316.8646L404.09375 316.8646L404.09375 320.28647Q404.09375 320.8646 404.3125 321.1146Q404.53125 321.3646 404.92188 321.3646Q405.34375 321.3646 405.60938 321.03647Q405.89062 320.70834 405.89062 319.84897L405.89062 316.8646L408.28125 316.8646L408.28125 323.08334ZM409.73438 325.45834L409.73438 316.8646L411.96875 316.8646L411.96875 317.78647Q412.42188 317.19272 412.8125 316.9896Q413.34375 316.72397 413.96875 316.72397Q415.21875 316.72397 415.89062 317.6771Q416.57812 318.63022 416.57812 320.03647Q416.57812 321.58334 415.82812 322.41147Q415.09375 323.22397 413.95312 323.22397Q413.40625 323.22397 412.95312 323.03647Q412.5 322.84897 412.14062 322.47397L412.14062 325.45834L409.73438 325.45834ZM412.125 319.9896Q412.125 320.72397 412.4375 321.08334Q412.75 321.44272 413.21875 321.44272Q413.64062 321.44272 413.92188 321.09897Q414.20312 320.75522 414.20312 319.94272Q414.20312 319.1771 413.90625 318.83334Q413.60938 318.47397 413.1875 318.47397Q412.73438 318.47397 412.42188 318.83334Q412.125 319.19272 412.125 319.9896ZM417.73438 325.45834L417.73438 316.8646L419.96875 316.8646L419.96875 317.78647Q420.42188 317.19272 420.8125 316.9896Q421.34375 316.72397 421.96875 316.72397Q423.21875 316.72397 423.89062 317.6771Q424.57812 318.63022 424.57812 320.03647Q424.57812 321.58334 423.82812 322.41147Q423.09375 323.22397 421.95312 323.22397Q421.40625 323.22397 420.95312 323.03647Q420.5 322.84897 420.14062 322.47397L420.14062 325.45834L417.73438 325.45834ZM420.125 319.9896Q420.125 320.72397 420.4375 321.08334Q420.75 321.44272 421.21875 321.44272Q421.64062 321.44272 421.92188 321.09897Q422.20312 320.75522 422.20312 319.94272Q422.20312 319.1771 421.90625 318.83334Q421.60938 318.47397 421.1875 318.47397Q420.73438 318.47397 420.42188 318.83334Q420.125 319.19272 420.125 319.9896ZM425.42188 319.9896Q425.42188 318.56772 426.375 317.64584Q427.34375 316.72397 428.98438 316.72397Q430.85938 316.72397 431.8125 317.8021Q432.57812 318.6771 432.57812 319.95834Q432.57812 321.39584 431.625 322.31772Q430.67188 323.22397 428.98438 323.22397Q427.48438 323.22397 426.5625 322.45834Q425.42188 321.52084 425.42188 319.9896ZM427.8125 319.9896Q427.8125 320.81772 428.15625 321.22397Q428.5 321.6146 429.0 321.6146Q429.51562 321.6146 429.84375 321.22397Q430.1875 320.83334 430.1875 319.95834Q430.1875 319.14584 429.84375 318.75522Q429.51562 318.3646 429.01562 318.3646Q428.5 318.3646 428.15625 318.77084Q427.8125 319.16147 427.8125 319.9896ZM433.75 316.8646L435.98438 316.8646L435.98438 317.88022Q436.29688 317.22397 436.64062 316.97397Q436.98438 316.72397 437.48438 316.72397Q438.01562 316.72397 438.64062 317.0521L437.90625 318.7396Q437.48438 318.56772 437.23438 318.56772Q436.76562 318.56772 436.51562 318.95834Q436.14062 319.50522 436.14062 320.9896L436.14062 323.08334L433.75 323.08334L433.75 316.8646ZM441.59375 314.4896L441.59375 316.8646L442.90625 316.8646L442.90625 318.59897L441.59375 318.59897L441.59375 320.8021Q441.59375 321.20834 441.67188 321.33334Q441.79688 321.53647 442.07812 321.53647Q442.34375 321.53647 442.82812 321.38022L443.0 323.03647Q442.10938 323.22397 441.34375 323.22397Q440.45312 323.22397 440.03125 323.00522Q439.60938 322.77084 439.40625 322.3021Q439.20312 321.83334 439.20312 320.78647L439.20312 318.59897L438.32812 318.59897L438.32812 316.8646L439.20312 316.8646L439.20312 315.72397L441.59375 314.4896Z" fill-rule="nonzero"/><path fill="#f1c232" d="M45.5625 340.45C45.5625 339.8977 46.010216 339.45 46.5625 339.45L56.5625 339.45C57.114784 339.45 57.5625 339.8977 57.5625 340.45L57.5625 350.45C57.5625 351.0023 57.114784 351.45 56.5625 351.45L46.5625 351.45C46.010216 351.45 45.5625 351.0023 45.5625 350.45Z" fill-rule="nonzero"/><path fill="#000000" d="M66.4375 340.48126L69.46875 340.48126L69.46875 346.96564L73.609375 346.96564L73.609375 349.45L66.4375 349.45L66.4375 340.48126ZM74.359375 346.16876Q74.359375 344.66876 75.375 343.7Q76.390625 342.71564 78.109375 342.71564Q80.0625 342.71564 81.078125 343.85626Q81.890625 344.77814 81.890625 346.1375Q81.890625 347.65314 80.875 348.6219Q79.875 349.59064 78.109375 349.59064Q76.546875 349.59064 75.5625 348.77814Q74.359375 347.79376 74.359375 346.16876ZM77.125 346.16876Q77.125 346.9344 77.40625 347.27814Q77.703125 347.60626 78.125 347.60626Q78.546875 347.60626 78.828125 347.27814Q79.125 346.95 79.125 346.1375Q79.125 345.3875 78.828125 345.0594Q78.546875 344.73126 78.140625 344.73126Q77.703125 344.73126 77.40625 345.075Q77.125 345.40314 77.125 346.16876ZM89.96875 349.45L87.359375 349.45L87.359375 348.77814Q87.171875 349.0125 86.625 349.3094Q86.09375 349.59064 85.296875 349.59064Q84.234375 349.59064 83.625 348.95Q83.015625 348.3094 83.015625 346.9969L83.015625 342.85626L85.78125 342.85626L85.78125 346.46564Q85.78125 346.96564 85.9375 347.16876Q86.109375 347.35626 86.421875 347.35626Q86.75 347.35626 86.96875 347.09064Q87.203125 346.825 87.203125 346.02814L87.203125 342.85626L89.96875 342.85626L89.96875 349.45ZM91.5 340.48126L94.25 340.48126L94.25 342.48126L91.5 342.48126L91.5 340.48126ZM91.5 342.85626L94.25 342.85626L94.25 349.45L91.5 349.45L91.5 342.85626ZM95.3125 347.3719L98.046875 347.10626Q98.21875 347.60626 98.4375 347.7625Q98.65625 347.91876 99.03125 347.91876Q99.453125 347.91876 99.671875 347.7469Q99.796875 347.65314 99.796875 347.5125Q99.796875 347.3719 99.609375 347.29376Q99.453125 347.1844 98.65625 347.0594Q97.390625 346.84064 96.859375 346.6375Q96.34375 346.4344 95.984375 345.95Q95.625 345.46564 95.625 344.84064Q95.625 344.16876 96.015625 343.6844Q96.421875 343.1844 97.078125 342.95Q97.75 342.71564 98.84375 342.71564Q99.984375 342.71564 100.546875 342.8875Q101.109375 343.0594 101.484375 343.45Q101.875 343.84064 102.21875 344.71564L99.546875 344.98126Q99.453125 344.59064 99.296875 344.4969Q99.0625 344.34064 98.71875 344.34064Q98.375 344.34064 98.25 344.45Q98.140625 344.54376 98.140625 344.65314Q98.140625 344.7625 98.265625 344.825Q98.46875 344.91876 99.21875 345.0125Q100.4375 345.15314 101.046875 345.41876Q101.671875 345.66876 102.015625 346.16876Q102.359375 346.65314 102.359375 347.2469Q102.359375 347.825 102.0 348.40314Q101.640625 348.96564 100.890625 349.27814Q100.140625 349.59064 98.90625 349.59064Q97.140625 349.59064 96.359375 349.075Q95.578125 348.54376 95.3125 347.3719ZM110.40625 340.35626L110.40625 342.85626L111.71875 342.85626L111.71875 344.96564L110.40625 344.96564L110.40625 346.98126Q110.40625 347.34064 110.453125 347.41876Q110.53125 347.52814 110.703125 347.52814Q110.9375 347.52814 111.609375 347.3094L111.828125 349.3719Q110.75 349.59064 109.96875 349.59064Q109.03125 349.59064 108.5625 349.34064Q108.09375 349.09064 107.859375 348.575Q107.640625 348.04376 107.640625 346.96564L107.640625 344.96564L106.765625 344.96564L106.765625 342.85626L107.640625 342.85626L107.640625 341.79376L110.40625 340.35626ZM112.53125 340.48126L115.296875 340.48126L115.296875 343.3719Q115.484375 343.16876 115.984375 342.95Q116.5 342.71564 117.203125 342.71564Q118.265625 342.71564 118.875 343.35626Q119.484375 343.9969 119.484375 345.3094L119.484375 349.45L116.71875 349.45L116.71875 345.84064Q116.71875 345.325 116.546875 345.1375Q116.390625 344.95 116.078125 344.95Q115.734375 344.95 115.515625 345.21564Q115.296875 345.48126 115.296875 346.27814L115.296875 349.45L112.53125 349.45L112.53125 340.48126ZM128.1875 346.9344L123.421875 346.9344Q123.46875 347.23126 123.671875 347.46564Q123.96875 347.8094 124.4375 347.8094Q124.734375 347.8094 125.015625 347.65314Q125.171875 347.575 125.4375 347.23126L128.1875 347.4969Q127.46875 348.73126 126.65625 349.16876Q125.859375 349.59064 124.390625 349.59064Q123.09375 349.59064 122.34375 349.21564Q121.609375 348.84064 121.109375 348.04376Q120.609375 347.23126 120.609375 346.16876Q120.609375 344.6219 121.59375 343.66876Q122.59375 342.71564 124.3125 342.71564Q125.703125 342.71564 126.515625 343.1375Q127.34375 343.5594 127.765625 344.3875Q128.1875 345.2 128.1875 346.46564L128.1875 346.9344ZM125.375 345.41876Q125.328125 344.98126 125.078125 344.7469Q124.828125 344.4969 124.40625 344.4969Q123.9375 344.4969 123.65625 344.8719Q123.46875 345.1219 123.4375 345.41876L125.375 345.41876ZM133.4375 340.48126L136.46875 340.48126L136.46875 346.96564L140.60938 346.96564L140.60938 349.45L133.4375 349.45L133.4375 340.48126ZM141.75 340.48126L144.5 340.48126L144.5 342.48126L141.75 342.48126L141.75 340.48126ZM141.75 342.85626L144.5 342.85626L144.5 349.45L141.75 349.45L141.75 342.85626ZM146.04688 340.48126L148.82812 340.48126L148.82812 343.1844Q148.89062 343.1219 149.375 342.91876Q149.875 342.71564 150.45312 342.71564Q151.67188 342.71564 152.46875 343.59064Q153.26562 344.45 153.26562 346.0594Q153.26562 347.10626 152.90625 347.9344Q152.5625 348.7625 151.90625 349.1844Q151.25 349.59064 150.46875 349.59064Q149.79688 349.59064 149.23438 349.3094Q148.79688 349.0594 148.65625 348.8875L148.65625 349.45L146.04688 349.45L146.04688 340.48126ZM148.8125 346.1375Q148.8125 346.8719 149.0625 347.16876Q149.32812 347.46564 149.6875 347.46564Q150.03125 347.46564 150.26562 347.1844Q150.51562 346.8875 150.51562 346.10626Q150.51562 345.4344 150.26562 345.15314Q150.03125 344.8719 149.71875 344.8719Q149.32812 344.8719 149.0625 345.16876Q148.8125 345.46564 148.8125 346.1375ZM161.6875 346.9344L156.92188 346.9344Q156.96875 347.23126 157.17188 347.46564Q157.46875 347.8094 157.9375 347.8094Q158.23438 347.8094 158.51562 347.65314Q158.67188 347.575 158.9375 347.23126L161.6875 347.4969Q160.96875 348.73126 160.15625 349.16876Q159.35938 349.59064 157.89062 349.59064Q156.59375 349.59064 155.84375 349.21564Q155.10938 348.84064 154.60938 348.04376Q154.10938 347.23126 154.10938 346.16876Q154.10938 344.6219 155.09375 343.66876Q156.09375 342.71564 157.8125 342.71564Q159.20312 342.71564 160.01562 343.1375Q160.84375 343.5594 161.26562 344.3875Q161.6875 345.2 161.6875 346.46564L161.6875 346.9344ZM158.875 345.41876Q158.82812 344.98126 158.57812 344.7469Q158.32812 344.4969 157.90625 344.4969Q157.4375 344.4969 157.15625 344.8719Q156.96875 345.1219 156.9375 345.41876L158.875 345.41876ZM162.8125 342.85626L165.42188 342.85626L165.42188 343.23126Q165.39062 343.27814 165.78125 342.9969Q166.17188 342.71564 166.73438 342.71564Q167.3125 342.71564 168.125 343.15314L167.25 345.16876Q166.70312 344.9344 166.48438 344.9344Q166.125 344.9344 165.92188 345.2469Q165.57812 345.7469 165.57812 347.16876L165.57812 349.45L162.8125 349.45L162.8125 342.85626ZM170.64062 345.2625L168.0 344.96564Q168.20312 344.1375 168.46875 343.7625Q168.73438 343.3875 169.21875 343.1219Q169.57812 342.91876 170.17188 342.825Q170.78125 342.71564 171.45312 342.71564Q172.54688 342.71564 173.21875 342.84064Q173.90625 342.96564 174.39062 343.3719Q174.71875 343.66876 174.90625 344.2Q175.10938 344.71564 175.10938 345.1844L175.10938 347.9344Q175.10938 348.35626 175.15625 348.59064Q175.20312 348.8094 175.51562 349.45L172.875 349.45Q172.67188 349.10626 172.625 348.96564Q172.57812 348.8094 172.625 348.77814Q172.35938 349.10626 171.875 349.3094Q171.1875 349.59064 170.32812 349.59064Q169.125 349.59064 168.48438 349.02814Q167.85938 348.45 167.85938 347.6219Q167.85938 346.825 168.32812 346.325Q168.79688 345.825 169.96875 345.575Q171.29688 345.3094 171.6875 345.21564Q172.07812 345.10626 172.40625 344.98126Q172.40625 344.7469 172.26562 344.6219Q172.14062 344.4969 171.76562 344.4969Q171.23438 344.4969 171.0 344.65314Q170.8125 344.77814 170.64062 345.2625ZM172.40625 346.575Q172.14062 346.65314 171.60938 346.8094Q170.9375 346.98126 170.76562 347.1375Q170.625 347.27814 170.625 347.4344Q170.625 347.6375 170.76562 347.7625Q170.92188 347.8875 171.21875 347.8875Q171.5625 347.8875 171.85938 347.71564Q172.15625 347.54376 172.28125 347.325Q172.40625 347.09064 172.40625 346.6844L172.40625 346.575ZM176.60938 340.48126L179.375 340.48126L179.375 349.45L176.60938 349.45L176.60938 340.48126Z" fill-rule="nonzero"/><path fill="#a4c2f4" d="M196.1875 340.45C196.1875 339.8977 196.63521 339.45 197.1875 339.45L207.1875 339.45C207.73979 339.45 208.1875 339.8977 208.1875 340.45L208.1875 350.45C208.1875 351.0023 207.73979 351.45 207.1875 351.45L197.1875 351.45C196.63521 351.45 196.1875 351.0023 196.1875 350.45Z" fill-rule="nonzero"/><path fill="#000000" d="M222.82812 345.5125L225.51562 346.325Q225.23438 347.5125 224.70312 348.21564Q224.1875 348.90314 223.39062 349.2625Q222.60938 349.60626 221.40625 349.60626Q219.96875 349.60626 219.03125 349.1844Q218.10938 348.7469 217.42188 347.66876Q216.75 346.59064 216.75 344.95Q216.75 342.73126 217.9375 341.54376Q219.14062 340.34064 221.28125 340.34064Q222.96875 340.34064 223.9375 341.02814Q224.92188 341.71564 225.46875 343.34064L222.75 343.9344Q222.57812 343.41876 222.45312 343.2469Q222.26562 342.98126 221.98438 342.84064Q221.70312 342.7 221.34375 342.7Q220.54688 342.7 220.125 343.34064Q219.79688 343.84064 219.79688 344.9344Q219.79688 346.29376 220.17188 346.7625Q220.5625 347.23126 221.25 347.23126Q221.9375 347.23126 222.28125 346.85626Q222.625 346.46564 222.82812 345.5125ZM228.76562 345.2625L226.125 344.96564Q226.32812 344.1375 226.59375 343.7625Q226.85938 343.3875 227.34375 343.1219Q227.70312 342.91876 228.29688 342.825Q228.90625 342.71564 229.57812 342.71564Q230.67188 342.71564 231.34375 342.84064Q232.03125 342.96564 232.51562 343.3719Q232.84375 343.66876 233.03125 344.2Q233.23438 344.71564 233.23438 345.1844L233.23438 347.9344Q233.23438 348.35626 233.28125 348.59064Q233.32812 348.8094 233.64062 349.45L231.0 349.45Q230.79688 349.10626 230.75 348.96564Q230.70312 348.8094 230.75 348.77814Q230.48438 349.10626 230.0 349.3094Q229.3125 349.59064 228.45312 349.59064Q227.25 349.59064 226.60938 349.02814Q225.98438 348.45 225.98438 347.6219Q225.98438 346.825 226.45312 346.325Q226.92188 345.825 228.09375 345.575Q229.42188 345.3094 229.8125 345.21564Q230.20312 345.10626 230.53125 344.98126Q230.53125 344.7469 230.39062 344.6219Q230.26562 344.4969 229.89062 344.4969Q229.35938 344.4969 229.125 344.65314Q228.9375 344.77814 228.76562 345.2625ZM230.53125 346.575Q230.26562 346.65314 229.73438 346.8094Q229.0625 346.98126 228.89062 347.1375Q228.75 347.27814 228.75 347.4344Q228.75 347.6375 228.89062 347.7625Q229.04688 347.8875 229.34375 347.8875Q229.6875 347.8875 229.98438 347.71564Q230.28125 347.54376 230.40625 347.325Q230.53125 347.09064 230.53125 346.6844L230.53125 346.575ZM234.6875 342.85626L237.29688 342.85626L237.29688 343.23126Q237.26562 343.27814 237.65625 342.9969Q238.04688 342.71564 238.60938 342.71564Q239.1875 342.71564 240.0 343.15314L239.125 345.16876Q238.57812 344.9344 238.35938 344.9344Q238.0 344.9344 237.79688 345.2469Q237.45312 345.7469 237.45312 347.16876L237.45312 349.45L234.6875 349.45L234.6875 342.85626ZM239.73438 346.16876Q239.73438 344.66876 240.75 343.7Q241.76562 342.71564 243.48438 342.71564Q245.4375 342.71564 246.45312 343.85626Q247.26562 344.77814 247.26562 346.1375Q247.26562 347.65314 246.25 348.6219Q245.25 349.59064 243.48438 349.59064Q241.92188 349.59064 240.9375 348.77814Q239.73438 347.79376 239.73438 346.16876ZM242.5 346.16876Q242.5 346.9344 242.78125 347.27814Q243.07812 347.60626 243.5 347.60626Q243.92188 347.60626 244.20312 347.27814Q244.5 346.95 244.5 346.1375Q244.5 345.3875 244.20312 345.0594Q243.92188 344.73126 243.51562 344.73126Q243.07812 344.73126 242.78125 345.075Q242.5 345.40314 242.5 346.16876ZM248.48438 340.48126L251.25 340.48126L251.25 349.45L248.48438 349.45L248.48438 340.48126ZM252.875 340.48126L255.625 340.48126L255.625 342.48126L252.875 342.48126L252.875 340.48126ZM252.875 342.85626L255.625 342.85626L255.625 349.45L252.875 349.45L252.875 342.85626ZM257.15625 342.85626L259.75 342.85626L259.75 343.52814Q259.9375 343.29376 260.48438 343.0125Q261.03125 342.71564 261.8125 342.71564Q262.89062 342.71564 263.5 343.35626Q264.10938 343.9969 264.10938 345.3094L264.10938 349.45L261.34375 349.45L261.34375 345.84064Q261.34375 345.325 261.17188 345.1375Q261.01562 344.95 260.70312 344.95Q260.35938 344.95 260.14062 345.21564Q259.92188 345.48126 259.92188 346.27814L259.92188 349.45L257.15625 349.45L257.15625 342.85626ZM272.8125 346.9344L268.04688 346.9344Q268.09375 347.23126 268.29688 347.46564Q268.59375 347.8094 269.0625 347.8094Q269.35938 347.8094 269.64062 347.65314Q269.79688 347.575 270.0625 347.23126L272.8125 347.4969Q272.09375 348.73126 271.28125 349.16876Q270.48438 349.59064 269.01562 349.59064Q267.71875 349.59064 266.96875 349.21564Q266.23438 348.84064 265.73438 348.04376Q265.23438 347.23126 265.23438 346.16876Q265.23438 344.6219 266.21875 343.66876Q267.21875 342.71564 268.9375 342.71564Q270.32812 342.71564 271.14062 343.1375Q271.96875 343.5594 272.39062 344.3875Q272.8125 345.2 272.8125 346.46564L272.8125 346.9344ZM270.0 345.41876Q269.95312 344.98126 269.70312 344.7469Q269.45312 344.4969 269.03125 344.4969Q268.5625 344.4969 268.28125 344.8719Q268.09375 345.1219 268.0625 345.41876L270.0 345.41876ZM281.15625 340.35626L281.15625 342.85626L282.46875 342.85626L282.46875 344.96564L281.15625 344.96564L281.15625 346.98126Q281.15625 347.34064 281.20312 347.41876Q281.28125 347.52814 281.45312 347.52814Q281.6875 347.52814 282.35938 347.3094L282.57812 349.3719Q281.5 349.59064 280.71875 349.59064Q279.78125 349.59064 279.3125 349.34064Q278.84375 349.09064 278.60938 348.575Q278.39062 348.04376 278.39062 346.96564L278.39062 344.96564L277.51562 344.96564L277.51562 342.85626L278.39062 342.85626L278.39062 341.79376L281.15625 340.35626ZM283.28125 340.48126L286.04688 340.48126L286.04688 343.3719Q286.23438 343.16876 286.73438 342.95Q287.25 342.71564 287.95312 342.71564Q289.01562 342.71564 289.625 343.35626Q290.23438 343.9969 290.23438 345.3094L290.23438 349.45L287.46875 349.45L287.46875 345.84064Q287.46875 345.325 287.29688 345.1375Q287.14062 344.95 286.82812 344.95Q286.48438 344.95 286.26562 345.21564Q286.04688 345.48126 286.04688 346.27814L286.04688 349.45L283.28125 349.45L283.28125 340.48126ZM298.9375 346.9344L294.17188 346.9344Q294.21875 347.23126 294.42188 347.46564Q294.71875 347.8094 295.1875 347.8094Q295.48438 347.8094 295.76562 347.65314Q295.92188 347.575 296.1875 347.23126L298.9375 347.4969Q298.21875 348.73126 297.40625 349.16876Q296.60938 349.59064 295.14062 349.59064Q293.84375 349.59064 293.09375 349.21564Q292.35938 348.84064 291.85938 348.04376Q291.35938 347.23126 291.35938 346.16876Q291.35938 344.6219 292.34375 343.66876Q293.34375 342.71564 295.0625 342.71564Q296.45312 342.71564 297.26562 343.1375Q298.09375 343.5594 298.51562 344.3875Q298.9375 345.2 298.9375 346.46564L298.9375 346.9344ZM296.125 345.41876Q296.07812 344.98126 295.82812 344.7469Q295.57812 344.4969 295.15625 344.4969Q294.6875 344.4969 294.40625 344.8719Q294.21875 345.1219 294.1875 345.41876L296.125 345.41876ZM309.95312 345.5125L312.64062 346.325Q312.35938 347.5125 311.82812 348.21564Q311.3125 348.90314 310.51562 349.2625Q309.73438 349.60626 308.53125 349.60626Q307.09375 349.60626 306.15625 349.1844Q305.23438 348.7469 304.54688 347.66876Q303.875 346.59064 303.875 344.95Q303.875 342.73126 305.0625 341.54376Q306.26562 340.34064 308.40625 340.34064Q310.09375 340.34064 311.0625 341.02814Q312.04688 341.71564 312.59375 343.34064L309.875 343.9344Q309.70312 343.41876 309.57812 343.2469Q309.39062 342.98126 309.10938 342.84064Q308.82812 342.7 308.46875 342.7Q307.67188 342.7 307.25 343.34064Q306.92188 343.84064 306.92188 344.9344Q306.92188 346.29376 307.29688 346.7625Q307.6875 347.23126 308.375 347.23126Q309.0625 347.23126 309.40625 346.85626Q309.75 346.46564 309.95312 345.5125ZM313.10938 346.16876Q313.10938 344.66876 314.125 343.7Q315.14062 342.71564 316.85938 342.71564Q318.8125 342.71564 319.82812 343.85626Q320.64062 344.77814 320.64062 346.1375Q320.64062 347.65314 319.625 348.6219Q318.625 349.59064 316.85938 349.59064Q315.29688 349.59064 314.3125 348.77814Q313.10938 347.79376 313.10938 346.16876ZM315.875 346.16876Q315.875 346.9344 316.15625 347.27814Q316.45312 347.60626 316.875 347.60626Q317.29688 347.60626 317.57812 347.27814Q317.875 346.95 317.875 346.1375Q317.875 345.3875 317.57812 345.0594Q317.29688 344.73126 316.89062 344.73126Q316.45312 344.73126 316.15625 345.075Q315.875 345.40314 315.875 346.16876ZM321.78125 342.85626L324.375 342.85626L324.375 343.52814Q324.5625 343.29376 325.10938 343.0125Q325.65625 342.71564 326.4375 342.71564Q327.51562 342.71564 328.125 343.35626Q328.73438 343.9969 328.73438 345.3094L328.73438 349.45L325.96875 349.45L325.96875 345.84064Q325.96875 345.325 325.79688 345.1375Q325.64062 344.95 325.32812 344.95Q324.98438 344.95 324.76562 345.21564Q324.54688 345.48126 324.54688 346.27814L324.54688 349.45L321.78125 349.45L321.78125 342.85626ZM329.6875 347.3719L332.42188 347.10626Q332.59375 347.60626 332.8125 347.7625Q333.03125 347.91876 333.40625 347.91876Q333.82812 347.91876 334.04688 347.7469Q334.17188 347.65314 334.17188 347.5125Q334.17188 347.3719 333.98438 347.29376Q333.82812 347.1844 333.03125 347.0594Q331.76562 346.84064 331.23438 346.6375Q330.71875 346.4344 330.35938 345.95Q330.0 345.46564 330.0 344.84064Q330.0 344.16876 330.39062 343.6844Q330.79688 343.1844 331.45312 342.95Q332.125 342.71564 333.21875 342.71564Q334.35938 342.71564 334.92188 342.8875Q335.48438 343.0594 335.85938 343.45Q336.25 343.84064 336.59375 344.71564L333.92188 344.98126Q333.82812 344.59064 333.67188 344.4969Q333.4375 344.34064 333.09375 344.34064Q332.75 344.34064 332.625 344.45Q332.51562 344.54376 332.51562 344.65314Q332.51562 344.7625 332.64062 344.825Q332.84375 344.91876 333.59375 345.0125Q334.8125 345.15314 335.42188 345.41876Q336.04688 345.66876 336.39062 346.16876Q336.73438 346.65314 336.73438 347.2469Q336.73438 347.825 336.375 348.40314Q336.01562 348.96564 335.26562 349.27814Q334.51562 349.59064 333.28125 349.59064Q331.51562 349.59064 330.73438 349.075Q329.95312 348.54376 329.6875 347.3719ZM344.8125 346.9344L340.04688 346.9344Q340.09375 347.23126 340.29688 347.46564Q340.59375 347.8094 341.0625 347.8094Q341.35938 347.8094 341.64062 347.65314Q341.79688 347.575 342.0625 347.23126L344.8125 347.4969Q344.09375 348.73126 343.28125 349.16876Q342.48438 349.59064 341.01562 349.59064Q339.71875 349.59064 338.96875 349.21564Q338.23438 348.84064 337.73438 348.04376Q337.23438 347.23126 337.23438 346.16876Q337.23438 344.6219 338.21875 343.66876Q339.21875 342.71564 340.9375 342.71564Q342.32812 342.71564 343.14062 343.1375Q343.96875 343.5594 344.39062 344.3875Q344.8125 345.2 344.8125 346.46564L344.8125 346.9344ZM342.0 345.41876Q341.95312 344.98126 341.70312 344.7469Q341.45312 344.4969 341.03125 344.4969Q340.5625 344.4969 340.28125 344.8719Q340.09375 345.1219 340.0625 345.41876L342.0 345.41876ZM345.9375 342.85626L348.54688 342.85626L348.54688 343.23126Q348.51562 343.27814 348.90625 342.9969Q349.29688 342.71564 349.85938 342.71564Q350.4375 342.71564 351.25 343.15314L350.375 345.16876Q349.82812 344.9344 349.60938 344.9344Q349.25 344.9344 349.04688 345.2469Q348.70312 345.7469 348.70312 347.16876L348.70312 349.45L345.9375 349.45L345.9375 342.85626ZM350.48438 342.85626L353.39062 342.85626L354.45312 346.35626L355.5625 342.85626L358.39062 342.85626L355.59375 349.45L353.23438 349.45L350.48438 342.85626ZM361.14062 345.2625L358.5 344.96564Q358.70312 344.1375 358.96875 343.7625Q359.23438 343.3875 359.71875 343.1219Q360.07812 342.91876 360.67188 342.825Q361.28125 342.71564 361.95312 342.71564Q363.04688 342.71564 363.71875 342.84064Q364.40625 342.96564 364.89062 343.3719Q365.21875 343.66876 365.40625 344.2Q365.60938 344.71564 365.60938 345.1844L365.60938 347.9344Q365.60938 348.35626 365.65625 348.59064Q365.70312 348.8094 366.01562 349.45L363.375 349.45Q363.17188 349.10626 363.125 348.96564Q363.07812 348.8094 363.125 348.77814Q362.85938 349.10626 362.375 349.3094Q361.6875 349.59064 360.82812 349.59064Q359.625 349.59064 358.98438 349.02814Q358.35938 348.45 358.35938 347.6219Q358.35938 346.825 358.82812 346.325Q359.29688 345.825 360.46875 345.575Q361.79688 345.3094 362.1875 345.21564Q362.57812 345.10626 362.90625 344.98126Q362.90625 344.7469 362.76562 344.6219Q362.64062 344.4969 362.26562 344.4969Q361.73438 344.4969 361.5 344.65314Q361.3125 344.77814 361.14062 345.2625ZM362.90625 346.575Q362.64062 346.65314 362.10938 346.8094Q361.4375 346.98126 361.26562 347.1375Q361.125 347.27814 361.125 347.4344Q361.125 347.6375 361.26562 347.7625Q361.42188 347.8875 361.71875 347.8875Q362.0625 347.8875 362.35938 347.71564Q362.65625 347.54376 362.78125 347.325Q362.90625 347.09064 362.90625 346.6844L362.90625 346.575ZM370.28125 340.35626L370.28125 342.85626L371.59375 342.85626L371.59375 344.96564L370.28125 344.96564L370.28125 346.98126Q370.28125 347.34064 370.32812 347.41876Q370.40625 347.52814 370.57812 347.52814Q370.8125 347.52814 371.48438 347.3094L371.70312 349.3719Q370.625 349.59064 369.84375 349.59064Q368.90625 349.59064 368.4375 349.34064Q367.96875 349.09064 367.73438 348.575Q367.51562 348.04376 367.51562 346.96564L367.51562 344.96564L366.64062 344.96564L366.64062 342.85626L367.51562 342.85626L367.51562 341.79376L370.28125 340.35626ZM372.5 340.48126L375.25 340.48126L375.25 342.48126L372.5 342.48126L372.5 340.48126ZM372.5 342.85626L375.25 342.85626L375.25 349.45L372.5 349.45L372.5 342.85626ZM375.98438 342.85626L378.89062 342.85626L379.95312 346.35626L381.0625 342.85626L383.89062 342.85626L381.09375 349.45L378.73438 349.45L375.98438 342.85626ZM391.4375 346.9344L386.67188 346.9344Q386.71875 347.23126 386.92188 347.46564Q387.21875 347.8094 387.6875 347.8094Q387.98438 347.8094 388.26562 347.65314Q388.42188 347.575 388.6875 347.23126L391.4375 347.4969Q390.71875 348.73126 389.90625 349.16876Q389.10938 349.59064 387.64062 349.59064Q386.34375 349.59064 385.59375 349.21564Q384.85938 348.84064 384.35938 348.04376Q383.85938 347.23126 383.85938 346.16876Q383.85938 344.6219 384.84375 343.66876Q385.84375 342.71564 387.5625 342.71564Q388.95312 342.71564 389.76562 343.1375Q390.59375 343.5594 391.01562 344.3875Q391.4375 345.2 391.4375 346.46564L391.4375 346.9344ZM388.625 345.41876Q388.57812 344.98126 388.32812 344.7469Q388.07812 344.4969 387.65625 344.4969Q387.1875 344.4969 386.90625 344.8719Q386.71875 345.1219 386.6875 345.41876L388.625 345.41876Z" fill-rule="nonzero"/><path fill="#ff0000" d="M407.8125 340.45C407.8125 339.8977 408.26022 339.45 408.8125 339.45L418.8125 339.45C419.36478 339.45 419.8125 339.8977 419.8125 340.45L419.8125 350.45C419.8125 351.0023 419.36478 351.45 418.8125 351.45L408.8125 351.45C408.26022 351.45 407.8125 351.0023 407.8125 350.45Z" fill-rule="nonzero"/><path fill="#000000" d="M428.21875 346.2469L431.09375 346.0594Q431.20312 346.79376 431.42188 347.09064Q431.78125 347.52814 432.45312 347.52814Q432.95312 347.52814 433.1875 347.325Q433.4375 347.10626 433.4375 346.84064Q433.4375 346.575 433.21875 346.3719Q432.96875 346.15314 431.9375 345.9344Q430.14062 345.5125 429.35938 344.84064Q428.54688 344.1219 428.54688 343.04376Q428.54688 342.3094 428.95312 341.6844Q429.375 341.04376 430.1875 340.7Q431.01562 340.34064 432.39062 340.34064Q434.09375 340.34064 435.01562 340.9969Q435.9375 341.6375 436.125 343.2625L433.26562 343.4344Q433.15625 342.7469 432.89062 342.52814Q432.625 342.3094 432.125 342.3094Q431.71875 342.3094 431.54688 342.46564Q431.375 342.60626 431.375 342.79376Q431.375 342.90314 431.51562 343.02814Q431.67188 343.16876 432.3125 343.29376Q434.07812 343.6844 434.875 344.09064Q435.67188 344.48126 436.03125 345.10626Q436.39062 345.71564 436.39062 346.46564Q436.39062 347.35626 435.90625 348.10626Q435.42188 348.84064 434.5625 349.21564Q433.70312 349.59064 432.40625 349.59064Q430.14062 349.59064 429.23438 348.7Q428.34375 347.79376 428.21875 346.2469ZM440.39062 345.2625L437.75 344.96564Q437.95312 344.1375 438.21875 343.7625Q438.48438 343.3875 438.96875 343.1219Q439.32812 342.91876 439.92188 342.825Q440.53125 342.71564 441.20312 342.71564Q442.29688 342.71564 442.96875 342.84064Q443.65625 342.96564 444.14062 343.3719Q444.46875 343.66876 444.65625 344.2Q444.85938 344.71564 444.85938 345.1844L444.85938 347.9344Q444.85938 348.35626 444.90625 348.59064Q444.95312 348.8094 445.26562 349.45L442.625 349.45Q442.42188 349.10626 442.375 348.96564Q442.32812 348.8094 442.375 348.77814Q442.10938 349.10626 441.625 349.3094Q440.9375 349.59064 440.07812 349.59064Q438.875 349.59064 438.23438 349.02814Q437.60938 348.45 437.60938 347.6219Q437.60938 346.825 438.07812 346.325Q438.54688 345.825 439.71875 345.575Q441.04688 345.3094 441.4375 345.21564Q441.82812 345.10626 442.15625 344.98126Q442.15625 344.7469 442.01562 344.6219Q441.89062 344.4969 441.51562 344.4969Q440.98438 344.4969 440.75 344.65314Q440.5625 344.77814 440.39062 345.2625ZM442.15625 346.575Q441.89062 346.65314 441.35938 346.8094Q440.6875 346.98126 440.51562 347.1375Q440.375 347.27814 440.375 347.4344Q440.375 347.6375 440.51562 347.7625Q440.67188 347.8875 440.96875 347.8875Q441.3125 347.8875 441.60938 347.71564Q441.90625 347.54376 442.03125 347.325Q442.15625 347.09064 442.15625 346.6844L442.15625 346.575ZM446.29688 342.85626L448.90625 342.85626L448.90625 343.4344Q449.07812 343.21564 449.59375 342.96564Q450.125 342.71564 450.85938 342.71564Q451.65625 342.71564 452.14062 342.9969Q452.625 343.27814 452.79688 343.6219Q453.20312 343.1844 453.6875 342.95Q454.1875 342.71564 454.92188 342.71564Q456.0 342.71564 456.60938 343.3719Q457.23438 344.0125 457.23438 345.35626L457.23438 349.45L454.46875 349.45L454.46875 345.71564Q454.46875 345.35626 454.34375 345.2Q454.15625 344.95 453.89062 344.95Q453.5625 344.95 453.34375 345.2Q453.14062 345.4344 453.14062 346.04376L453.14062 349.45L450.375 349.45L450.375 345.84064Q450.375 345.45 450.34375 345.34064Q450.28125 345.15314 450.14062 345.0594Q450.0 344.95 449.8125 344.95Q449.48438 344.95 449.26562 345.2Q449.0625 345.4344 449.0625 346.09064L449.0625 349.45L446.29688 349.45L446.29688 342.85626ZM465.90625 340.35626L465.90625 342.85626L467.21875 342.85626L467.21875 344.96564L465.90625 344.96564L465.90625 346.98126Q465.90625 347.34064 465.95312 347.41876Q466.03125 347.52814 466.20312 347.52814Q466.4375 347.52814 467.10938 347.3094L467.32812 349.3719Q466.25 349.59064 465.46875 349.59064Q464.53125 349.59064 464.0625 349.34064Q463.59375 349.09064 463.35938 348.575Q463.14062 348.04376 463.14062 346.96564L463.14062 344.96564L462.26562 344.96564L462.26562 342.85626L463.14062 342.85626L463.14062 341.79376L465.90625 340.35626ZM468.03125 340.48126L470.79688 340.48126L470.79688 343.3719Q470.98438 343.16876 471.48438 342.95Q472.0 342.71564 472.70312 342.71564Q473.76562 342.71564 474.375 343.35626Q474.98438 343.9969 474.98438 345.3094L474.98438 349.45L472.21875 349.45L472.21875 345.84064Q472.21875 345.325 472.04688 345.1375Q471.89062 344.95 471.57812 344.95Q471.23438 344.95 471.01562 345.21564Q470.79688 345.48126 470.79688 346.27814L470.79688 349.45L468.03125 349.45L468.03125 340.48126ZM483.6875 346.9344L478.92188 346.9344Q478.96875 347.23126 479.17188 347.46564Q479.46875 347.8094 479.9375 347.8094Q480.23438 347.8094 480.51562 347.65314Q480.67188 347.575 480.9375 347.23126L483.6875 347.4969Q482.96875 348.73126 482.15625 349.16876Q481.35938 349.59064 479.89062 349.59064Q478.59375 349.59064 477.84375 349.21564Q477.10938 348.84064 476.60938 348.04376Q476.10938 347.23126 476.10938 346.16876Q476.10938 344.6219 477.09375 343.66876Q478.09375 342.71564 479.8125 342.71564Q481.20312 342.71564 482.01562 343.1375Q482.84375 343.5594 483.26562 344.3875Q483.6875 345.2 483.6875 346.46564L483.6875 346.9344ZM480.875 345.41876Q480.82812 344.98126 480.57812 344.7469Q480.32812 344.4969 479.90625 344.4969Q479.4375 344.4969 479.15625 344.8719Q478.96875 345.1219 478.9375 345.41876L480.875 345.41876ZM488.46875 346.2469L491.34375 346.0594Q491.45312 346.79376 491.67188 347.09064Q492.03125 347.52814 492.70312 347.52814Q493.20312 347.52814 493.4375 347.325Q493.6875 347.10626 493.6875 346.84064Q493.6875 346.575 493.46875 346.3719Q493.21875 346.15314 492.1875 345.9344Q490.39062 345.5125 489.60938 344.84064Q488.79688 344.1219 488.79688 343.04376Q488.79688 342.3094 489.20312 341.6844Q489.625 341.04376 490.4375 340.7Q491.26562 340.34064 492.64062 340.34064Q494.34375 340.34064 495.26562 340.9969Q496.1875 341.6375 496.375 343.2625L493.51562 343.4344Q493.40625 342.7469 493.14062 342.52814Q492.875 342.3094 492.375 342.3094Q491.96875 342.3094 491.79688 342.46564Q491.625 342.60626 491.625 342.79376Q491.625 342.90314 491.76562 343.02814Q491.92188 343.16876 492.5625 343.29376Q494.32812 343.6844 495.125 344.09064Q495.92188 344.48126 496.28125 345.10626Q496.64062 345.71564 496.64062 346.46564Q496.64062 347.35626 496.15625 348.10626Q495.67188 348.84064 494.8125 349.21564Q493.95312 349.59064 492.65625 349.59064Q490.39062 349.59064 489.48438 348.7Q488.59375 347.79376 488.46875 346.2469ZM497.85938 346.16876Q497.85938 344.66876 498.875 343.7Q499.89062 342.71564 501.60938 342.71564Q503.5625 342.71564 504.57812 343.85626Q505.39062 344.77814 505.39062 346.1375Q505.39062 347.65314 504.375 348.6219Q503.375 349.59064 501.60938 349.59064Q500.04688 349.59064 499.0625 348.77814Q497.85938 347.79376 497.85938 346.16876ZM500.625 346.16876Q500.625 346.9344 500.90625 347.27814Q501.20312 347.60626 501.625 347.60626Q502.04688 347.60626 502.32812 347.27814Q502.625 346.95 502.625 346.1375Q502.625 345.3875 502.32812 345.0594Q502.04688 344.73126 501.64062 344.73126Q501.20312 344.73126 500.90625 345.075Q500.625 345.40314 500.625 346.16876ZM511.23438 346.6219L513.8594 346.9344Q513.6094 347.8875 513.15625 348.45Q512.7031 348.9969 511.98438 349.29376Q511.28125 349.59064 510.23438 349.59064Q509.20312 349.59064 508.51562 349.40314Q507.82812 349.21564 507.3125 348.77814Q506.8125 348.325 506.53125 347.7469Q506.25 347.15314 506.25 346.1844Q506.25 345.16876 506.59375 344.4969Q506.84375 343.9969 507.28125 343.60626Q507.73438 343.21564 508.20312 343.0125Q508.9375 342.71564 510.0625 342.71564Q511.64062 342.71564 512.4844 343.29376Q513.34375 343.85626 513.7344 345.2L511.125 345.54376Q511.0 345.04376 510.76562 344.8875Q510.53125 344.71564 510.125 344.71564Q509.64062 344.71564 509.3125 345.09064Q509.0 345.45 509.0 346.2469Q509.0 346.9344 509.29688 347.27814Q509.60938 347.6219 510.09375 347.6219Q510.5 347.6219 510.76562 347.41876Q511.04688 347.21564 511.23438 346.6219ZM515.0 340.48126L517.75 340.48126L517.75 342.48126L515.0 342.48126L515.0 340.48126ZM515.0 342.85626L517.75 342.85626L517.75 349.45L515.0 349.45L515.0 342.85626ZM521.7656 345.2625L519.125 344.96564Q519.3281 344.1375 519.59375 343.7625Q519.8594 343.3875 520.34375 343.1219Q520.7031 342.91876 521.2969 342.825Q521.90625 342.71564 522.5781 342.71564Q523.6719 342.71564 524.34375 342.84064Q525.03125 342.96564 525.5156 343.3719Q525.84375 343.66876 526.03125 344.2Q526.2344 344.71564 526.2344 345.1844L526.2344 347.9344Q526.2344 348.35626 526.28125 348.59064Q526.3281 348.8094 526.6406 349.45L524.0 349.45Q523.7969 349.10626 523.75 348.96564Q523.7031 348.8094 523.75 348.77814Q523.4844 349.10626 523.0 349.3094Q522.3125 349.59064 521.4531 349.59064Q520.25 349.59064 519.6094 349.02814Q518.9844 348.45 518.9844 347.6219Q518.9844 346.825 519.4531 346.325Q519.9219 345.825 521.09375 345.575Q522.4219 345.3094 522.8125 345.21564Q523.2031 345.10626 523.53125 344.98126Q523.53125 344.7469 523.3906 344.6219Q523.2656 344.4969 522.8906 344.4969Q522.3594 344.4969 522.125 344.65314Q521.9375 344.77814 521.7656 345.2625ZM523.53125 346.575Q523.2656 346.65314 522.7344 346.8094Q522.0625 346.98126 521.8906 347.1375Q521.75 347.27814 521.75 347.4344Q521.75 347.6375 521.8906 347.7625Q522.0469 347.8875 522.34375 347.8875Q522.6875 347.8875 522.9844 347.71564Q523.28125 347.54376 523.40625 347.325Q523.53125 347.09064 523.53125 346.6844L523.53125 346.575ZM527.7344 340.48126L530.5 340.48126L530.5 349.45L527.7344 349.45L527.7344 340.48126ZM532.125 340.48126L534.875 340.48126L534.875 342.48126L532.125 342.48126L532.125 340.48126ZM532.125 342.85626L534.875 342.85626L534.875 349.45L532.125 349.45L532.125 342.85626ZM535.9375 347.3719L538.6719 347.10626Q538.84375 347.60626 539.0625 347.7625Q539.28125 347.91876 539.65625 347.91876Q540.0781 347.91876 540.2969 347.7469Q540.4219 347.65314 540.4219 347.5125Q540.4219 347.3719 540.2344 347.29376Q540.0781 347.1844 539.28125 347.0594Q538.0156 346.84064 537.4844 346.6375Q536.96875 346.4344 536.6094 345.95Q536.25 345.46564 536.25 344.84064Q536.25 344.16876 536.6406 343.6844Q537.0469 343.1844 537.7031 342.95Q538.375 342.71564 539.46875 342.71564Q540.6094 342.71564 541.1719 342.8875Q541.7344 343.0594 542.1094 343.45Q542.5 343.84064 542.84375 344.71564L540.1719 344.98126Q540.0781 344.59064 539.9219 344.4969Q539.6875 344.34064 539.34375 344.34064Q539.0 344.34064 538.875 344.45Q538.7656 344.54376 538.7656 344.65314Q538.7656 344.7625 538.8906 344.825Q539.09375 344.91876 539.84375 345.0125Q541.0625 345.15314 541.6719 345.41876Q542.2969 345.66876 542.6406 346.16876Q542.9844 346.65314 542.9844 347.2469Q542.9844 347.825 542.625 348.40314Q542.2656 348.96564 541.5156 349.27814Q540.7656 349.59064 539.53125 349.59064Q537.7656 349.59064 536.9844 349.075Q536.2031 348.54376 535.9375 347.3719ZM547.03125 340.35626L547.03125 342.85626L548.34375 342.85626L548.34375 344.96564L547.03125 344.96564L547.03125 346.98126Q547.03125 347.34064 547.0781 347.41876Q547.15625 347.52814 547.3281 347.52814Q547.5625 347.52814 548.2344 347.3094L548.4531 349.3719Q547.375 349.59064 546.59375 349.59064Q545.65625 349.59064 545.1875 349.34064Q544.71875 349.09064 544.4844 348.575Q544.2656 348.04376 544.2656 346.96564L544.2656 344.96564L543.3906 344.96564L543.3906 342.85626L544.2656 342.85626L544.2656 341.79376L547.03125 340.35626Z" fill-rule="nonzero"/><path fill="#34a853" d="M564.4375 340.45C564.4375 339.8977 564.8852 339.45 565.4375 339.45L575.4375 339.45C575.9898 339.45 576.4375 339.8977 576.4375 340.45L576.4375 350.45C576.4375 351.0023 575.9898 351.45 575.4375 351.45L565.4375 351.45C564.8852 351.45 564.4375 351.0023 564.4375 350.45Z" fill-rule="nonzero"/><path fill="#000000" d="M585.3594 349.45L585.3594 340.48126L589.96875 340.48126Q591.21875 340.48126 591.9219 340.71564Q592.625 340.9344 593.0469 341.5594Q593.4844 342.16876 593.4844 343.0594Q593.4844 343.825 593.15625 344.3875Q592.8281 344.95 592.25 345.29376Q591.875 345.5125 591.7344 345.4969Q591.78125 345.45 592.0156 345.6375Q592.1875 345.7469 592.46875 346.1219Q592.7656 346.4969 592.875 346.7L594.2969 349.45L590.875 349.45L589.40625 346.73126Q589.15625 346.2469 588.9844 346.1375Q588.7344 345.96564 588.4375 345.96564L588.3906 345.96564L588.3906 349.45L585.3594 349.45ZM588.3906 343.96564L589.3281 343.96564Q589.4844 343.96564 590.0 343.84064Q590.1875 343.8094 590.3125 343.65314Q590.4375 343.48126 590.4375 343.2625Q590.4375 342.95 590.2344 342.77814Q590.03125 342.59064 589.375 342.59064L588.3906 342.59064L588.3906 343.96564ZM594.2344 346.16876Q594.2344 344.66876 595.25 343.7Q596.2656 342.71564 597.9844 342.71564Q599.9375 342.71564 600.9531 343.85626Q601.7656 344.77814 601.7656 346.1375Q601.7656 347.65314 600.75 348.6219Q599.75 349.59064 597.9844 349.59064Q596.4219 349.59064 595.4375 348.77814Q594.2344 347.79376 594.2344 346.16876ZM597.0 346.16876Q597.0 346.9344 597.28125 347.27814Q597.5781 347.60626 598.0 347.60626Q598.4219 347.60626 598.7031 347.27814Q599.0 346.95 599.0 346.1375Q599.0 345.3875 598.7031 345.0594Q598.4219 344.73126 598.0156 344.73126Q597.5781 344.73126 597.28125 345.075Q597.0 345.40314 597.0 346.16876ZM602.90625 342.85626L605.5 342.85626L605.5 343.52814Q605.6875 343.29376 606.2344 343.0125Q606.78125 342.71564 607.5625 342.71564Q608.6406 342.71564 609.25 343.35626Q609.8594 343.9969 609.8594 345.3094L609.8594 349.45L607.09375 349.45L607.09375 345.84064Q607.09375 345.325 606.9219 345.1375Q606.7656 344.95 606.4531 344.95Q606.1094 344.95 605.8906 345.21564Q605.6719 345.48126 605.6719 346.27814L605.6719 349.45L602.90625 349.45L602.90625 342.85626ZM613.7656 345.2625L611.125 344.96564Q611.3281 344.1375 611.59375 343.7625Q611.8594 343.3875 612.34375 343.1219Q612.7031 342.91876 613.2969 342.825Q613.90625 342.71564 614.5781 342.71564Q615.6719 342.71564 616.34375 342.84064Q617.03125 342.96564 617.5156 343.3719Q617.84375 343.66876 618.03125 344.2Q618.2344 344.71564 618.2344 345.1844L618.2344 347.9344Q618.2344 348.35626 618.28125 348.59064Q618.3281 348.8094 618.6406 349.45L616.0 349.45Q615.7969 349.10626 615.75 348.96564Q615.7031 348.8094 615.75 348.77814Q615.4844 349.10626 615.0 349.3094Q614.3125 349.59064 613.4531 349.59064Q612.25 349.59064 611.6094 349.02814Q610.9844 348.45 610.9844 347.6219Q610.9844 346.825 611.4531 346.325Q611.9219 345.825 613.09375 345.575Q614.4219 345.3094 614.8125 345.21564Q615.2031 345.10626 615.53125 344.98126Q615.53125 344.7469 615.3906 344.6219Q615.2656 344.4969 614.8906 344.4969Q614.3594 344.4969 614.125 344.65314Q613.9375 344.77814 613.7656 345.2625ZM615.53125 346.575Q615.2656 346.65314 614.7344 346.8094Q614.0625 346.98126 613.8906 347.1375Q613.75 347.27814 613.75 347.4344Q613.75 347.6375 613.8906 347.7625Q614.0469 347.8875 614.34375 347.8875Q614.6875 347.8875 614.9844 347.71564Q615.28125 347.54376 615.40625 347.325Q615.53125 347.09064 615.53125 346.6844L615.53125 346.575ZM619.7344 340.48126L622.5 340.48126L622.5 349.45L619.7344 349.45L619.7344 340.48126ZM630.9531 340.48126L630.9531 349.45L628.3594 349.45L628.3594 348.8875Q628.2031 349.075 627.78125 349.3094Q627.21875 349.59064 626.53125 349.59064Q625.1719 349.59064 624.4531 348.5594Q623.7344 347.52814 623.7344 346.09064Q623.7344 344.46564 624.53125 343.59064Q625.3281 342.71564 626.5469 342.71564Q627.1406 342.71564 627.625 342.91876Q628.125 343.1219 628.1719 343.16876L628.1719 340.48126L630.9531 340.48126ZM628.1875 346.1375Q628.1875 345.46564 627.9219 345.16876Q627.6719 344.8719 627.28125 344.8719Q626.96875 344.8719 626.7344 345.15314Q626.5 345.4344 626.5 346.1844Q626.5 346.8875 626.7344 347.1844Q626.9844 347.46564 627.3125 347.46564Q627.6719 347.46564 627.9219 347.16876Q628.1875 346.8719 628.1875 346.1375ZM636.6094 349.45L636.6094 340.48126L641.21875 340.48126Q642.46875 340.48126 643.1719 340.71564Q643.875 340.9344 644.2969 341.5594Q644.7344 342.16876 644.7344 343.0594Q644.7344 343.825 644.40625 344.3875Q644.0781 344.95 643.5 345.29376Q643.125 345.5125 642.9844 345.4969Q643.03125 345.45 643.2656 345.6375Q643.4375 345.7469 643.71875 346.1219Q644.0156 346.4969 644.125 346.7L645.5469 349.45L642.125 349.45L640.65625 346.73126Q640.40625 346.2469 640.2344 346.1375Q639.9844 345.96564 639.6875 345.96564L639.6406 345.96564L639.6406 349.45L636.6094 349.45ZM639.6406 343.96564L640.5781 343.96564Q640.7344 343.96564 641.25 343.84064Q641.4375 343.8094 641.5625 343.65314Q641.6875 343.48126 641.6875 343.2625Q641.6875 342.95 641.4844 342.77814Q641.28125 342.59064 640.625 342.59064L639.6406 342.59064L639.6406 343.96564ZM645.875 340.48126L648.625 340.48126L648.625 342.48126L645.875 342.48126L645.875 340.48126ZM645.875 342.85626L648.625 342.85626L648.625 349.45L645.875 349.45L645.875 342.85626ZM654.4844 342.85626L657.09375 342.85626L657.09375 348.91876L657.1094 349.1844Q657.1094 349.825 656.84375 350.3875Q656.5781 350.96564 656.125 351.3094Q655.6719 351.66876 655.0 351.825Q654.3281 351.98126 653.5 351.98126Q651.5625 351.98126 650.7969 351.3719Q650.03125 350.7625 650.03125 349.71564Q650.03125 349.60626 650.0625 349.2L652.6875 349.4969Q652.7969 349.8719 652.9219 349.95Q653.1406 350.10626 653.4844 350.10626Q653.9219 350.10626 654.1094 349.8875Q654.3125 349.66876 654.3125 349.0594L654.3125 348.6375Q654.28125 348.66876 653.8906 348.8875Q653.2969 349.2 652.6094 349.2Q651.2656 349.2 650.4375 348.02814Q649.8594 347.21564 649.8594 345.8719Q649.8594 344.34064 650.6094 343.52814Q651.375 342.71564 652.59375 342.71564Q653.375 342.71564 653.875 342.98126Q654.3906 343.2469 654.4844 343.3719L654.4844 342.85626ZM652.625 346.0594Q652.625 346.66876 652.8594 346.9344Q653.09375 347.2 653.46875 347.2Q653.84375 347.2 654.09375 346.91876Q654.34375 346.6219 654.34375 346.02814Q654.34375 345.41876 654.0781 345.1219Q653.8125 344.8094 653.4375 344.8094Q653.0781 344.8094 652.84375 345.09064Q652.625 345.35626 652.625 346.0594ZM658.53125 340.48126L661.2969 340.48126L661.2969 343.3719Q661.4844 343.16876 661.9844 342.95Q662.5 342.71564 663.2031 342.71564Q664.2656 342.71564 664.875 343.35626Q665.4844 343.9969 665.4844 345.3094L665.4844 349.45L662.71875 349.45L662.71875 345.84064Q662.71875 345.325 662.5469 345.1375Q662.3906 344.95 662.0781 344.95Q661.7344 344.95 661.5156 345.21564Q661.2969 345.48126 661.2969 346.27814L661.2969 349.45L658.53125 349.45L658.53125 340.48126ZM670.15625 340.35626L670.15625 342.85626L671.46875 342.85626L671.46875 344.96564L670.15625 344.96564L670.15625 346.98126Q670.15625 347.34064 670.2031 347.41876Q670.28125 347.52814 670.4531 347.52814Q670.6875 347.52814 671.3594 347.3094L671.5781 349.3719Q670.5 349.59064 669.71875 349.59064Q668.78125 349.59064 668.3125 349.34064Q667.84375 349.09064 667.6094 348.575Q667.3906 348.04376 667.3906 346.96564L667.3906 344.96564L666.5156 344.96564L666.5156 342.85626L667.3906 342.85626L667.3906 341.79376L670.15625 340.35626ZM671.8281 345.0125L675.6719 345.0125L675.6719 347.2469L671.8281 347.2469L671.8281 345.0125ZM675.8906 340.48126L678.7969 340.48126L679.5781 344.6375L680.7344 340.48126L683.53125 340.48126L684.6875 344.6375L685.46875 340.48126L688.3594 340.48126L686.3906 349.45L683.5 349.45L682.125 344.5594L680.7656 349.45L677.875 349.45L675.8906 340.48126ZM689.125 340.48126L691.875 340.48126L691.875 342.48126L689.125 342.48126L689.125 340.48126ZM689.125 342.85626L691.875 342.85626L691.875 349.45L689.125 349.45L689.125 342.85626ZM693.40625 342.85626L696.0 342.85626L696.0 343.52814Q696.1875 343.29376 696.7344 343.0125Q697.28125 342.71564 698.0625 342.71564Q699.1406 342.71564 699.75 343.35626Q700.3594 343.9969 700.3594 345.3094L700.3594 349.45L697.59375 349.45L697.59375 345.84064Q697.59375 345.325 697.4219 345.1375Q697.2656 344.95 696.9531 344.95Q696.6094 344.95 696.3906 345.21564Q696.1719 345.48126 696.1719 346.27814L696.1719 349.45L693.40625 349.45L693.40625 342.85626ZM706.1094 342.85626L708.71875 342.85626L708.71875 348.91876L708.7344 349.1844Q708.7344 349.825 708.46875 350.3875Q708.2031 350.96564 707.75 351.3094Q707.2969 351.66876 706.625 351.825Q705.9531 351.98126 705.125 351.98126Q703.1875 351.98126 702.4219 351.3719Q701.65625 350.7625 701.65625 349.71564Q701.65625 349.60626 701.6875 349.2L704.3125 349.4969Q704.4219 349.8719 704.5469 349.95Q704.7656 350.10626 705.1094 350.10626Q705.5469 350.10626 705.7344 349.8875Q705.9375 349.66876 705.9375 349.0594L705.9375 348.6375Q705.90625 348.66876 705.5156 348.8875Q704.9219 349.2 704.2344 349.2Q702.8906 349.2 702.0625 348.02814Q701.4844 347.21564 701.4844 345.8719Q701.4844 344.34064 702.2344 343.52814Q703.0 342.71564 704.21875 342.71564Q705.0 342.71564 705.5 342.98126Q706.0156 343.2469 706.1094 343.3719L706.1094 342.85626ZM704.25 346.0594Q704.25 346.66876 704.4844 346.9344Q704.71875 347.2 705.09375 347.2Q705.46875 347.2 705.71875 346.91876Q705.96875 346.6219 705.96875 346.02814Q705.96875 345.41876 705.7031 345.1219Q705.4375 344.8094 705.0625 344.8094Q704.7031 344.8094 704.46875 345.09064Q704.25 345.35626 704.25 346.0594Z" fill-rule="nonzero"/></svg>